AnekBangla-ExpandedExtraBold.ufo
<glyph name="dollar" format="2">
	<advance width="1467"/>
	<unicode hex="0024"/>
	<outline>
		<contour>
			<point x="887" y="1112" type="line"/>
			<point x="887" y="1514" type="line"/>
			<point x="559" y="1514" type="line"/>
			<point x="559" y="1112" type="line"/>
		</contour>
		<contour>
			<point x="887" y="-235" type="line"/>
			<point x="887" y="141" type="line"/>
			<point x="559" y="141" type="line"/>
			<point x="559" y="-235" type="line"/>
		</contour>
		<component base="S"/>
	</outline>
</glyph>
<glyph name="percent" format="2">
	<advance width="1991"/>
	<unicode hex="0025"/>
	<outline>
		<contour>
			<point x="299" y="0" type="line"/>
			<point x="662" y="0" type="line"/>
			<point x="1690" y="1278" type="line"/>
			<point x="1334" y="1278" type="line"/>
		</contour>
		<contour>
			<point x="1533" y="-45" type="curve" smooth="yes"/>
			<point x="1782" y="-45"/>
			<point x="1923" y="82"/>
			<point x="1923" y="306" type="curve"/>
			<point x="1923" y="315" type="line"/>
			<point x="1923" y="538"/>
			<point x="1780" y="664"/>
			<point x="1533" y="664" type="curve" smooth="yes"/>
			<point x="1285" y="664"/>
			<point x="1147" y="534"/>
			<point x="1147" y="315" type="curve"/>
			<point x="1147" y="306" type="line"/>
			<point x="1147" y="82"/>
			<point x="1285" y="-45"/>
		</contour>
		<contour>
			<point x="1533" y="180" type="curve" smooth="yes"/>
			<point x="1456" y="180"/>
			<point x="1414" y="224"/>
			<point x="1414" y="306" type="curve" smooth="yes"/>
			<point x="1414" y="313" type="line" smooth="yes"/>
			<point x="1414" y="393"/>
			<point x="1455" y="440"/>
			<point x="1533" y="440" type="curve" smooth="yes"/>
			<point x="1613" y="440"/>
			<point x="1652" y="393"/>
			<point x="1652" y="313" type="curve" smooth="yes"/>
			<point x="1652" y="306" type="line" smooth="yes"/>
			<point x="1652" y="224"/>
			<point x="1613" y="180"/>
		</contour>
		<contour>
			<point x="454" y="616" type="curve" smooth="yes"/>
			<point x="703" y="616"/>
			<point x="844" y="746"/>
			<point x="844" y="966" type="curve"/>
			<point x="844" y="975" type="line"/>
			<point x="844" y="1198"/>
			<point x="703" y="1324"/>
			<point x="454" y="1324" type="curve" smooth="yes"/>
			<point x="207" y="1324"/>
			<point x="68" y="1198"/>
			<point x="68" y="975" type="curve"/>
			<point x="68" y="966" type="line"/>
			<point x="68" y="742"/>
			<point x="207" y="616"/>
		</contour>
		<contour>
			<point x="454" y="840" type="curve" smooth="yes"/>
			<point x="378" y="840"/>
			<point x="335" y="885"/>
			<point x="335" y="966" type="curve" smooth="yes"/>
			<point x="335" y="974" type="line" smooth="yes"/>
			<point x="335" y="1054"/>
			<point x="376" y="1100"/>
			<point x="454" y="1100" type="curve" smooth="yes"/>
			<point x="534" y="1100"/>
			<point x="573" y="1054"/>
			<point x="573" y="974" type="curve" smooth="yes"/>
			<point x="573" y="966" type="line" smooth="yes"/>
			<point x="573" y="885"/>
			<point x="534" y="840"/>
		</contour>
	</outline>
</glyph>
<glyph name="ampersand" format="2">
	<advance width="1704"/>
	<unicode hex="0026"/>
	<outline>
		<contour>
			<point x="1294" y="0" type="curve"/>
			<point x="1734" y="0" type="line"/>
			<point x="1734" y="37" type="line"/>
			<point x="1695" y="73"/>
			<point x="1408" y="319"/>
			<point x="1356" y="366" type="curve"/>
			<point x="1200" y="498" type="line"/>
			<point x="739" y="843" type="line" smooth="yes"/>
			<point x="686" y="882"/>
			<point x="661" y="911"/>
			<point x="661" y="943" type="curve" smooth="yes"/>
			<point x="661" y="946" type="line" smooth="yes"/>
			<point x="661" y="986"/>
			<point x="690" y="1014"/>
			<point x="803" y="1014" type="curve" smooth="yes"/>
			<point x="939" y="1014"/>
			<point x="1110" y="985"/>
			<point x="1249" y="940" type="curve"/>
			<point x="1200" y="1243" type="line"/>
			<point x="1082" y="1283"/>
			<point x="937" y="1314"/>
			<point x="728" y="1314" type="curve" smooth="yes"/>
			<point x="399" y="1314"/>
			<point x="231" y="1194"/>
			<point x="231" y="988" type="curve" smooth="yes"/>
			<point x="231" y="979" type="line" smooth="yes"/>
			<point x="231" y="882"/>
			<point x="273" y="808"/>
			<point x="362" y="739" type="curve"/>
			<point x="448" y="651" type="line"/>
			<point x="976" y="267" type="line"/>
			<point x="1065" y="192" type="line"/>
			<point x="1098" y="163"/>
			<point x="1245" y="39"/>
		</contour>
		<contour>
			<point x="671" y="-39" type="curve" smooth="yes"/>
			<point x="931" y="-39"/>
			<point x="1093" y="31"/>
			<point x="1242" y="150" type="curve"/>
			<point x="1341" y="235" type="line"/>
			<point x="1490" y="388"/>
			<point x="1578" y="551"/>
			<point x="1633" y="789" type="curve"/>
			<point x="1236" y="789" type="line"/>
			<point x="1212" y="650"/>
			<point x="1168" y="530"/>
			<point x="1083" y="423" type="curve"/>
			<point x="998" y="343" type="line"/>
			<point x="923" y="294"/>
			<point x="830" y="263"/>
			<point x="721" y="263" type="curve" smooth="yes"/>
			<point x="547" y="263"/>
			<point x="462" y="331"/>
			<point x="462" y="434" type="curve" smooth="yes"/>
			<point x="462" y="441" type="line" smooth="yes"/>
			<point x="462" y="525"/>
			<point x="512" y="573"/>
			<point x="598" y="607" type="curve"/>
			<point x="372" y="820" type="line"/>
			<point x="162" y="729"/>
			<point x="72" y="592"/>
			<point x="72" y="402" type="curve" smooth="yes"/>
			<point x="72" y="393" type="line" smooth="yes"/>
			<point x="72" y="134"/>
			<point x="267" y="-39"/>
		</contour>
	</outline>
</glyph>
<glyph name="quotesingle" format="2">
	<advance width="524"/>
	<unicode hex="0027"/>
	<outline>
		<contour>
			<point x="411" y="758" type="line"/>
			<point x="456" y="1314" type="line"/>
			<point x="68" y="1314" type="line"/>
			<point x="108" y="758" type="line"/>
		</contour>
	</outline>
</glyph>
<glyph name="parenleft" format="2">
  <advance width="831"/>
  <unicode hex="0028"/>
  <outline>
    <contour>
      <point x="499" y="552" type="line" smooth="yes"/>
      <point x="499" y="842"/>
      <point x="600" y="1102"/>
      <point x="821" y="1349" type="curve"/>
      <point x="428" y="1349" type="line"/>
      <point x="216" y="1116"/>
      <point x="120" y="870"/>
      <point x="120" y="552" type="curve" smooth="yes"/>
      <point x="120" y="534" type="line" smooth="yes"/>
      <point x="120" y="214"/>
      <point x="207" y="-25"/>
      <point x="422" y="-265" type="curve"/>
      <point x="821" y="-265" type="line"/>
      <point x="599" y="-16"/>
      <point x="499" y="251"/>
      <point x="499" y="534" type="curve" smooth="yes"/>
    </contour>
  </outline>
</glyph>
<glyph name="parenright" format="2">
	<advance width="831"/>
	<unicode hex="0029"/>
	<outline>
		<contour>
			<point x="332" y="552" type="curve" smooth="yes"/>
			<point x="332" y="534" type="line" smooth="yes"/>
			<point x="332" y="251"/>
			<point x="232" y="-16"/>
			<point x="10" y="-265" type="curve"/>
			<point x="409" y="-265" type="line"/>
			<point x="624" y="-25"/>
			<point x="711" y="214"/>
			<point x="711" y="534" type="curve" smooth="yes"/>
			<point x="711" y="552" type="line" smooth="yes"/>
			<point x="711" y="870"/>
			<point x="615" y="1116"/>
			<point x="403" y="1349" type="curve"/>
			<point x="10" y="1349" type="line"/>
			<point x="231" y="1102"/>
			<point x="332" y="842"/>
		</contour>
	</outline>
</glyph>
<glyph name="zero" format="2">
  <advance width="1592"/>
  <unicode hex="0030"/>
  <outline>
    <contour>
      <point x="796" y="-45" type="curve" smooth="yes"/>
      <point x="1257" y="-45"/>
      <point x="1500" y="190"/>
      <point x="1500" y="632" type="curve"/>
      <point x="1500" y="646" type="line"/>
      <point x="1500" y="1085"/>
      <point x="1257" y="1321"/>
      <point x="796" y="1321" type="curve" smooth="yes"/>
      <point x="335" y="1321"/>
      <point x="92" y="1085"/>
      <point x="92" y="646" type="curve"/>
      <point x="92" y="632" type="line"/>
      <point x="92" y="190"/>
      <point x="337" y="-45"/>
    </contour>
    <contour>
      <point x="796" y="285" type="curve" smooth="yes"/>
      <point x="600" y="285"/>
      <point x="508" y="408"/>
      <point x="508" y="630" type="curve" smooth="yes"/>
      <point x="508" y="646" type="line" smooth="yes"/>
      <point x="508" y="866"/>
      <point x="597" y="991"/>
      <point x="796" y="991" type="curve" smooth="yes"/>
      <point x="995" y="991"/>
      <point x="1084" y="868"/>
      <point x="1084" y="646" type="curve" smooth="yes"/>
      <point x="1084" y="630" type="line" smooth="yes"/>
      <point x="1084" y="408"/>
      <point x="995" y="285"/>
    </contour>
  </outline>
</glyph>
<glyph name="one" format="2">
	<advance width="918"/>
	<unicode hex="0031"/>
	<outline>
		<contour>
			<point x="382" y="0" type="line"/>
			<point x="785" y="0" type="line"/>
			<point x="785" y="1278" type="line"/>
			<point x="419" y="1278" type="line"/>
			<point x="51" y="1154" type="line"/>
			<point x="42" y="805" type="line"/>
			<point x="367" y="913" type="line"/>
			<point x="382" y="913" type="line"/>
		</contour>
	</outline>
</glyph>
<glyph name="two" format="2">
	<advance width="1316"/>
	<unicode hex="0032"/>
	<outline>
		<contour>
			<point x="66" y="0" type="line"/>
			<point x="1244" y="0" type="line"/>
			<point x="1244" y="322" type="line"/>
			<point x="513" y="322" type="line"/>
			<point x="690" y="256" type="line"/>
			<point x="690" y="335" type="line"/>
			<point x="876" y="424" type="line" smooth="yes"/>
			<point x="1141" y="551"/>
			<point x="1226" y="677"/>
			<point x="1226" y="870" type="curve" smooth="yes"/>
			<point x="1226" y="884" type="line" smooth="yes"/>
			<point x="1226" y="1159"/>
			<point x="1022" y="1312"/>
			<point x="639" y="1312" type="curve" smooth="yes"/>
			<point x="415" y="1312"/>
			<point x="241" y="1265"/>
			<point x="121" y="1210" type="curve"/>
			<point x="77" y="870" type="line"/>
			<point x="201" y="922"/>
			<point x="375" y="975"/>
			<point x="553" y="975" type="curve" smooth="yes"/>
			<point x="762" y="975"/>
			<point x="809" y="909"/>
			<point x="809" y="826" type="curve" smooth="yes"/>
			<point x="809" y="819" type="line" smooth="yes"/>
			<point x="809" y="719"/>
			<point x="717" y="654"/>
			<point x="469" y="535" type="curve" smooth="yes"/>
			<point x="66" y="342" type="line"/>
		</contour>
	</outline>
</glyph>
<glyph name="three" format="2">
	<advance width="1368"/>
	<unicode hex="0033"/>
	<outline>
		<contour>
			<point x="618" y="-34" type="curve" smooth="yes"/>
			<point x="1077" y="-34"/>
			<point x="1298" y="107"/>
			<point x="1298" y="348" type="curve" smooth="yes"/>
			<point x="1298" y="363" type="line" smooth="yes"/>
			<point x="1298" y="539"/>
			<point x="1207" y="647"/>
			<point x="941" y="667" type="curve"/>
			<point x="970" y="630" type="line"/>
			<point x="970" y="680" type="line"/>
			<point x="1201" y="691"/>
			<point x="1288" y="781"/>
			<point x="1288" y="949" type="curve" smooth="yes"/>
			<point x="1288" y="960" type="line" smooth="yes"/>
			<point x="1288" y="1196"/>
			<point x="1074" y="1313"/>
			<point x="652" y="1313" type="curve" smooth="yes"/>
			<point x="420" y="1313"/>
			<point x="246" y="1277"/>
			<point x="109" y="1229" type="curve"/>
			<point x="75" y="916" type="line"/>
			<point x="205" y="951"/>
			<point x="402" y="996"/>
			<point x="600" y="996" type="curve" smooth="yes"/>
			<point x="815" y="996"/>
			<point x="872" y="971"/>
			<point x="872" y="903" type="curve" smooth="yes"/>
			<point x="872" y="900" type="line" smooth="yes"/>
			<point x="872" y="833"/>
			<point x="823" y="810"/>
			<point x="674" y="806" type="curve" smooth="yes"/>
			<point x="267" y="796" type="line"/>
			<point x="267" y="506" type="line"/>
			<point x="676" y="496" type="line" smooth="yes"/>
			<point x="825" y="492"/>
			<point x="875" y="470"/>
			<point x="875" y="403" type="curve" smooth="yes"/>
			<point x="875" y="397" type="line" smooth="yes"/>
			<point x="875" y="327"/>
			<point x="822" y="288"/>
			<point x="584" y="288" type="curve" smooth="yes"/>
			<point x="383" y="288"/>
			<point x="206" y="324"/>
			<point x="66" y="367" type="curve"/>
			<point x="100" y="39" type="line"/>
			<point x="214" y="5"/>
			<point x="395" y="-34"/>
		</contour>
	</outline>
</glyph>
<glyph name="four" format="2">
	<advance width="1500"/>
	<unicode hex="0034"/>
	<outline>
		<contour>
			<point x="903" y="0" type="line"/>
			<point x="1281" y="0" type="line"/>
			<point x="1281" y="1278" type="line"/>
			<point x="690" y="1278" type="line"/>
			<point x="64" y="581" type="line"/>
			<point x="64" y="215" type="line"/>
			<point x="1456" y="215" type="line"/>
			<point x="1456" y="524" type="line"/>
			<point x="333" y="524" type="line"/>
			<point x="468" y="364" type="line"/>
			<point x="468" y="545" type="line"/>
			<point x="874" y="1000" type="line"/>
			<point x="907" y="1000" type="line"/>
			<point x="903" y="739" type="line"/>
		</contour>
	</outline>
</glyph>
<glyph name="five" format="2">
	<advance width="1449"/>
	<unicode hex="0035"/>
	<outline>
		<contour>
			<point x="690" y="-36" type="curve" smooth="yes"/>
			<point x="1217" y="-36"/>
			<point x="1375" y="165"/>
			<point x="1375" y="424" type="curve" smooth="yes"/>
			<point x="1375" y="440" type="line" smooth="yes"/>
			<point x="1375" y="698"/>
			<point x="1226" y="848"/>
			<point x="924" y="848" type="curve" smooth="yes"/>
			<point x="679" y="848"/>
			<point x="551" y="759"/>
			<point x="498" y="638" type="curve"/>
			<point x="488" y="638" type="line"/>
			<point x="491" y="791" type="line"/>
			<point x="489" y="963" type="line"/>
			<point x="1318" y="963" type="line"/>
			<point x="1318" y="1278" type="line"/>
			<point x="117" y="1278" type="line"/>
			<point x="117" y="533" type="line"/>
			<point x="454" y="465" type="line"/>
			<point x="518" y="518"/>
			<point x="617" y="559"/>
			<point x="763" y="559" type="curve" smooth="yes"/>
			<point x="911" y="559"/>
			<point x="970" y="511"/>
			<point x="970" y="434" type="curve" smooth="yes"/>
			<point x="970" y="427" type="line" smooth="yes"/>
			<point x="970" y="355"/>
			<point x="922" y="287"/>
			<point x="666" y="287" type="curve" smooth="yes"/>
			<point x="452" y="287"/>
			<point x="237" y="344"/>
			<point x="110" y="392" type="curve"/>
			<point x="151" y="53" type="line"/>
			<point x="251" y="14"/>
			<point x="456" y="-36"/>
		</contour>
	</outline>
</glyph>
<glyph name="seven" format="2">
	<advance width="1314"/>
	<unicode hex="0037"/>
	<outline>
		<contour>
			<point x="216" y="0" type="line"/>
			<point x="668" y="0" type="line"/>
			<point x="1246" y="953" type="line"/>
			<point x="1246" y="1278" type="line"/>
			<point x="60" y="1278" type="line"/>
			<point x="60" y="956" type="line"/>
			<point x="808" y="956" type="line"/>
		</contour>
	</outline>
</glyph>
<glyph name="eight" format="2">
  <advance width="1537"/>
  <unicode hex="0038"/>
  <outline>
    <contour>
      <point x="765" y="-51" type="curve" smooth="yes"/>
      <point x="1347" y="-51"/>
      <point x="1465" y="136"/>
      <point x="1465" y="333" type="curve" smooth="yes"/>
      <point x="1465" y="347" type="line" smooth="yes"/>
      <point x="1465" y="526"/>
      <point x="1346" y="640"/>
      <point x="1106" y="670" type="curve"/>
      <point x="1106" y="684" type="line"/>
      <point x="1324" y="700"/>
      <point x="1447" y="795"/>
      <point x="1447" y="956" type="curve" smooth="yes"/>
      <point x="1447" y="970" type="line" smooth="yes"/>
      <point x="1447" y="1182"/>
      <point x="1243" y="1317"/>
      <point x="765" y="1317" type="curve" smooth="yes"/>
      <point x="294" y="1317"/>
      <point x="90" y="1182"/>
      <point x="90" y="970" type="curve" smooth="yes"/>
      <point x="90" y="956" type="line" smooth="yes"/>
      <point x="90" y="794"/>
      <point x="213" y="700"/>
      <point x="431" y="684" type="curve"/>
      <point x="431" y="670" type="line"/>
      <point x="195" y="641"/>
      <point x="72" y="528"/>
      <point x="72" y="347" type="curve" smooth="yes"/>
      <point x="72" y="333" type="line" smooth="yes"/>
      <point x="72" y="113"/>
      <point x="223" y="-51"/>
    </contour>
    <contour>
      <point x="775" y="259" type="curve" smooth="yes"/>
      <point x="550" y="259"/>
      <point x="482" y="304"/>
      <point x="482" y="375" type="curve" smooth="yes"/>
      <point x="482" y="380" type="line" smooth="yes"/>
      <point x="482" y="440"/>
      <point x="538" y="485"/>
      <point x="748" y="512" type="curve"/>
      <point x="980" y="484"/>
      <point x="1055" y="447"/>
      <point x="1055" y="380" type="curve" smooth="yes"/>
      <point x="1055" y="375" type="line" smooth="yes"/>
      <point x="1055" y="309"/>
      <point x="993" y="259"/>
    </contour>
    <contour>
      <point x="786" y="788" type="curve"/>
      <point x="549" y="807"/>
      <point x="491" y="859"/>
      <point x="491" y="915" type="curve" smooth="yes"/>
      <point x="491" y="921" type="line" smooth="yes"/>
      <point x="491" y="983"/>
      <point x="566" y="1022"/>
      <point x="765" y="1022" type="curve" smooth="yes"/>
      <point x="973" y="1022"/>
      <point x="1047" y="982"/>
      <point x="1047" y="917" type="curve" smooth="yes"/>
      <point x="1047" y="912" type="line" smooth="yes"/>
      <point x="1047" y="854"/>
      <point x="968" y="807"/>
    </contour>
  </outline>
</glyph>
<glyph name="greater" format="2">
	<advance width="1322"/>
	<unicode hex="003E"/>
	<outline>
		<contour>
			<point x="954" y="604" type="line"/>
			<point x="954" y="581" type="line"/>
			<point x="115" y="451" type="line"/>
			<point x="115" y="117" type="line"/>
			<point x="1207" y="340" type="line"/>
			<point x="1207" y="842" type="line"/>
			<point x="115" y="1061" type="line"/>
			<point x="115" y="729" type="line"/>
		</contour>
	</outline>
</glyph>
<glyph name="E" format="2">
	<advance width="1484"/>
	<unicode hex="0045"/>
	<anchor x="1370" y="10" name="ogonek"/>
	<anchor x="766" y="1278" name="top"/>
	<anchor x="20" y="1278" name="topleft"/>
	<anchor x="766" y="0" name="bottom"/>
	<outline>
		<contour>
			<point x="134" y="0" type="line"/>
			<point x="531" y="0" type="line"/>
			<point x="531" y="1278" type="line"/>
			<point x="134" y="1278" type="line"/>
		</contour>
		<contour>
			<point x="134" y="0" type="line"/>
			<point x="1384" y="0" type="line"/>
			<point x="1384" y="310" type="line"/>
			<point x="134" y="310" type="line"/>
		</contour>
		<contour>
			<point x="340" y="499" type="line"/>
			<point x="1345" y="499" type="line"/>
			<point x="1345" y="792" type="line"/>
			<point x="340" y="792" type="line"/>
		</contour>
		<contour>
			<point x="134" y="968" type="line"/>
			<point x="1366" y="968" type="line"/>
			<point x="1366" y="1278" type="line"/>
			<point x="134" y="1278" type="line"/>
		</contour>
	</outline>
</glyph>
<glyph name="F" format="2">
	<advance width="1421"/>
	<unicode hex="0046"/>
	<anchor x="711" y="1278" name="top"/>
	<anchor x="711" y="0" name="bottom"/>
	<outline>
		<contour>
			<point x="134" y="0" type="line"/>
			<point x="531" y="0" type="line"/>
			<point x="531" y="1278" type="line"/>
			<point x="134" y="1278" type="line"/>
		</contour>
		<contour>
			<point x="340" y="393" type="line"/>
			<point x="1313" y="393" type="line"/>
			<point x="1313" y="715" type="line"/>
			<point x="340" y="715" type="line"/>
		</contour>
		<contour>
			<point x="134" y="956" type="line"/>
			<point x="1335" y="956" type="line"/>
			<point x="1335" y="1278" type="line"/>
			<point x="134" y="1278" type="line"/>
		</contour>
	</outline>
</glyph>
<glyph name="H" format="2">
  <advance width="1718"/>
  <unicode hex="0048"/>
  <anchor x="859" y="0" name="bottom"/>
  <anchor x="859" y="639" name="center"/>
  <anchor x="859" y="1278" name="top"/>
  <anchor x="20" y="1278" name="topleft"/>
  <outline>
    <contour>
      <point x="540" y="0" type="line"/>
      <point x="540" y="1278" type="line"/>
      <point x="134" y="1278" type="line"/>
      <point x="134" y="0" type="line"/>
    </contour>
    <contour>
      <point x="1584" y="0" type="line"/>
      <point x="1584" y="1278" type="line"/>
      <point x="1178" y="1278" type="line"/>
      <point x="1178" y="0" type="line"/>
    </contour>
    <contour>
      <point x="341" y="818" type="line"/>
      <point x="341" y="490" type="line"/>
      <point x="1352" y="490" type="line"/>
      <point x="1352" y="818" type="line"/>
    </contour>
  </outline>
</glyph>
<glyph name="I" format="2">
	<advance width="674"/>
	<unicode hex="0049"/>
	<anchor x="576" y="10" name="ogonek"/>
	<anchor x="337" y="1278" name="top"/>
	<anchor x="20" y="1278" name="topleft"/>
	<anchor x="337" y="0" name="bottom"/>
	<outline>
		<contour>
			<point x="540" y="0" type="line"/>
			<point x="540" y="1278" type="line"/>
			<point x="134" y="1278" type="line"/>
			<point x="134" y="0" type="line"/>
		</contour>
	</outline>
</glyph>
<glyph name="J" format="2">
	<advance width="1081"/>
	<unicode hex="004A"/>
	<anchor x="750" y="1278" name="top"/>
	<anchor x="541" y="0" name="bottom"/>
	<outline>
		<contour>
			<point x="394" y="-23" type="curve" smooth="yes"/>
			<point x="789" y="-23"/>
			<point x="957" y="155"/>
			<point x="957" y="521" type="curve" smooth="yes"/>
			<point x="957" y="1278" type="line"/>
			<point x="551" y="1278" type="line"/>
			<point x="551" y="562" type="line" smooth="yes"/>
			<point x="551" y="390"/>
			<point x="500" y="319"/>
			<point x="310" y="319" type="curve" smooth="yes"/>
			<point x="219" y="319"/>
			<point x="134" y="336"/>
			<point x="46" y="362" type="curve"/>
			<point x="80" y="24" type="line"/>
			<point x="172" y="-7"/>
			<point x="289" y="-23"/>
		</contour>
	</outline>
</glyph>
<glyph name="K" format="2">
	<advance width="1572"/>
	<unicode hex="004B"/>
	<anchor x="786" y="1278" name="top"/>
	<anchor x="786" y="0" name="bottom"/>
	<outline>
		<contour>
			<point x="1073" y="0" type="line"/>
			<point x="1579" y="0" type="line"/>
			<point x="907" y="704" type="line"/>
			<point x="907" y="622" type="line"/>
			<point x="1564" y="1278" type="line"/>
			<point x="1074" y="1278" type="line"/>
			<point x="553" y="752" type="line"/>
			<point x="510" y="752" type="line"/>
			<point x="510" y="556" type="line"/>
			<point x="553" y="556" type="line"/>
		</contour>
		<contour>
			<point x="134" y="0" type="line"/>
			<point x="540" y="0" type="line"/>
			<point x="540" y="1278" type="line"/>
			<point x="134" y="1278" type="line"/>
		</contour>
	</outline>
</glyph>
<glyph name="L" format="2">
	<advance width="1352"/>
	<unicode hex="004C"/>
	<anchor x="676" y="639" name="center"/>
	<anchor x="337" y="1278" name="top"/>
	<anchor x="835" y="1278" name="topright"/>
	<anchor x="714" y="0" name="bottom"/>
	<outline>
		<contour>
			<point x="540" y="0" type="line"/>
			<point x="540" y="1278" type="line"/>
			<point x="134" y="1278" type="line"/>
			<point x="134" y="0" type="line"/>
		</contour>
		<contour>
			<point x="340" y="322" type="line"/>
			<point x="340" y="0" type="line"/>
			<point x="1288" y="0" type="line"/>
			<point x="1288" y="322" type="line"/>
		</contour>
	</outline>
</glyph>
<glyph name="P" format="2">
  <advance width="1540"/>
  <unicode hex="0050"/>
  <anchor x="770" y="0" name="bottom"/>
  <anchor x="770" y="1278" name="top"/>
  <outline>
    <contour>
      <point x="427" y="345" type="line"/>
      <point x="891" y="345" type="line" smooth="yes"/>
      <point x="1294" y="345"/>
      <point x="1480" y="514"/>
      <point x="1480" y="804" type="curve" smooth="yes"/>
      <point x="1480" y="817" type="line" smooth="yes"/>
      <point x="1480" y="1113"/>
      <point x="1294" y="1278"/>
      <point x="891" y="1278" type="curve" smooth="yes"/>
      <point x="427" y="1278" type="line"/>
      <point x="427" y="970" type="line"/>
      <point x="871" y="970" type="line" smooth="yes"/>
      <point x="1010" y="970"/>
      <point x="1074" y="922"/>
      <point x="1074" y="818" type="curve" smooth="yes"/>
      <point x="1074" y="805" type="line" smooth="yes"/>
      <point x="1074" y="701"/>
      <point x="1010" y="653"/>
      <point x="871" y="653" type="curve" smooth="yes"/>
      <point x="427" y="653" type="line"/>
    </contour>
    <contour>
      <point x="134" y="0" type="line"/>
      <point x="530" y="0" type="line"/>
      <point x="530" y="398" type="line"/>
      <point x="529" y="567" type="line"/>
      <point x="529" y="1278" type="line"/>
      <point x="134" y="1278" type="line"/>
    </contour>
  </outline>
</glyph>
<glyph name="Q" format="2">
  <advance width="1734"/>
  <unicode hex="0051"/>
  <anchor x="867" y="0" name="bottom"/>
  <anchor x="867" y="1278" name="top"/>
  <outline>
    <contour>
      <point x="1704" y="-80" type="line"/>
      <point x="1704" y="267" type="line"/>
      <point x="1246" y="251" type="line"/>
      <point x="1246" y="265" type="line"/>
      <point x="1455" y="282"/>
      <point x="1650" y="376"/>
      <point x="1650" y="673" type="curve" smooth="yes"/>
      <point x="1650" y="682" type="line" smooth="yes"/>
      <point x="1650" y="1065"/>
      <point x="1378" y="1323"/>
      <point x="867" y="1323" type="curve" smooth="yes"/>
      <point x="353" y="1323"/>
      <point x="82" y="1077"/>
      <point x="82" y="648" type="curve" smooth="yes"/>
      <point x="82" y="634" type="line" smooth="yes"/>
      <point x="82" y="206"/>
      <point x="347" y="-22"/>
      <point x="968" y="-49" type="curve" smooth="yes"/>
    </contour>
    <contour>
      <point x="905" y="285" type="line" smooth="yes"/>
      <point x="655" y="292"/>
      <point x="504" y="416"/>
      <point x="504" y="634" type="curve" smooth="yes"/>
      <point x="504" y="648" type="line" smooth="yes"/>
      <point x="504" y="863"/>
      <point x="627" y="995"/>
      <point x="866" y="995" type="curve" smooth="yes"/>
      <point x="1103" y="995"/>
      <point x="1228" y="863"/>
      <point x="1228" y="648" type="curve" smooth="yes"/>
      <point x="1228" y="627" type="line" smooth="yes"/>
      <point x="1228" y="437"/>
      <point x="1111" y="330"/>
      <point x="974" y="283" type="curve"/>
    </contour>
  </outline>
</glyph>
<glyph name="V" format="2">
	<advance width="1614"/>
	<unicode hex="0056"/>
	<anchor x="807" y="1278" name="top"/>
	<anchor x="807" y="0" name="bottom"/>
	<outline>
		<contour>
			<point x="515" y="0" type="line"/>
			<point x="1099" y="0" type="line"/>
			<point x="1602" y="1278" type="line"/>
			<point x="1174" y="1278" type="line"/>
			<point x="821" y="310" type="line"/>
			<point x="793" y="310" type="line"/>
			<point x="440" y="1278" type="line"/>
			<point x="12" y="1278" type="line"/>
		</contour>
	</outline>
</glyph>
<glyph name="X" format="2">
  <advance width="1612"/>
  <unicode hex="0058"/>
  <anchor x="806" y="0" name="bottom"/>
  <anchor x="806" y="1278" name="top"/>
  <outline>
    <contour>
      <point x="12" y="0" type="line"/>
      <point x="491" y="0" type="line"/>
      <point x="795" y="436" type="line"/>
      <point x="816" y="436" type="line"/>
      <point x="1121" y="0" type="line"/>
      <point x="1600" y="0" type="line"/>
      <point x="1091" y="696" type="line"/>
      <point x="1091" y="628" type="line"/>
      <point x="1580" y="1278" type="line"/>
      <point x="1117" y="1278" type="line"/>
      <point x="816" y="865" type="line"/>
      <point x="795" y="865" type="line"/>
      <point x="494" y="1278" type="line"/>
      <point x="32" y="1278" type="line"/>
      <point x="521" y="628" type="line"/>
      <point x="521" y="696" type="line"/>
    </contour>
  </outline>
</glyph>
<glyph name="Y" format="2">
	<advance width="1562"/>
	<unicode hex="0059"/>
	<anchor x="781" y="1278" name="top"/>
	<anchor x="781" y="0" name="bottom"/>
	<anchor x="20" y="1278" name="topleft"/>
	<outline>
		<contour>
			<point x="616" y="324" type="line"/>
			<point x="947" y="324" type="line"/>
			<point x="1562" y="1278" type="line"/>
			<point x="1126" y="1278" type="line"/>
			<point x="905" y="915" type="line"/>
			<point x="790" y="728" type="line"/>
			<point x="772" y="728" type="line"/>
			<point x="655" y="918" type="line"/>
			<point x="436" y="1278" type="line"/>
			<point x="0" y="1278" type="line"/>
		</contour>
		<contour>
			<point x="578" y="0" type="line"/>
			<point x="984" y="0" type="line"/>
			<point x="984" y="668" type="line"/>
			<point x="578" y="668" type="line"/>
		</contour>
	</outline>
</glyph>
<glyph name="backslash" format="2">
  <advance width="1277"/>
  <unicode hex="005C"/>
  <outline>
    <contour>
      <point x="1325" y="-265" type="line"/>
      <point x="324" y="1349" type="line"/>
      <point x="-48" y="1349" type="line"/>
      <point x="951" y="-265" type="line"/>
    </contour>
  </outline>
</glyph>
<glyph name="bracketright" format="2">
	<advance width="771"/>
	<unicode hex="005D"/>
	<outline>
		<contour>
			<point x="637" y="-265" type="line"/>
			<point x="637" y="1349" type="line"/>
			<point x="64" y="1349" type="line"/>
			<point x="64" y="1082" type="line"/>
			<point x="281" y="1082" type="line"/>
			<point x="281" y="2" type="line"/>
			<point x="64" y="2" type="line"/>
			<point x="64" y="-265" type="line"/>
		</contour>
	</outline>
</glyph>
<glyph name="underscore" format="2">
  <advance width="1136"/>
  <unicode hex="005F"/>
  <outline>
    <contour>
      <point x="41" y="-338" type="line"/>
      <point x="1095" y="-338" type="line"/>
      <point x="1095" y="-36" type="line"/>
      <point x="41" y="-36" type="line"/>
    </contour>
  </outline>
</glyph>
<glyph name="grave" format="2">
	<advance width="846"/>
	<unicode hex="0060"/>
	<anchor x="576" y="1374" name="top"/>
	<anchor x="576" y="963" name="_top"/>
	<outline>
		<contour>
			<point x="538" y="1385" type="line"/>
			<point x="112" y="1385" type="line"/>
			<point x="112" y="1378" type="line"/>
			<point x="418" y="1073" type="line"/>
			<point x="762" y="1073" type="line"/>
			<point x="762" y="1079" type="line"/>
		</contour>
	</outline>
</glyph>
<glyph name="j" format="2">
	<advance width="654"/>
	<unicode hex="006A"/>
	<outline>
		<contour>
			<point x="139" y="172" type="line"/>
			<point x="536" y="172" type="line"/>
			<point x="536" y="963" type="line"/>
			<point x="139" y="963" type="line"/>
		</contour>
		<contour>
			<point x="338" y="1050" type="curve" smooth="yes"/>
			<point x="482" y="1050"/>
			<point x="546" y="1113"/>
			<point x="546" y="1220" type="curve" smooth="yes"/>
			<point x="546" y="1225" type="line" smooth="yes"/>
			<point x="546" y="1329"/>
			<point x="482" y="1395"/>
			<point x="338" y="1395" type="curve" smooth="yes"/>
			<point x="192" y="1395"/>
			<point x="130" y="1328"/>
			<point x="130" y="1225" type="curve" smooth="yes"/>
			<point x="130" y="1220" type="line" smooth="yes"/>
			<point x="130" y="1116"/>
			<point x="192" y="1050"/>
		</contour>
		<component base="jbottom"/>
	</outline>
</glyph>
<glyph name="q" format="2">
	<advance width="1486"/>
	<unicode hex="0071"/>
	<anchor x="743" y="963" name="top"/>
	<anchor x="743" y="0" name="bottom"/>
	<outline>
		<contour>
			<point x="551" y="-32" type="curve" smooth="yes"/>
			<point x="805" y="-32"/>
			<point x="933" y="83"/>
			<point x="965" y="240" type="curve"/>
			<point x="1069" y="240" type="line"/>
			<point x="987" y="434" type="line"/>
			<point x="939" y="351"/>
			<point x="837" y="292"/>
			<point x="707" y="292" type="curve" smooth="yes"/>
			<point x="558" y="292"/>
			<point x="474" y="354"/>
			<point x="474" y="477" type="curve" smooth="yes"/>
			<point x="474" y="497" type="line" smooth="yes"/>
			<point x="474" y="619"/>
			<point x="560" y="684"/>
			<point x="713" y="684" type="curve" smooth="yes"/>
			<point x="892" y="684"/>
			<point x="973" y="607"/>
			<point x="978" y="489" type="curve"/>
			<point x="1083" y="712" type="line"/>
			<point x="971" y="712" type="line"/>
			<point x="934" y="891"/>
			<point x="812" y="997"/>
			<point x="561" y="997" type="curve" smooth="yes"/>
			<point x="256" y="997"/>
			<point x="72" y="824"/>
			<point x="72" y="491" type="curve" smooth="yes"/>
			<point x="72" y="472" type="line" smooth="yes"/>
			<point x="72" y="137"/>
			<point x="259" y="-32"/>
		</contour>
		<contour>
			<point x="974" y="-338" type="line"/>
			<point x="1368" y="-338" type="line"/>
			<point x="1368" y="963" type="line"/>
			<point x="971" y="963" type="line"/>
			<point x="985" y="675" type="line"/>
			<point x="978" y="639" type="line"/>
			<point x="978" y="367" type="line"/>
			<point x="980" y="344" type="line"/>
			<point x="974" y="4" type="line"/>
		</contour>
	</outline>
</glyph>
<glyph name="s" format="2">
  <advance width="1239"/>
  <unicode hex="0073"/>
  <anchor x="620" y="0" name="bottom"/>
  <anchor x="620" y="963" name="top"/>
  <outline>
    <contour>
      <point x="618" y="-39" type="curve" smooth="yes"/>
      <point x="1002" y="-39"/>
      <point x="1183" y="61"/>
      <point x="1183" y="312" type="curve"/>
      <point x="1183" y="312" type="line"/>
      <point x="1183" y="529"/>
      <point x="1027" y="582"/>
      <point x="669" y="611" type="curve" smooth="yes"/>
      <point x="450" y="628"/>
      <point x="435" y="638"/>
      <point x="435" y="679" type="curve" smooth="yes"/>
      <point x="435" y="679" type="line" smooth="yes"/>
      <point x="435" y="716"/>
      <point x="461" y="735"/>
      <point x="623" y="735" type="curve" smooth="yes"/>
      <point x="795" y="735"/>
      <point x="976" y="704"/>
      <point x="1120" y="655" type="curve"/>
      <point x="1081" y="931" type="line"/>
      <point x="956" y="975"/>
      <point x="787" y="1007"/>
      <point x="584" y="1007" type="curve" smooth="yes"/>
      <point x="236" y="1007"/>
      <point x="58" y="910"/>
      <point x="58" y="689" type="curve"/>
      <point x="58" y="684" type="line"/>
      <point x="58" y="489"/>
      <point x="173" y="404"/>
      <point x="545" y="376" type="curve" smooth="yes"/>
      <point x="734" y="362"/>
      <point x="793" y="364"/>
      <point x="793" y="306" type="curve"/>
      <point x="793" y="306" type="line"/>
      <point x="793" y="253"/>
      <point x="740" y="241"/>
      <point x="593" y="241" type="curve" smooth="yes"/>
      <point x="398" y="241"/>
      <point x="208" y="289"/>
      <point x="66" y="339" type="curve"/>
      <point x="106" y="41" type="line"/>
      <point x="235" y="-4"/>
      <point x="411" y="-39"/>
    </contour>
  </outline>
</glyph>
<glyph name="cent" format="2">
	<advance width="1212"/>
	<unicode hex="00A2"/>
	<outline>
		<contour>
			<point x="870" y="805" type="line"/>
			<point x="870" y="1207" type="line"/>
			<point x="542" y="1207" type="line"/>
			<point x="542" y="805" type="line"/>
		</contour>
		<contour>
			<point x="870" y="-235" type="line"/>
			<point x="870" y="141" type="line"/>
			<point x="542" y="141" type="line"/>
			<point x="542" y="-235" type="line"/>
		</contour>
		<component base="c"/>
	</outline>
</glyph>
<glyph name="currency" format="2">
	<advance width="1337"/>
	<unicode hex="00A4"/>
	<outline>
		<contour>
			<point x="666" y="158" type="curve" smooth="yes"/>
			<point x="994" y="158"/>
			<point x="1173" y="316"/>
			<point x="1173" y="591" type="curve"/>
			<point x="1173" y="600" type="line"/>
			<point x="1173" y="876"/>
			<point x="994" y="1034"/>
			<point x="666" y="1034" type="curve" smooth="yes"/>
			<point x="340" y="1034"/>
			<point x="161" y="876"/>
			<point x="161" y="600" type="curve"/>
			<point x="161" y="591" type="line"/>
			<point x="161" y="316"/>
			<point x="340" y="158"/>
		</contour>
		<contour>
			<point x="666" y="456" type="curve" smooth="yes"/>
			<point x="571" y="456"/>
			<point x="518" y="506"/>
			<point x="518" y="591" type="curve" smooth="yes"/>
			<point x="518" y="600" type="line" smooth="yes"/>
			<point x="518" y="685"/>
			<point x="571" y="735"/>
			<point x="666" y="735" type="curve" smooth="yes"/>
			<point x="763" y="735"/>
			<point x="816" y="685"/>
			<point x="816" y="600" type="curve" smooth="yes"/>
			<point x="816" y="591" type="line" smooth="yes"/>
			<point x="816" y="506"/>
			<point x="763" y="456"/>
		</contour>
		<contour>
			<point x="1000" y="477" type="line"/>
			<point x="787" y="292" type="line"/>
			<point x="1047" y="49" type="line"/>
			<point x="1250" y="244" type="line"/>
		</contour>
		<contour>
			<point x="539" y="281" type="line"/>
			<point x="348" y="487" type="line"/>
			<point x="87" y="244" type="line"/>
			<point x="290" y="49" type="line"/>
		</contour>
		<contour>
			<point x="317" y="730" type="line"/>
			<point x="538" y="908" type="line"/>
			<point x="290" y="1139" type="line"/>
			<point x="87" y="944" type="line"/>
		</contour>
		<contour>
			<point x="802" y="910" type="line"/>
			<point x="1006" y="718" type="line"/>
			<point x="1250" y="944" type="line"/>
			<point x="1047" y="1139" type="line"/>
		</contour>
	</outline>
</glyph>
<glyph name="brokenbar" format="2">
  <advance width="628"/>
  <unicode hex="00A6"/>
  <outline>
    <contour>
      <point x="478" y="575" type="line"/>
      <point x="478" y="1415" type="line"/>
      <point x="150" y="1415" type="line"/>
      <point x="150" y="575" type="line"/>
    </contour>
    <contour>
      <point x="478" y="-425" type="line"/>
      <point x="478" y="415" type="line"/>
      <point x="150" y="415" type="line"/>
      <point x="150" y="-425" type="line"/>
    </contour>
  </outline>
</glyph>
<glyph name="registered" format="2">
	<advance width="1015"/>
	<unicode hex="00AE"/>
	<outline>
		<contour>
			<point x="508" y="495" type="curve" smooth="yes"/>
			<point x="799" y="495"/>
			<point x="971" y="645"/>
			<point x="971" y="894" type="curve"/>
			<point x="971" y="899" type="line"/>
			<point x="971" y="1149"/>
			<point x="799" y="1300"/>
			<point x="508" y="1300" type="curve" smooth="yes"/>
			<point x="216" y="1300"/>
			<point x="44" y="1149"/>
			<point x="44" y="899" type="curve"/>
			<point x="44" y="894" type="line"/>
			<point x="44" y="645"/>
			<point x="216" y="495"/>
		</contour>
		<contour>
			<point x="508" y="616" type="curve" smooth="yes"/>
			<point x="297" y="616"/>
			<point x="190" y="719"/>
			<point x="190" y="895" type="curve" smooth="yes"/>
			<point x="190" y="900" type="line" smooth="yes"/>
			<point x="190" y="1076"/>
			<point x="297" y="1179"/>
			<point x="508" y="1179" type="curve" smooth="yes"/>
			<point x="719" y="1179"/>
			<point x="825" y="1076"/>
			<point x="825" y="900" type="curve" smooth="yes"/>
			<point x="825" y="895" type="line" smooth="yes"/>
			<point x="825" y="719"/>
			<point x="719" y="616"/>
		</contour>
		<contour>
			<point x="574" y="763" type="curve" smooth="yes"/>
			<point x="581" y="725" type="line"/>
			<point x="724" y="725" type="line"/>
			<point x="711" y="784" type="line" smooth="yes"/>
			<point x="696" y="854"/>
			<point x="677" y="883"/>
			<point x="603" y="890" type="curve"/>
			<point x="616" y="874" type="line"/>
			<point x="616" y="893" type="line"/>
			<point x="679" y="896"/>
			<point x="712" y="926"/>
			<point x="712" y="981" type="curve" smooth="yes"/>
			<point x="712" y="984" type="line" smooth="yes"/>
			<point x="712" y="1056"/>
			<point x="662" y="1093"/>
			<point x="551" y="1093" type="curve" smooth="yes"/>
			<point x="404" y="1093" type="line"/>
			<point x="404" y="995" type="line"/>
			<point x="519" y="995" type="line" smooth="yes"/>
			<point x="559" y="995"/>
			<point x="575" y="981"/>
			<point x="575" y="959" type="curve" smooth="yes"/>
			<point x="575" y="956" type="line" smooth="yes"/>
			<point x="575" y="932"/>
			<point x="559" y="918"/>
			<point x="519" y="918" type="curve" smooth="yes"/>
			<point x="404" y="917" type="line"/>
			<point x="404" y="824" type="line"/>
			<point x="504" y="823" type="line" smooth="yes"/>
			<point x="551" y="823"/>
			<point x="566" y="809"/>
		</contour>
		<contour>
			<point x="323" y="725" type="line"/>
			<point x="457" y="725" type="line"/>
			<point x="457" y="833" type="line"/>
			<point x="457" y="873" type="line"/>
			<point x="457" y="1093" type="line"/>
			<point x="323" y="1093" type="line"/>
		</contour>
	</outline>
</glyph>
<glyph name="micro" format="2">
	<advance width="1439"/>
	<unicode hex="00B5"/>
	<outline>
		<contour>
			<point x="1321" y="963" type="line"/>
			<point x="924" y="963" type="line"/>
			<point x="924" y="354" type="line"/>
			<point x="938" y="299" type="line"/>
			<point x="930" y="0" type="line"/>
			<point x="1321" y="0" type="line"/>
		</contour>
		<contour>
			<point x="515" y="501" type="curve"/>
			<point x="515" y="963" type="line"/>
			<point x="118" y="963" type="line"/>
			<point x="118" y="-338" type="line"/>
			<point x="512" y="-338" type="line"/>
			<point x="512" y="-291" type="line"/>
			<point x="496" y="77" type="line"/>
			<point x="504" y="77" type="line"/>
			<point x="533" y="14"/>
			<point x="593" y="-32"/>
			<point x="688" y="-32" type="curve" smooth="yes"/>
			<point x="849" y="-32"/>
			<point x="905" y="76"/>
			<point x="925" y="251" type="curve"/>
			<point x="975" y="251" type="line"/>
			<point x="932" y="424" type="line"/>
			<point x="891" y="353"/>
			<point x="829" y="292"/>
			<point x="706" y="292" type="curve" smooth="yes"/>
			<point x="546" y="292"/>
			<point x="515" y="396"/>
		</contour>
	</outline>
</glyph>
<glyph name="paragraph" format="2">
  <advance width="1031"/>
  <unicode hex="00B6"/>
  <outline>
    <contour>
      <point x="478" y="633" type="curve"/>
      <point x="564" y="633" type="line"/>
      <point x="564" y="1278" type="line"/>
      <point x="478" y="1278" type="line" smooth="yes"/>
      <point x="199" y="1278"/>
      <point x="70" y="1164"/>
      <point x="70" y="959" type="curve" smooth="yes"/>
      <point x="70" y="950" type="line" smooth="yes"/>
      <point x="70" y="750"/>
      <point x="199" y="633"/>
    </contour>
    <contour>
      <point x="897" y="0" type="line"/>
      <point x="897" y="1278" type="line"/>
      <point x="502" y="1278" type="line"/>
      <point x="501" y="0" type="line"/>
    </contour>
  </outline>
</glyph>
<glyph name="onesuperior" format="2">
  <advance width="543"/>
  <unicode hex="00B9"/>
  <outline>
    <contour>
      <point x="217" y="751" type="line"/>
      <point x="477" y="751" type="line"/>
      <point x="477" y="1426" type="line"/>
      <point x="245" y="1426" type="line"/>
      <point x="29" y="1351" type="line"/>
      <point x="21" y="1125" type="line"/>
      <point x="207" y="1187" type="line"/>
      <point x="217" y="1187" type="line"/>
    </contour>
  </outline>
</glyph>
<glyph name="guillemetright" format="2">
	<advance width="1319"/>
	<unicode hex="00BB"/>
	<outline>
		<contour>
			<point x="359" y="475" type="line"/>
			<point x="0" y="59" type="line"/>
			<point x="379" y="59" type="line"/>
			<point x="722" y="466" type="line"/>
			<point x="722" y="510" type="line"/>
			<point x="379" y="893" type="line"/>
			<point x="0" y="893" type="line"/>
		</contour>
		<contour>
			<point x="920" y="475" type="line"/>
			<point x="561" y="59" type="line"/>
			<point x="940" y="59" type="line"/>
			<point x="1283" y="466" type="line"/>
			<point x="1283" y="510" type="line"/>
			<point x="940" y="893" type="line"/>
			<point x="561" y="893" type="line"/>
		</contour>
	</outline>
</glyph>
<glyph name="AE" format="2">
  <advance width="2570"/>
  <unicode hex="00C6"/>
  <anchor x="1285" y="0" name="bottom"/>
  <anchor x="1285" y="1278" name="top"/>
  <outline>
    <contour>
      <point x="8" y="0" type="line"/>
      <point x="468" y="0" type="line"/>
      <point x="1173" y="1029" type="line"/>
      <point x="1312" y="1029" type="line"/>
      <point x="1316" y="1278" type="line"/>
      <point x="908" y="1278" type="line"/>
    </contour>
    <contour>
      <point x="447" y="274" type="line"/>
      <point x="1230" y="274" type="line"/>
      <point x="1230" y="580" type="line"/>
      <point x="447" y="580" type="line"/>
    </contour>
    <contour>
      <point x="1216" y="0" type="line"/>
      <point x="2470" y="0" type="line"/>
      <point x="2470" y="310" type="line"/>
      <point x="1216" y="310" type="line"/>
    </contour>
    <contour>
      <point x="1216" y="0" type="line"/>
      <point x="1613" y="0" type="line"/>
      <point x="1613" y="1278" type="line"/>
      <point x="1216" y="1278" type="line"/>
    </contour>
    <contour>
      <point x="1422" y="499" type="line"/>
      <point x="2431" y="499" type="line"/>
      <point x="2431" y="792" type="line"/>
      <point x="1422" y="792" type="line"/>
    </contour>
    <contour>
      <point x="1216" y="968" type="line"/>
      <point x="2452" y="968" type="line"/>
      <point x="2452" y="1278" type="line"/>
      <point x="1216" y="1278" type="line"/>
    </contour>
  </outline>
</glyph>
<glyph name="Eth" format="2">
	<advance width="1654"/>
	<unicode hex="00D0"/>
	<outline>
		<contour>
			<point x="1" y="547" type="line"/>
			<point x="862" y="546" type="line"/>
			<point x="862" y="736" type="line"/>
			<point x="1" y="738" type="line"/>
		</contour>
		<component base="D"/>
	</outline>
</glyph>
<glyph name="thorn" format="2">
	<advance width="1486"/>
	<unicode hex="00FE"/>
	<anchor x="743" y="963" name="top"/>
	<anchor x="743" y="0" name="bottom"/>
	<outline>
		<contour>
			<point x="925" y="-32" type="curve" smooth="yes"/>
			<point x="1227" y="-32"/>
			<point x="1414" y="143"/>
			<point x="1414" y="472" type="curve" smooth="yes"/>
			<point x="1414" y="491" type="line" smooth="yes"/>
			<point x="1414" y="824"/>
			<point x="1233" y="997"/>
			<point x="932" y="997" type="curve" smooth="yes"/>
			<point x="670" y="997"/>
			<point x="554" y="878"/>
			<point x="519" y="712" type="curve"/>
			<point x="433" y="712" type="line"/>
			<point x="499" y="539" type="line"/>
			<point x="546" y="619"/>
			<point x="643" y="684"/>
			<point x="777" y="684" type="curve" smooth="yes"/>
			<point x="930" y="684"/>
			<point x="1012" y="616"/>
			<point x="1012" y="495" type="curve" smooth="yes"/>
			<point x="1012" y="475" type="line" smooth="yes"/>
			<point x="1012" y="356"/>
			<point x="919" y="292"/>
			<point x="770" y="292" type="curve" smooth="yes"/>
			<point x="591" y="292"/>
			<point x="513" y="367"/>
			<point x="508" y="482" type="curve"/>
			<point x="398" y="240" type="line"/>
			<point x="521" y="240" type="line"/>
			<point x="557" y="72"/>
			<point x="681" y="-32"/>
		</contour>
		<contour>
			<point x="118" y="-338" type="line"/>
			<point x="512" y="-338" type="line"/>
			<point x="512" y="4" type="line"/>
			<point x="506" y="338" type="line"/>
			<point x="508" y="351" type="line"/>
			<point x="508" y="573" type="line"/>
			<point x="506" y="601" type="line"/>
			<point x="512" y="959" type="line"/>
			<point x="512" y="1314" type="line"/>
			<point x="118" y="1314" type="line"/>
		</contour>
	</outline>
</glyph>
<glyph name="OE" format="2">
	<advance width="2559"/>
	<unicode hex="0152"/>
	<anchor x="1280" y="1278" name="top"/>
	<anchor x="1280" y="0" name="bottom"/>
	<outline>
		<contour>
			<point x="867" y="-45" type="curve" smooth="yes"/>
			<point x="1382" y="-45"/>
			<point x="1652" y="203"/>
			<point x="1652" y="632" type="curve"/>
			<point x="1652" y="646" type="line"/>
			<point x="1652" y="1075"/>
			<point x="1382" y="1323"/>
			<point x="867" y="1323" type="curve" smooth="yes"/>
			<point x="352" y="1323"/>
			<point x="82" y="1075"/>
			<point x="82" y="646" type="curve"/>
			<point x="82" y="632" type="line"/>
			<point x="82" y="203"/>
			<point x="352" y="-45"/>
		</contour>
		<contour>
			<point x="867" y="283" type="curve" smooth="yes"/>
			<point x="628" y="283"/>
			<point x="504" y="414"/>
			<point x="504" y="631" type="curve" smooth="yes"/>
			<point x="504" y="647" type="line" smooth="yes"/>
			<point x="504" y="864"/>
			<point x="628" y="995"/>
			<point x="867" y="995" type="curve" smooth="yes"/>
			<point x="1104" y="995"/>
			<point x="1230" y="864"/>
			<point x="1230" y="647" type="curve" smooth="yes"/>
			<point x="1230" y="631" type="line" smooth="yes"/>
			<point x="1230" y="414"/>
			<point x="1104" y="283"/>
		</contour>
		<contour>
			<point x="1157" y="0" type="line"/>
			<point x="2459" y="0" type="line"/>
			<point x="2459" y="310" type="line"/>
			<point x="1157" y="310" type="line"/>
		</contour>
		<contour>
			<point x="1441" y="499" type="line"/>
			<point x="2420" y="499" type="line"/>
			<point x="2420" y="792" type="line"/>
			<point x="1441" y="792" type="line"/>
		</contour>
		<contour>
			<point x="1157" y="968" type="line"/>
			<point x="2441" y="968" type="line"/>
			<point x="2441" y="1278" type="line"/>
			<point x="1157" y="1278" type="line"/>
		</contour>
	</outline>
</glyph>
<glyph name="gravecomb" format="2">
	<advance width="0"/>
	<unicode hex="0300"/>
	<anchor x="-409" y="1374" name="top"/>
	<anchor x="-270" y="963" name="_top"/>
	<outline>
		<contour>
			<point x="-308" y="1385" type="line"/>
			<point x="-734" y="1385" type="line"/>
			<point x="-734" y="1378" type="line"/>
			<point x="-428" y="1073" type="line"/>
			<point x="-84" y="1073" type="line"/>
			<point x="-84" y="1079" type="line"/>
		</contour>
	</outline>
</glyph>
<glyph name="acutecomb" format="2">
  <unicode hex="0301"/>
  <anchor x="270" y="963" name="_top"/>
  <anchor x="270" y="1374" name="top"/>
  <outline>
    <contour>
      <point x="308" y="1385" type="line"/>
      <point x="84" y="1079" type="line"/>
      <point x="84" y="1073" type="line"/>
      <point x="428" y="1073" type="line"/>
      <point x="734" y="1378" type="line"/>
      <point x="734" y="1385" type="line"/>
    </contour>
  </outline>
</glyph>
<glyph name="circumflexcomb" format="2">
	<advance width="0"/>
	<unicode hex="0302"/>
	<anchor x="-531" y="1370" name="top"/>
	<anchor x="-531" y="963" name="_top"/>
	<outline>
		<contour>
			<point x="-730" y="1385" type="line"/>
			<point x="-962" y="1082" type="line"/>
			<point x="-962" y="1073" type="line"/>
			<point x="-663" y="1073" type="line"/>
			<point x="-536" y="1203" type="line"/>
			<point x="-526" y="1203" type="line"/>
			<point x="-401" y="1073" type="line"/>
			<point x="-100" y="1073" type="line"/>
			<point x="-100" y="1082" type="line"/>
			<point x="-332" y="1385" type="line"/>
		</contour>
	</outline>
</glyph>
<glyph name="tildecomb" format="2">
	<advance width="0"/>
	<unicode hex="0303"/>
	<anchor x="-514" y="1374" name="top"/>
	<anchor x="-514" y="963" name="_top"/>
	<outline>
		<contour>
			<point x="-357" y="1075" type="curve" smooth="yes"/>
			<point x="-163" y="1075"/>
			<point x="-100" y="1188"/>
			<point x="-100" y="1349" type="curve" smooth="yes"/>
			<point x="-100" y="1385" type="line"/>
			<point x="-324" y="1385" type="line"/>
			<point x="-324" y="1385" type="line"/>
			<point x="-325" y="1340"/>
			<point x="-339" y="1317"/>
			<point x="-385" y="1317" type="curve" smooth="yes"/>
			<point x="-457" y="1317"/>
			<point x="-549" y="1371"/>
			<point x="-673" y="1371" type="curve" smooth="yes"/>
			<point x="-867" y="1371"/>
			<point x="-928" y="1256"/>
			<point x="-928" y="1098" type="curve" smooth="yes"/>
			<point x="-928" y="1061" type="line"/>
			<point x="-706" y="1061" type="line"/>
			<point x="-706" y="1061" type="line"/>
			<point x="-705" y="1107"/>
			<point x="-691" y="1129"/>
			<point x="-645" y="1129" type="curve" smooth="yes"/>
			<point x="-572" y="1129"/>
			<point x="-474" y="1075"/>
		</contour>
	</outline>
</glyph>
<glyph name="macroncomb" format="2">
	<advance width="0"/>
	<unicode hex="0304"/>
	<anchor x="-488" y="1323" name="top"/>
	<anchor x="-488" y="963" name="_top"/>
	<outline>
		<contour>
			<point x="-886" y="1095" type="line"/>
			<point x="-90" y="1095" type="line"/>
			<point x="-90" y="1321" type="line"/>
			<point x="-886" y="1321" type="line"/>
		</contour>
	</outline>
</glyph>
<glyph name="dieresiscomb" format="2">
	<advance width="0"/>
	<unicode hex="0308"/>
	<anchor x="-494" y="1354" name="top"/>
	<anchor x="-494" y="963" name="_top"/>
	<outline>
		<contour>
			<point x="-707" y="1056" type="curve" smooth="yes"/>
			<point x="-582" y="1056"/>
			<point x="-524" y="1120"/>
			<point x="-524" y="1218" type="curve" smooth="yes"/>
			<point x="-524" y="1224" type="line" smooth="yes"/>
			<point x="-524" y="1323"/>
			<point x="-582" y="1389"/>
			<point x="-707" y="1389" type="curve" smooth="yes"/>
			<point x="-830" y="1389"/>
			<point x="-888" y="1323"/>
			<point x="-888" y="1224" type="curve" smooth="yes"/>
			<point x="-888" y="1218" type="line" smooth="yes"/>
			<point x="-888" y="1120"/>
			<point x="-830" y="1056"/>
		</contour>
		<contour>
			<point x="-281" y="1056" type="curve" smooth="yes"/>
			<point x="-159" y="1056"/>
			<point x="-100" y="1120"/>
			<point x="-100" y="1218" type="curve" smooth="yes"/>
			<point x="-100" y="1224" type="line" smooth="yes"/>
			<point x="-100" y="1323"/>
			<point x="-159" y="1389"/>
			<point x="-281" y="1389" type="curve" smooth="yes"/>
			<point x="-404" y="1389"/>
			<point x="-463" y="1323"/>
			<point x="-463" y="1224" type="curve" smooth="yes"/>
			<point x="-463" y="1218" type="line" smooth="yes"/>
			<point x="-463" y="1120"/>
			<point x="-406" y="1056"/>
		</contour>
	</outline>
</glyph>
<glyph name="cedillacomb" format="2">
	<advance width="0"/>
	<unicode hex="0327"/>
	<anchor x="-380" y="0" name="_bottom"/>
	<anchor x="-340" y="-449" name="bottom"/>
	<outline>
		<contour>
			<point x="-242" y="37" type="line"/>
			<point x="-501" y="37" type="line"/>
			<point x="-541" y="-180" type="line"/>
			<point x="-540" y="-180"/>
			<point x="-538" y="-180"/>
			<point x="-536" y="-180" type="curve" smooth="yes"/>
			<point x="-369" y="-182"/>
			<point x="-333" y="-192"/>
			<point x="-333" y="-221" type="curve" smooth="yes"/>
			<point x="-333" y="-223" type="line" smooth="yes"/>
			<point x="-333" y="-249"/>
			<point x="-371" y="-253"/>
			<point x="-456" y="-253" type="curve" smooth="yes"/>
			<point x="-506" y="-253"/>
			<point x="-566" y="-248"/>
			<point x="-620" y="-237" type="curve"/>
			<point x="-581" y="-424" type="line"/>
			<point x="-525" y="-438"/>
			<point x="-449" y="-449"/>
			<point x="-378" y="-449" type="curve" smooth="yes"/>
			<point x="-161" y="-449"/>
			<point x="-59" y="-386"/>
			<point x="-59" y="-248" type="curve" smooth="yes"/>
			<point x="-59" y="-244" type="line" smooth="yes"/>
			<point x="-59" y="-143"/>
			<point x="-125" y="-78"/>
			<point x="-319" y="-78" type="curve" smooth="yes"/>
			<point x="-355" y="-78"/>
			<point x="-392" y="-78"/>
			<point x="-428" y="-78" type="curve"/>
			<point x="-283" y="-153" type="line"/>
		</contour>
	</outline>
</glyph>
<glyph name="Danda.bn" format="2">
  <advance width="897"/>
  <unicode hex="0964"/>
  <outline>
    <contour>
      <point x="263" y="1307" type="line"/>
      <point x="263" y="-60" type="line"/>
      <point x="633" y="-60" type="line"/>
      <point x="633" y="1307" type="line"/>
    </contour>
  </outline>
</glyph>
<glyph name="Doubledanda.bn" format="2">
	<advance width="1622"/>
	<unicode hex="0965"/>
	<outline>
		<contour>
			<point x="263" y="1307" type="line"/>
			<point x="263" y="-60" type="line"/>
			<point x="633" y="-60" type="line"/>
			<point x="633" y="1307" type="line"/>
		</contour>
		<contour>
			<point x="988" y="1307" type="line"/>
			<point x="988" y="-60" type="line"/>
			<point x="1358" y="-60" type="line"/>
			<point x="1358" y="1307" type="line"/>
		</contour>
	</outline>
</glyph>
<glyph name="Candrabindu.bn" format="2">
	<advance width="0"/>
	<unicode hex="0981"/>
	<guideline x="653" y="698" angle="0"/>
	<anchor x="-266" y="1771" name="_top2"/>
	<outline>
		<contour>
			<point x="758" y="1787" type="curve"/>
			<point x="519" y="1787" type="line"/>
			<point x="519" y="1774" type="line" smooth="yes"/>
			<point x="519" y="1658"/>
			<point x="428" y="1602"/>
			<point x="241" y="1602" type="curve" smooth="yes"/>
			<point x="56" y="1602"/>
			<point x="-36" y="1658"/>
			<point x="-36" y="1774" type="curve" smooth="yes"/>
			<point x="-36" y="1787" type="line"/>
			<point x="-278" y="1787" type="line"/>
			<point x="-279" y="1764"/>
			<point x="-280" y="1748"/>
			<point x="-280" y="1740" type="curve" smooth="yes"/>
			<point x="-280" y="1496"/>
			<point x="-109" y="1361"/>
			<point x="241" y="1361" type="curve" smooth="yes"/>
			<point x="590" y="1361"/>
			<point x="760" y="1496"/>
			<point x="760" y="1740" type="curve" smooth="yes"/>
			<point x="760" y="1748"/>
			<point x="759" y="1764"/>
		</contour>
		<contour>
			<point x="242" y="1697" type="curve" smooth="yes"/>
			<point x="360" y="1697"/>
			<point x="424" y="1752"/>
			<point x="424" y="1839" type="curve" smooth="yes"/>
			<point x="424" y="1844" type="line" smooth="yes"/>
			<point x="424" y="1930"/>
			<point x="360" y="1987"/>
			<point x="242" y="1987" type="curve" smooth="yes"/>
			<point x="124" y="1987"/>
			<point x="58" y="1932"/>
			<point x="58" y="1844" type="curve" smooth="yes"/>
			<point x="58" y="1839" type="line" smooth="yes"/>
			<point x="58" y="1752"/>
			<point x="124" y="1697"/>
		</contour>
	</outline>
</glyph>
<glyph name="Anuswara.bn" format="2">
  <advance width="1313"/>
  <unicode hex="0982"/>
  <outline>
    <contour>
      <point x="1207" y="-109" type="line"/>
      <point x="1233" y="180" type="line"/>
      <point x="156" y="497" type="line"/>
      <point x="130" y="210" type="line"/>
    </contour>
    <contour>
      <point x="651" y="548" type="curve" smooth="yes"/>
      <point x="999" y="548"/>
      <point x="1179" y="676"/>
      <point x="1179" y="911" type="curve" smooth="yes"/>
      <point x="1179" y="924" type="line" smooth="yes"/>
      <point x="1179" y="1160"/>
      <point x="999" y="1285"/>
      <point x="646" y="1285" type="curve" smooth="yes"/>
      <point x="294" y="1285"/>
      <point x="118" y="1160"/>
      <point x="118" y="924" type="curve" smooth="yes"/>
      <point x="118" y="911" type="line" smooth="yes"/>
      <point x="118" y="676"/>
      <point x="294" y="548"/>
    </contour>
    <contour>
      <point x="648" y="807" type="curve" smooth="yes"/>
      <point x="515" y="807"/>
      <point x="454" y="843"/>
      <point x="454" y="916" type="curve" smooth="yes"/>
      <point x="454" y="916" type="line" smooth="yes"/>
      <point x="454" y="985"/>
      <point x="515" y="1025"/>
      <point x="648" y="1026" type="curve" smooth="yes"/>
      <point x="783" y="1027"/>
      <point x="843" y="989"/>
      <point x="843" y="916" type="curve" smooth="yes"/>
      <point x="843" y="916" type="line" smooth="yes"/>
      <point x="843" y="843"/>
      <point x="783" y="807"/>
    </contour>
  </outline>
</glyph>
<glyph name="Visarga.bn" format="2">
	<advance width="1216"/>
	<unicode hex="0983"/>
	<outline>
		<contour>
			<point x="610" y="660" type="curve" smooth="yes"/>
			<point x="932" y="660"/>
			<point x="1098" y="768"/>
			<point x="1098" y="967" type="curve" smooth="yes"/>
			<point x="1098" y="979" type="line" smooth="yes"/>
			<point x="1098" y="1178"/>
			<point x="932" y="1285"/>
			<point x="606" y="1285" type="curve" smooth="yes"/>
			<point x="280" y="1285"/>
			<point x="118" y="1178"/>
			<point x="118" y="979" type="curve" smooth="yes"/>
			<point x="118" y="967" type="line" smooth="yes"/>
			<point x="118" y="768"/>
			<point x="280" y="660"/>
		</contour>
		<contour>
			<point x="608" y="887" type="curve" smooth="yes"/>
			<point x="502" y="887"/>
			<point x="452" y="915"/>
			<point x="452" y="972" type="curve" smooth="yes"/>
			<point x="452" y="972" type="line" smooth="yes"/>
			<point x="452" y="1025"/>
			<point x="502" y="1057"/>
			<point x="608" y="1058" type="curve" smooth="yes"/>
			<point x="714" y="1059"/>
			<point x="764" y="1029"/>
			<point x="764" y="972" type="curve" smooth="yes"/>
			<point x="764" y="972" type="line" smooth="yes"/>
			<point x="764" y="915"/>
			<point x="714" y="887"/>
		</contour>
		<contour>
			<point x="610" y="-38" type="curve" smooth="yes"/>
			<point x="932" y="-38"/>
			<point x="1098" y="70"/>
			<point x="1098" y="269" type="curve" smooth="yes"/>
			<point x="1098" y="281" type="line" smooth="yes"/>
			<point x="1098" y="480"/>
			<point x="932" y="587"/>
			<point x="606" y="587" type="curve" smooth="yes"/>
			<point x="280" y="587"/>
			<point x="118" y="480"/>
			<point x="118" y="281" type="curve" smooth="yes"/>
			<point x="118" y="269" type="line" smooth="yes"/>
			<point x="118" y="70"/>
			<point x="280" y="-38"/>
		</contour>
		<contour>
			<point x="608" y="189" type="curve" smooth="yes"/>
			<point x="502" y="189"/>
			<point x="452" y="217"/>
			<point x="452" y="274" type="curve" smooth="yes"/>
			<point x="452" y="274" type="line" smooth="yes"/>
			<point x="452" y="327"/>
			<point x="502" y="359"/>
			<point x="608" y="360" type="curve" smooth="yes"/>
			<point x="714" y="361"/>
			<point x="764" y="331"/>
			<point x="764" y="274" type="curve" smooth="yes"/>
			<point x="764" y="274" type="line" smooth="yes"/>
			<point x="764" y="217"/>
			<point x="714" y="189"/>
		</contour>
	</outline>
</glyph>
<glyph name="VowelA.bn" format="2">
	<advance width="2392"/>
	<unicode hex="0985"/>
	<guideline x="7289" y="7955" angle="0"/>
	<guideline x="6837" y="3684" angle="0"/>
	<anchor x="1829" y="1398" name="top"/>
	<anchor x="1568" y="1791" name="top2"/>
	<note>
		VowelA.bn
	</note>
	<outline>
		<contour>
			<point x="967" y="94" type="curve" smooth="yes"/>
			<point x="1441" y="94"/>
			<point x="1688" y="258"/>
			<point x="1688" y="563" type="curve" smooth="yes"/>
			<point x="1688" y="568" type="line" smooth="yes"/>
			<point x="1688" y="848"/>
			<point x="1500" y="999"/>
			<point x="1154" y="999" type="curve" smooth="yes"/>
			<point x="811" y="999"/>
			<point x="628" y="867"/>
			<point x="628" y="616" type="curve" smooth="yes"/>
			<point x="628" y="597"/>
			<point x="630" y="581"/>
			<point x="633" y="562" type="curve"/>
			<point x="1008" y="562" type="line"/>
			<point x="1003" y="578"/>
			<point x="1001" y="592"/>
			<point x="1001" y="608" type="curve" smooth="yes"/>
			<point x="1001" y="689"/>
			<point x="1053" y="731"/>
			<point x="1160" y="731" type="curve" smooth="yes"/>
			<point x="1258" y="731"/>
			<point x="1315" y="685"/>
			<point x="1315" y="595" type="curve" smooth="yes"/>
			<point x="1315" y="590" type="line" smooth="yes"/>
			<point x="1315" y="460"/>
			<point x="1206" y="387"/>
			<point x="950" y="387" type="curve" smooth="yes"/>
			<point x="601" y="387"/>
			<point x="455" y="519"/>
			<point x="441" y="753" type="curve" smooth="yes"/>
			<point x="437" y="821" type="line"/>
			<point x="76" y="821" type="line"/>
			<point x="76" y="767" type="line" smooth="yes"/>
			<point x="76" y="332"/>
			<point x="404" y="94"/>
		</contour>
		<contour>
			<point x="1925" y="-4" type="line"/>
			<point x="2246" y="-4" type="line"/>
			<point x="2246" y="1152" type="line"/>
			<point x="1877" y="1152" type="line"/>
			<point x="1877" y="438" type="line"/>
			<point x="1895" y="199" type="line"/>
			<point x="1986" y="310" type="line"/>
			<point x="1916" y="310" type="line"/>
			<point x="1367" y="472" type="line"/>
			<point x="1235" y="192" type="line"/>
		</contour>
		<contour>
			<point x="-90" y="983" type="line"/>
			<point x="2221" y="983" type="line"/>
			<point x="2217" y="1248" type="line"/>
			<point x="-110" y="1248" type="line"/>
		</contour>
		<contour>
			<point x="2117" y="1121" type="line"/>
			<point x="2117" y="712" type="line"/>
			<point x="2244" y="712" type="line"/>
			<point x="2244" y="1121" type="line"/>
		</contour>
		<contour>
			<point x="2117" y="984" type="line"/>
			<point x="2429" y="984" type="line"/>
			<point x="2409" y="1248" type="line"/>
			<point x="2117" y="1248" type="line"/>
		</contour>
	</outline>
</glyph>
<glyph name="VowelAa.bn" format="2">
	<advance width="3069"/>
	<unicode hex="0986"/>
	<anchor x="2506" y="1398" name="top"/>
	<anchor x="2245" y="1791" name="top2"/>
	<note>
		VowelAa.bn
	</note>
	<outline>
		<contour>
			<point x="967" y="94" type="curve" smooth="yes"/>
			<point x="1441" y="94"/>
			<point x="1688" y="258"/>
			<point x="1688" y="563" type="curve" smooth="yes"/>
			<point x="1688" y="568" type="line" smooth="yes"/>
			<point x="1688" y="848"/>
			<point x="1500" y="999"/>
			<point x="1154" y="999" type="curve" smooth="yes"/>
			<point x="811" y="999"/>
			<point x="628" y="867"/>
			<point x="628" y="616" type="curve" smooth="yes"/>
			<point x="628" y="597"/>
			<point x="630" y="581"/>
			<point x="633" y="562" type="curve"/>
			<point x="1008" y="562" type="line"/>
			<point x="1003" y="578"/>
			<point x="1001" y="592"/>
			<point x="1001" y="608" type="curve" smooth="yes"/>
			<point x="1001" y="689"/>
			<point x="1053" y="731"/>
			<point x="1160" y="731" type="curve" smooth="yes"/>
			<point x="1258" y="731"/>
			<point x="1315" y="685"/>
			<point x="1315" y="595" type="curve" smooth="yes"/>
			<point x="1315" y="590" type="line" smooth="yes"/>
			<point x="1315" y="460"/>
			<point x="1206" y="387"/>
			<point x="950" y="387" type="curve" smooth="yes"/>
			<point x="601" y="387"/>
			<point x="455" y="519"/>
			<point x="441" y="753" type="curve" smooth="yes"/>
			<point x="437" y="821" type="line"/>
			<point x="76" y="821" type="line"/>
			<point x="76" y="767" type="line" smooth="yes"/>
			<point x="76" y="332"/>
			<point x="404" y="94"/>
		</contour>
		<contour>
			<point x="1925" y="-4" type="line"/>
			<point x="2246" y="-4" type="line"/>
			<point x="2246" y="1152" type="line"/>
			<point x="1877" y="1152" type="line"/>
			<point x="1877" y="438" type="line"/>
			<point x="1895" y="199" type="line"/>
			<point x="1986" y="310" type="line"/>
			<point x="1916" y="310" type="line"/>
			<point x="1367" y="472" type="line"/>
			<point x="1235" y="192" type="line"/>
		</contour>
		<contour>
			<point x="-90" y="983" type="line"/>
			<point x="2221" y="983" type="line"/>
			<point x="2217" y="1248" type="line"/>
			<point x="-110" y="1248" type="line"/>
		</contour>
		<contour>
			<point x="2117" y="1121" type="line"/>
			<point x="2117" y="712" type="line"/>
			<point x="2244" y="712" type="line"/>
			<point x="2244" y="1121" type="line"/>
		</contour>
		<contour>
			<point x="2117" y="984" type="line"/>
			<point x="2429" y="984" type="line"/>
			<point x="2409" y="1248" type="line"/>
			<point x="2117" y="1248" type="line"/>
		</contour>
		<contour>
			<point x="2551" y="0" type="line"/>
			<point x="2921" y="0" type="line"/>
			<point x="2921" y="1015" type="line"/>
			<point x="2551" y="1015" type="line"/>
		</contour>
		<contour>
			<point x="2386" y="984" type="line"/>
			<point x="2894" y="984" type="line"/>
			<point x="2894" y="1248" type="line"/>
			<point x="2366" y="1248" type="line"/>
		</contour>
		<contour>
			<point x="2794" y="1121" type="line"/>
			<point x="2794" y="712" type="line"/>
			<point x="2921" y="712" type="line"/>
			<point x="2921" y="1121" type="line"/>
		</contour>
		<contour>
			<point x="2794" y="984" type="line"/>
			<point x="3106" y="984" type="line"/>
			<point x="3086" y="1248" type="line"/>
			<point x="2794" y="1248" type="line"/>
		</contour>
	</outline>
</glyph>
<glyph name="VowelI.bn" format="2">
  <advance width="1469"/>
  <unicode hex="0987"/>
  <note>
VowelI.bn
</note>
  <anchor x="989" y="114" name="bottom1"/>
  <anchor x="803" y="1500" name="top"/>
  <anchor x="1157" y="1530.2" name="top2"/>
  <outline>
    <contour>
      <point x="1433" y="-213" type="line"/>
      <point x="1458" y="102" type="line"/>
      <point x="1167" y="158" type="line"/>
      <point x="957" y="198" type="line"/>
      <point x="965" y="285" type="line"/>
      <point x="745" y="248" type="line"/>
      <point x="796" y="221"/>
      <point x="864" y="209"/>
      <point x="924" y="209" type="curve" smooth="yes"/>
      <point x="1218" y="209"/>
      <point x="1368" y="328"/>
      <point x="1368" y="562" type="curve" smooth="yes"/>
      <point x="1368" y="567" type="line" smooth="yes"/>
      <point x="1368" y="851"/>
      <point x="1137" y="998"/>
      <point x="755" y="998" type="curve" smooth="yes"/>
      <point x="348" y="998"/>
      <point x="134" y="861"/>
      <point x="134" y="599" type="curve" smooth="yes"/>
      <point x="134" y="585"/>
      <point x="136" y="569"/>
      <point x="139" y="555" type="curve"/>
      <point x="518" y="555" type="line"/>
      <point x="515" y="568"/>
      <point x="513" y="581"/>
      <point x="513" y="591" type="curve" smooth="yes"/>
      <point x="513" y="687"/>
      <point x="599" y="731"/>
      <point x="752" y="731" type="curve" smooth="yes"/>
      <point x="910" y="731"/>
      <point x="990" y="676"/>
      <point x="990" y="570" type="curve" smooth="yes"/>
      <point x="990" y="565" type="line" smooth="yes"/>
      <point x="990" y="431"/>
      <point x="874" y="379"/>
      <point x="608" y="379" type="curve" smooth="yes"/>
      <point x="464" y="379"/>
      <point x="317" y="391"/>
      <point x="162" y="417" type="curve" smooth="yes"/>
      <point x="120" y="424" type="line"/>
      <point x="105" y="121" type="line"/>
    </contour>
    <contour>
      <point x="-27" y="984" type="line"/>
      <point x="1511" y="984" type="line"/>
      <point x="1491" y="1248" type="line"/>
      <point x="-47" y="1248" type="line"/>
    </contour>
    <contour>
      <point x="1404" y="1331" type="line"/>
      <point x="1404" y="1334"/>
      <point x="1404" y="1336"/>
      <point x="1404" y="1339" type="curve" smooth="yes"/>
      <point x="1404" y="1544"/>
      <point x="1256" y="1667"/>
      <point x="997" y="1667" type="curve" smooth="yes"/>
      <point x="512" y="1667" type="line" smooth="yes"/>
      <point x="402" y="1667"/>
      <point x="366" y="1689"/>
      <point x="357" y="1767" type="curve" smooth="yes"/>
      <point x="354" y="1793" type="line"/>
      <point x="27" y="1793" type="line"/>
      <point x="27" y="1766" type="line" smooth="yes"/>
      <point x="27" y="1509"/>
      <point x="178" y="1398"/>
      <point x="530" y="1398" type="curve" smooth="yes"/>
      <point x="939" y="1398" type="line" smooth="yes"/>
      <point x="1018" y="1398"/>
      <point x="1050" y="1374"/>
      <point x="1050" y="1317" type="curve" smooth="yes"/>
      <point x="1050" y="1278"/>
      <point x="1035" y="1250"/>
      <point x="1003" y="1232" type="curve"/>
      <point x="1085" y="1223" type="line"/>
    </contour>
  </outline>
</glyph>
<glyph name="VowelIi.bn" format="2">
	<advance width="1911"/>
	<unicode hex="0988"/>
	<guideline x="6840" y="3684" angle="0"/>
	<anchor x="1199" y="1500" name="top"/>
	<anchor x="1553" y="1532.6" name="top2"/>
	<outline>
		<contour>
			<point x="1396" y="-85" type="line"/>
			<point x="1766" y="-85" type="line"/>
			<point x="1766" y="842" type="line"/>
			<point x="1399" y="842" type="line"/>
			<point x="1230" y="740"/>
			<point x="1056" y="603"/>
			<point x="889" y="475" type="curve"/>
			<point x="1079" y="381" type="line"/>
			<point x="1134" y="445"/>
			<point x="1157" y="527"/>
			<point x="1157" y="639" type="curve" smooth="yes"/>
			<point x="1157" y="644" type="line" smooth="yes"/>
			<point x="1157" y="877"/>
			<point x="992" y="999"/>
			<point x="654" y="999" type="curve" smooth="yes"/>
			<point x="310" y="999"/>
			<point x="130" y="870"/>
			<point x="130" y="621" type="curve" smooth="yes"/>
			<point x="130" y="602"/>
			<point x="132" y="580"/>
			<point x="136" y="562" type="curve"/>
			<point x="512" y="562" type="line"/>
			<point x="507" y="579"/>
			<point x="504" y="595"/>
			<point x="504" y="614" type="curve" smooth="yes"/>
			<point x="504" y="691"/>
			<point x="563" y="731"/>
			<point x="661" y="731" type="curve" smooth="yes"/>
			<point x="760" y="731"/>
			<point x="817" y="681"/>
			<point x="817" y="592" type="curve" smooth="yes"/>
			<point x="817" y="587" type="line" smooth="yes"/>
			<point x="817" y="500"/>
			<point x="787" y="386"/>
			<point x="399" y="386" type="curve" smooth="yes"/>
			<point x="314" y="386"/>
			<point x="247" y="395"/>
			<point x="187" y="408" type="curve" smooth="yes"/>
			<point x="120" y="422" type="line"/>
			<point x="120" y="120" type="line"/>
			<point x="209" y="100"/>
			<point x="385" y="88"/>
			<point x="449" y="88" type="curve" smooth="yes"/>
			<point x="675" y="88"/>
			<point x="878" y="139"/>
			<point x="997" y="210" type="curve" smooth="yes"/>
			<point x="1211" y="338"/>
			<point x="1462" y="518"/>
			<point x="1647" y="632" type="curve"/>
			<point x="1422" y="758" type="line"/>
			<point x="1396" y="322" type="line"/>
		</contour>
		<contour>
			<point x="-82" y="984" type="line"/>
			<point x="1959" y="984" type="line"/>
			<point x="1939" y="1248" type="line"/>
			<point x="-102" y="1248" type="line"/>
		</contour>
		<contour>
			<point x="1800" y="1331" type="line"/>
			<point x="1800" y="1334"/>
			<point x="1800" y="1336"/>
			<point x="1800" y="1339" type="curve" smooth="yes"/>
			<point x="1800" y="1544"/>
			<point x="1652" y="1667"/>
			<point x="1393" y="1667" type="curve" smooth="yes"/>
			<point x="627" y="1667" type="line" smooth="yes"/>
			<point x="517" y="1667"/>
			<point x="481" y="1689"/>
			<point x="472" y="1767" type="curve" smooth="yes"/>
			<point x="469" y="1793" type="line"/>
			<point x="142" y="1793" type="line"/>
			<point x="142" y="1766" type="line" smooth="yes"/>
			<point x="142" y="1509"/>
			<point x="293" y="1398"/>
			<point x="645" y="1398" type="curve" smooth="yes"/>
			<point x="1335" y="1398" type="line" smooth="yes"/>
			<point x="1414" y="1398"/>
			<point x="1446" y="1374"/>
			<point x="1446" y="1317" type="curve" smooth="yes"/>
			<point x="1446" y="1278"/>
			<point x="1431" y="1250"/>
			<point x="1399" y="1232" type="curve"/>
			<point x="1481" y="1223" type="line"/>
		</contour>
	</outline>
</glyph>
<glyph name="VowelU.bn" format="2">
	<advance width="1821"/>
	<unicode hex="0989"/>
	<anchor x="1232" y="178" name="bottom1"/>
	<anchor x="1140" y="1500" name="top"/>
	<anchor x="1494" y="1532.7" name="top2"/>
	<note>
		VowelU.bn
	</note>
	<outline>
		<contour>
			<point x="446" y="757" type="curve" smooth="yes"/>
			<point x="440" y="821" type="line"/>
			<point x="71" y="821" type="line"/>
			<point x="76" y="740" type="line" smooth="yes"/>
			<point x="107" y="230"/>
			<point x="398" y="-10"/>
			<point x="954" y="-10" type="curve" smooth="yes"/>
			<point x="1467" y="-10"/>
			<point x="1744" y="173"/>
			<point x="1744" y="537" type="curve" smooth="yes"/>
			<point x="1744" y="632"/>
			<point x="1726" y="708"/>
			<point x="1701" y="796" type="curve"/>
			<point x="1377" y="849" type="line"/>
			<point x="1288" y="800" type="line" smooth="yes"/>
			<point x="1233" y="770"/>
			<point x="1174" y="745"/>
			<point x="1114" y="745" type="curve" smooth="yes"/>
			<point x="1040" y="745"/>
			<point x="1010" y="784"/>
			<point x="1010" y="864" type="curve" smooth="yes"/>
			<point x="1010" y="1157" type="line"/>
			<point x="638" y="1159" type="line"/>
			<point x="638" y="875" type="line" smooth="yes"/>
			<point x="638" y="595"/>
			<point x="759" y="458"/>
			<point x="1037" y="458" type="curve" smooth="yes"/>
			<point x="1139" y="458"/>
			<point x="1274" y="471"/>
			<point x="1382" y="534" type="curve" smooth="yes"/>
			<point x="1575" y="646" type="line"/>
			<point x="1366" y="653" type="line"/>
			<point x="1368" y="609"/>
			<point x="1370" y="573"/>
			<point x="1370" y="539" type="curve" smooth="yes"/>
			<point x="1370" y="361"/>
			<point x="1193" y="288"/>
			<point x="952" y="288" type="curve" smooth="yes"/>
			<point x="627" y="288"/>
			<point x="477" y="426"/>
		</contour>
		<contour>
			<point x="-57" y="984" type="line"/>
			<point x="1892" y="984" type="line"/>
			<point x="1872" y="1248" type="line"/>
			<point x="-77" y="1248" type="line"/>
		</contour>
		<contour>
			<point x="1741" y="1331" type="line"/>
			<point x="1741" y="1334"/>
			<point x="1741" y="1336"/>
			<point x="1741" y="1339" type="curve" smooth="yes"/>
			<point x="1741" y="1544"/>
			<point x="1593" y="1667"/>
			<point x="1334" y="1667" type="curve" smooth="yes"/>
			<point x="556" y="1667" type="line" smooth="yes"/>
			<point x="446" y="1667"/>
			<point x="410" y="1689"/>
			<point x="401" y="1767" type="curve" smooth="yes"/>
			<point x="398" y="1793" type="line"/>
			<point x="71" y="1793" type="line"/>
			<point x="71" y="1766" type="line" smooth="yes"/>
			<point x="71" y="1509"/>
			<point x="222" y="1398"/>
			<point x="574" y="1398" type="curve" smooth="yes"/>
			<point x="1276" y="1398" type="line" smooth="yes"/>
			<point x="1355" y="1398"/>
			<point x="1387" y="1374"/>
			<point x="1387" y="1317" type="curve" smooth="yes"/>
			<point x="1387" y="1278"/>
			<point x="1372" y="1250"/>
			<point x="1340" y="1232" type="curve"/>
			<point x="1422" y="1223" type="line"/>
		</contour>
	</outline>
</glyph>
<glyph name="VowelUu.bn" format="2">
	<advance width="2099"/>
	<unicode hex="098A"/>
	<guideline x="1537" y="9561" angle="90"/>
	<anchor x="1418" y="1500" name="top"/>
	<anchor x="1772" y="1534.7" name="top2"/>
	<outline>
		<contour>
			<point x="916" y="1159" type="line"/>
			<point x="916" y="875" type="line" smooth="yes"/>
			<point x="916" y="595"/>
			<point x="1037" y="458"/>
			<point x="1315" y="458" type="curve" smooth="yes"/>
			<point x="1417" y="458"/>
			<point x="1552" y="471"/>
			<point x="1660" y="534" type="curve" smooth="yes"/>
			<point x="1853" y="646" type="line"/>
			<point x="1644" y="653" type="line"/>
			<point x="1646" y="609"/>
			<point x="1648" y="571"/>
			<point x="1648" y="539" type="curve" smooth="yes"/>
			<point x="1648" y="367"/>
			<point x="1479" y="296"/>
			<point x="1231" y="296" type="curve" smooth="yes"/>
			<point x="838" y="296"/>
			<point x="778" y="541"/>
			<point x="761" y="757" type="curve" smooth="yes"/>
			<point x="756" y="821" type="line"/>
			<point x="441" y="821" type="line"/>
			<point x="444" y="740" type="line" smooth="yes"/>
			<point x="453" y="491"/>
			<point x="614" y="308"/>
			<point x="868" y="190" type="curve"/>
			<point x="847" y="295" type="line"/>
			<point x="772" y="164" type="line"/>
			<point x="900" y="205" type="line"/>
			<point x="612" y="205"/>
			<point x="413" y="454"/>
			<point x="380" y="635" type="curve" smooth="yes"/>
			<point x="368" y="701" type="line"/>
			<point x="51" y="701" type="line"/>
			<point x="64" y="621" type="line" smooth="yes"/>
			<point x="131" y="211"/>
			<point x="537" y="0"/>
			<point x="1164" y="0" type="curve" smooth="yes"/>
			<point x="1731" y="0"/>
			<point x="2022" y="180"/>
			<point x="2022" y="537" type="curve" smooth="yes"/>
			<point x="2022" y="632"/>
			<point x="2004" y="708"/>
			<point x="1979" y="796" type="curve"/>
			<point x="1655" y="849" type="line"/>
			<point x="1562" y="800" type="line" smooth="yes"/>
			<point x="1484" y="759"/>
			<point x="1434" y="745"/>
			<point x="1381" y="745" type="curve" smooth="yes"/>
			<point x="1320" y="745"/>
			<point x="1288" y="790"/>
			<point x="1288" y="870" type="curve" smooth="yes"/>
			<point x="1288" y="1157" type="line"/>
		</contour>
		<contour>
			<point x="-85" y="984" type="line"/>
			<point x="2170" y="984" type="line"/>
			<point x="2150" y="1248" type="line"/>
			<point x="-105" y="1248" type="line"/>
		</contour>
		<contour>
			<point x="2019" y="1331" type="line"/>
			<point x="2019" y="1334"/>
			<point x="2019" y="1336"/>
			<point x="2019" y="1339" type="curve" smooth="yes"/>
			<point x="2019" y="1545"/>
			<point x="1871" y="1668"/>
			<point x="1612" y="1668" type="curve" smooth="yes"/>
			<point x="600" y="1668" type="line" smooth="yes"/>
			<point x="490" y="1668"/>
			<point x="454" y="1690"/>
			<point x="445" y="1767" type="curve" smooth="yes"/>
			<point x="442" y="1793" type="line"/>
			<point x="115" y="1793" type="line"/>
			<point x="115" y="1766" type="line" smooth="yes"/>
			<point x="115" y="1509"/>
			<point x="266" y="1398"/>
			<point x="618" y="1398" type="curve" smooth="yes"/>
			<point x="1554" y="1398" type="line" smooth="yes"/>
			<point x="1633" y="1398"/>
			<point x="1665" y="1374"/>
			<point x="1665" y="1317" type="curve" smooth="yes"/>
			<point x="1665" y="1278"/>
			<point x="1650" y="1250"/>
			<point x="1618" y="1232" type="curve"/>
			<point x="1700" y="1223" type="line"/>
		</contour>
	</outline>
</glyph>
<glyph name="VowelLru.bn" format="2">
	<advance width="1806"/>
	<unicode hex="098C"/>
	<anchor x="673" y="1629" name="top2"/>
	<outline>
		<contour>
			<point x="106" y="0" type="curve"/>
			<point x="472" y="0" type="line"/>
			<point x="472" y="59"/>
			<point x="472" y="116"/>
			<point x="472" y="174" type="curve" smooth="yes"/>
			<point x="472" y="198" type="line" smooth="yes"/>
			<point x="472" y="322"/>
			<point x="542" y="395"/>
			<point x="653" y="395" type="curve" smooth="yes"/>
			<point x="769" y="395"/>
			<point x="835" y="322"/>
			<point x="835" y="198" type="curve" smooth="yes"/>
			<point x="835" y="0" type="line"/>
			<point x="1109" y="0" type="line" smooth="yes"/>
			<point x="1486" y="0"/>
			<point x="1735" y="180"/>
			<point x="1735" y="488" type="curve" smooth="yes"/>
			<point x="1735" y="493" type="line" smooth="yes"/>
			<point x="1735" y="843"/>
			<point x="1478" y="1047"/>
			<point x="981" y="1099" type="curve" smooth="yes"/>
			<point x="743" y="1124" type="line" smooth="yes"/>
			<point x="547" y="1145"/>
			<point x="504" y="1178"/>
			<point x="494" y="1261" type="curve" smooth="yes"/>
			<point x="491" y="1285" type="line"/>
			<point x="126" y="1285" type="line"/>
			<point x="126" y="1252" type="line" smooth="yes"/>
			<point x="126" y="1005"/>
			<point x="318" y="883"/>
			<point x="675" y="841" type="curve" smooth="yes"/>
			<point x="911" y="813" type="line" smooth="yes"/>
			<point x="1204" y="778"/>
			<point x="1354" y="679"/>
			<point x="1354" y="502" type="curve" smooth="yes"/>
			<point x="1354" y="497" type="line" smooth="yes"/>
			<point x="1354" y="361"/>
			<point x="1263" y="285"/>
			<point x="1118" y="285" type="curve" smooth="yes"/>
			<point x="896" y="285" type="line"/>
			<point x="1143" y="75" type="line"/>
			<point x="1143" y="236" type="line" smooth="yes"/>
			<point x="1143" y="541"/>
			<point x="959" y="705"/>
			<point x="634" y="704" type="curve" smooth="yes"/>
			<point x="246" y="702"/>
			<point x="106" y="505"/>
			<point x="106" y="213" type="curve" smooth="yes"/>
			<point x="106" y="171" type="line" smooth="yes"/>
			<point x="106" y="114"/>
			<point x="106" y="57"/>
		</contour>
	</outline>
</glyph>
<glyph name="VowelE.bn" format="2">
	<advance width="1827"/>
	<unicode hex="098F"/>
	<guideline x="3564" y="210" angle="0"/>
	<anchor x="546" y="1791" name="top2"/>
	<outline>
		<contour>
			<point x="1121" y="530" type="curve"/>
			<point x="1148" y="799" type="line"/>
			<point x="1069" y="795"/>
			<point x="978" y="792"/>
			<point x="928" y="792" type="curve" smooth="yes"/>
			<point x="831" y="792"/>
			<point x="792" y="821"/>
			<point x="792" y="870" type="curve" smooth="yes"/>
			<point x="792" y="913"/>
			<point x="816" y="942"/>
			<point x="855" y="961" type="curve" smooth="yes"/>
			<point x="903" y="985"/>
			<point x="972" y="994"/>
			<point x="1044" y="994" type="curve" smooth="yes"/>
			<point x="1266" y="994"/>
			<point x="1313" y="904"/>
			<point x="1313" y="764" type="curve" smooth="yes"/>
			<point x="1313" y="449" type="line"/>
			<point x="1332" y="201" type="line"/>
			<point x="1354" y="-4" type="line"/>
			<point x="1683" y="-4" type="line"/>
			<point x="1683" y="748" type="line" smooth="yes"/>
			<point x="1683" y="1102"/>
			<point x="1464" y="1282"/>
			<point x="1025" y="1282" type="curve" smooth="yes"/>
			<point x="778" y="1282"/>
			<point x="553" y="1199"/>
			<point x="454" y="1047" type="curve" smooth="yes"/>
			<point x="420" y="995"/>
			<point x="401" y="935"/>
			<point x="401" y="868" type="curve" smooth="yes"/>
			<point x="401" y="637"/>
			<point x="541" y="518"/>
			<point x="907" y="518" type="curve" smooth="yes"/>
			<point x="978" y="518"/>
			<point x="1050" y="521"/>
		</contour>
		<contour>
			<point x="1330" y="23" type="curve" smooth="yes"/>
			<point x="1354" y="-4" type="line"/>
			<point x="1354" y="224" type="line"/>
			<point x="1319" y="224" type="line"/>
			<point x="1288" y="331"/>
			<point x="1203" y="382"/>
			<point x="1095" y="382" type="curve" smooth="yes"/>
			<point x="621" y="382" type="line" smooth="yes"/>
			<point x="506" y="382"/>
			<point x="438" y="436"/>
			<point x="436" y="548" type="curve" smooth="yes"/>
			<point x="435" y="598" type="line"/>
			<point x="60" y="598" type="line"/>
			<point x="60" y="585"/>
			<point x="60" y="555"/>
			<point x="60" y="543" type="curve" smooth="yes"/>
			<point x="60" y="233"/>
			<point x="246" y="80"/>
			<point x="615" y="80" type="curve" smooth="yes"/>
			<point x="1100" y="80" type="line" smooth="yes"/>
			<point x="1228" y="80"/>
			<point x="1293" y="64"/>
		</contour>
	</outline>
</glyph>
<glyph name="VowelO.bn" format="2">
  <advance width="1596"/>
  <unicode hex="0993"/>
  <anchor x="365" y="1791" name="top2"/>
  <outline>
    <contour>
      <point x="72" y="655" type="line"/>
      <point x="74" y="601" type="line" smooth="yes"/>
      <point x="88" y="213"/>
      <point x="368" y="0"/>
      <point x="861" y="0" type="curve" smooth="yes"/>
      <point x="1284" y="0"/>
      <point x="1514" y="119"/>
      <point x="1514" y="348" type="curve" smooth="yes"/>
      <point x="1514" y="353" type="line" smooth="yes"/>
      <point x="1514" y="491"/>
      <point x="1388" y="596"/>
      <point x="1183" y="615" type="curve"/>
      <point x="1183" y="625" type="line"/>
      <point x="1377" y="656"/>
      <point x="1477" y="758"/>
      <point x="1477" y="896" type="curve" smooth="yes"/>
      <point x="1477" y="901" type="line" smooth="yes"/>
      <point x="1477" y="1143"/>
      <point x="1261" y="1285"/>
      <point x="877" y="1285" type="curve" smooth="yes"/>
      <point x="487" y="1285"/>
      <point x="259" y="1143"/>
      <point x="259" y="872" type="curve" smooth="yes"/>
      <point x="259" y="851"/>
      <point x="261" y="832"/>
      <point x="265" y="815" type="curve"/>
      <point x="638" y="815" type="line"/>
      <point x="636" y="826"/>
      <point x="635" y="840"/>
      <point x="635" y="851" type="curve" smooth="yes"/>
      <point x="635" y="945"/>
      <point x="716" y="992"/>
      <point x="866" y="992" type="curve" smooth="yes"/>
      <point x="1012" y="992"/>
      <point x="1094" y="947"/>
      <point x="1094" y="864" type="curve" smooth="yes"/>
      <point x="1094" y="859" type="line" smooth="yes"/>
      <point x="1094" y="789"/>
      <point x="1007" y="757"/>
      <point x="845" y="751" type="curve" smooth="yes"/>
      <point x="718" y="746" type="line"/>
      <point x="718" y="494" type="line"/>
      <point x="886" y="488" type="line" smooth="yes"/>
      <point x="1068" y="482"/>
      <point x="1122" y="459"/>
      <point x="1122" y="406" type="curve" smooth="yes"/>
      <point x="1122" y="401" type="line" smooth="yes"/>
      <point x="1122" y="334"/>
      <point x="1026" y="299"/>
      <point x="859" y="299" type="curve" smooth="yes"/>
      <point x="505" y="299"/>
      <point x="450" y="451"/>
      <point x="434" y="599" type="curve" smooth="yes"/>
      <point x="428" y="655" type="line"/>
    </contour>
  </outline>
</glyph>
<glyph name="VowelAu.bn" format="2">
  <advance width="2100"/>
  <unicode hex="0994"/>
  <anchor x="1741" y="1510" name="top2"/>
  <outline>
    <contour>
      <point x="1580" y="541" type="curve" smooth="yes"/>
      <point x="1914" y="541"/>
      <point x="2132" y="739"/>
      <point x="2132" y="1042" type="curve" smooth="yes"/>
      <point x="2132" y="1047" type="line" smooth="yes"/>
      <point x="2132" y="1410"/>
      <point x="1846" y="1590"/>
      <point x="1263" y="1666" type="curve" smooth="yes"/>
      <point x="962" y="1705" type="line" smooth="yes"/>
      <point x="766" y="1730"/>
      <point x="723" y="1770"/>
      <point x="712" y="1854" type="curve" smooth="yes"/>
      <point x="709" y="1878" type="line"/>
      <point x="344" y="1878" type="line"/>
      <point x="344" y="1850" type="line" smooth="yes"/>
      <point x="344" y="1593"/>
      <point x="531" y="1474"/>
      <point x="893" y="1425" type="curve" smooth="yes"/>
      <point x="1190" y="1385" type="line" smooth="yes"/>
      <point x="1599" y="1330"/>
      <point x="1749" y="1226"/>
      <point x="1749" y="1047" type="curve" smooth="yes"/>
      <point x="1749" y="1042" type="line" smooth="yes"/>
      <point x="1749" y="893"/>
      <point x="1655" y="820"/>
      <point x="1464" y="820" type="curve" smooth="yes"/>
      <point x="1437" y="820"/>
      <point x="1367" y="820"/>
      <point x="1341" y="819" type="curve"/>
      <point x="1105" y="576" type="line"/>
      <point x="1237" y="592" type="line"/>
      <point x="1322" y="557"/>
      <point x="1454" y="541"/>
    </contour>
    <contour>
      <point x="72" y="655" type="line"/>
      <point x="74" y="601" type="line" smooth="yes"/>
      <point x="88" y="213"/>
      <point x="368" y="0"/>
      <point x="861" y="0" type="curve" smooth="yes"/>
      <point x="1284" y="0"/>
      <point x="1514" y="119"/>
      <point x="1514" y="348" type="curve" smooth="yes"/>
      <point x="1514" y="353" type="line" smooth="yes"/>
      <point x="1514" y="488"/>
      <point x="1388" y="591"/>
      <point x="1183" y="610" type="curve"/>
      <point x="1183" y="620" type="line"/>
      <point x="1377" y="652"/>
      <point x="1473" y="761"/>
      <point x="1473" y="896" type="curve" smooth="yes"/>
      <point x="1473" y="901" type="line" smooth="yes"/>
      <point x="1473" y="1143"/>
      <point x="1258" y="1285"/>
      <point x="877" y="1285" type="curve" smooth="yes"/>
      <point x="487" y="1285"/>
      <point x="259" y="1143"/>
      <point x="259" y="872" type="curve" smooth="yes"/>
      <point x="259" y="851"/>
      <point x="261" y="832"/>
      <point x="265" y="815" type="curve"/>
      <point x="638" y="815" type="line"/>
      <point x="636" y="826"/>
      <point x="635" y="840"/>
      <point x="635" y="851" type="curve" smooth="yes"/>
      <point x="635" y="945"/>
      <point x="716" y="992"/>
      <point x="866" y="992" type="curve" smooth="yes"/>
      <point x="1012" y="992"/>
      <point x="1094" y="947"/>
      <point x="1094" y="864" type="curve" smooth="yes"/>
      <point x="1094" y="859" type="line" smooth="yes"/>
      <point x="1094" y="782"/>
      <point x="1007" y="747"/>
      <point x="845" y="741" type="curve" smooth="yes"/>
      <point x="718" y="736" type="line"/>
      <point x="718" y="494" type="line"/>
      <point x="885" y="488" type="line" smooth="yes"/>
      <point x="1068" y="481"/>
      <point x="1122" y="460"/>
      <point x="1122" y="406" type="curve" smooth="yes"/>
      <point x="1122" y="401" type="line" smooth="yes"/>
      <point x="1122" y="334"/>
      <point x="1026" y="299"/>
      <point x="859" y="299" type="curve" smooth="yes"/>
      <point x="505" y="299"/>
      <point x="450" y="451"/>
      <point x="434" y="599" type="curve" smooth="yes"/>
      <point x="428" y="655" type="line"/>
    </contour>
  </outline>
</glyph>
<glyph name="Ka.bn" format="2">
  <advance width="2203"/>
  <unicode hex="0995"/>
  <anchor x="1375" y="-4" name="bottom1"/>
  <anchor x="951" y="1398" name="top"/>
  <anchor x="690" y="1791" name="top2"/>
  <outline>
    <contour>
      <point x="1057" y="-4" type="line"/>
      <point x="1375" y="-4" type="line"/>
      <point x="1375" y="803" type="line"/>
      <point x="1366" y="838" type="line"/>
      <point x="1366" y="1016" type="line"/>
      <point x="1014" y="1016" type="line"/>
      <point x="1014" y="860" type="line"/>
      <point x="1005" y="808" type="line"/>
      <point x="1005" y="438" type="line"/>
      <point x="1025" y="201" type="line"/>
      <point x="1042" y="282" type="line"/>
      <point x="327" y="496" type="line"/>
      <point x="496" y="319" type="line"/>
      <point x="496" y="616" type="line"/>
      <point x="325" y="501" type="line"/>
      <point x="657" y="585"/>
      <point x="980" y="636"/>
      <point x="1281" y="666" type="curve"/>
      <point x="1272" y="960" type="line"/>
      <point x="866" y="919"/>
      <point x="476" y="837"/>
      <point x="125" y="742" type="curve"/>
      <point x="125" y="259" type="line"/>
    </contour>
    <contour>
      <point x="1502" y="200" type="line"/>
      <point x="1543" y="198"/>
      <point x="1582" y="196"/>
      <point x="1623" y="196" type="curve" smooth="yes"/>
      <point x="1977" y="196"/>
      <point x="2136" y="298"/>
      <point x="2136" y="537" type="curve" smooth="yes"/>
      <point x="2136" y="542" type="line" smooth="yes"/>
      <point x="2136" y="779"/>
      <point x="1971" y="876"/>
      <point x="1509" y="918" type="curve" smooth="yes"/>
      <point x="1247" y="942" type="line"/>
      <point x="1247" y="666" type="line"/>
      <point x="1587" y="636" type="line" smooth="yes"/>
      <point x="1717" y="625"/>
      <point x="1771" y="598"/>
      <point x="1771" y="549" type="curve" smooth="yes"/>
      <point x="1771" y="544" type="line" smooth="yes"/>
      <point x="1771" y="495"/>
      <point x="1732" y="469"/>
      <point x="1621" y="469" type="curve" smooth="yes"/>
      <point x="1578" y="469"/>
      <point x="1523" y="472"/>
      <point x="1475" y="477" type="curve"/>
    </contour>
    <contour>
      <point x="-4" y="984" type="line"/>
      <point x="2252" y="984" type="line"/>
      <point x="2232" y="1248" type="line"/>
      <point x="-24" y="1248" type="line"/>
    </contour>
    <contour>
      <point x="1239" y="1121" type="line"/>
      <point x="1239" y="712" type="line"/>
      <point x="1366" y="712" type="line"/>
      <point x="1366" y="1121" type="line"/>
    </contour>
    <contour>
      <point x="1239" y="984" type="line"/>
      <point x="1551" y="984" type="line"/>
      <point x="1531" y="1248" type="line"/>
      <point x="1239" y="1248" type="line"/>
    </contour>
  </outline>
</glyph>
<glyph name="Kha.bn" format="2">
  <advance width="1738"/>
  <unicode hex="0996"/>
  <anchor x="1590" y="-4" name="bottom1"/>
  <anchor x="1175" y="1398" name="top"/>
  <anchor x="914" y="1791" name="top2"/>
  <outline>
    <contour>
      <point x="1273" y="-4" type="line"/>
      <point x="1590" y="-4" type="line"/>
      <point x="1590" y="1248" type="line"/>
      <point x="1220" y="1248" type="line"/>
      <point x="1220" y="438" type="line"/>
      <point x="1239" y="201" type="line"/>
      <point x="1277" y="283" type="line"/>
      <point x="360" y="445" type="line"/>
      <point x="517" y="318" type="line"/>
      <point x="517" y="606" type="line"/>
      <point x="370" y="461" type="line"/>
      <point x="530" y="469" type="line" smooth="yes"/>
      <point x="904" y="488"/>
      <point x="1103" y="631"/>
      <point x="1103" y="895" type="curve" smooth="yes"/>
      <point x="1103" y="1000"/>
      <point x="1085" y="1123"/>
      <point x="1060" y="1230" type="curve"/>
      <point x="755" y="1267" type="line"/>
      <point x="595" y="1140"/>
      <point x="559" y="1121"/>
      <point x="483" y="1121" type="curve" smooth="yes"/>
      <point x="422" y="1121"/>
      <point x="388" y="1147"/>
      <point x="379" y="1205" type="curve" smooth="yes"/>
      <point x="372" y="1248" type="line"/>
      <point x="20" y="1248" type="line"/>
      <point x="20" y="1235" type="line" smooth="yes"/>
      <point x="20" y="982"/>
      <point x="166" y="840"/>
      <point x="438" y="840" type="curve" smooth="yes"/>
      <point x="597" y="840"/>
      <point x="698" y="881"/>
      <point x="867" y="1004" type="curve"/>
      <point x="736" y="1077" type="line"/>
      <point x="740" y="997"/>
      <point x="742" y="942"/>
      <point x="742" y="894" type="curve" smooth="yes"/>
      <point x="742" y="801"/>
      <point x="660" y="742"/>
      <point x="458" y="730" type="curve" smooth="yes"/>
      <point x="148" y="712" type="line"/>
      <point x="148" y="193" type="line"/>
    </contour>
    <contour>
      <point x="1463" y="1121" type="line"/>
      <point x="1463" y="712" type="line"/>
      <point x="1590" y="712" type="line"/>
      <point x="1590" y="1121" type="line"/>
    </contour>
    <contour>
      <point x="1463" y="984" type="line"/>
      <point x="1775" y="984" type="line"/>
      <point x="1755" y="1248" type="line"/>
      <point x="1463" y="1248" type="line"/>
    </contour>
  </outline>
</glyph>
<glyph name="Gha.bn" format="2">
	<advance width="1694"/>
	<unicode hex="0998"/>
	<anchor x="1546" y="-4" name="bottom1"/>
	<anchor x="1131" y="1398" name="top"/>
	<anchor x="870" y="1791" name="top2"/>
	<outline>
		<contour>
			<point x="1546" y="-4" type="line"/>
			<point x="1546" y="1016" type="line"/>
			<point x="1176" y="1016" type="line"/>
			<point x="1176" y="438" type="line"/>
			<point x="1195" y="201" type="line"/>
			<point x="1221" y="292" type="line"/>
			<point x="494" y="418" type="line"/>
			<point x="553" y="368" type="line"/>
			<point x="553" y="466" type="line"/>
			<point x="491" y="431" type="line"/>
			<point x="986" y="539" type="line"/>
			<point x="947" y="805" type="line"/>
			<point x="183" y="628" type="line"/>
			<point x="183" y="196" type="line"/>
			<point x="1228" y="-4" type="line"/>
		</contour>
		<contour>
			<point x="688" y="995" type="curve"/>
			<point x="313" y="1146" type="line"/>
			<point x="178" y="1094"/>
			<point x="112" y="1018"/>
			<point x="112" y="915" type="curve" smooth="yes"/>
			<point x="112" y="913" type="line" smooth="yes"/>
			<point x="112" y="773"/>
			<point x="215" y="693"/>
			<point x="414" y="693" type="curve"/>
			<point x="414" y="659" type="line"/>
			<point x="947" y="805" type="line"/>
			<point x="893" y="792"/>
			<point x="795" y="780"/>
			<point x="731" y="780" type="curve" smooth="yes"/>
			<point x="605" y="780"/>
			<point x="544" y="813"/>
			<point x="544" y="881" type="curve" smooth="yes"/>
			<point x="544" y="883" type="line" smooth="yes"/>
			<point x="544" y="949"/>
			<point x="595" y="988"/>
		</contour>
		<contour>
			<point x="-54" y="984" type="line"/>
			<point x="1514" y="984" type="line"/>
			<point x="1514" y="1248" type="line"/>
			<point x="-74" y="1248" type="line"/>
		</contour>
		<contour>
			<point x="1419" y="1121" type="line"/>
			<point x="1419" y="712" type="line"/>
			<point x="1546" y="712" type="line"/>
			<point x="1546" y="1121" type="line"/>
		</contour>
		<contour>
			<point x="1419" y="984" type="line"/>
			<point x="1731" y="984" type="line"/>
			<point x="1711" y="1248" type="line"/>
			<point x="1419" y="1248" type="line"/>
		</contour>
	</outline>
</glyph>
<glyph name="Nga.bn" format="2">
  <advance width="1818"/>
  <unicode hex="0999"/>
  <anchor x="1376" y="178" name="bottom1"/>
  <anchor x="828" y="1405" name="top"/>
  <anchor x="506" y="1791" name="top2"/>
  <outline>
    <contour>
      <point x="994" y="-10" type="curve" smooth="yes"/>
      <point x="1447" y="-10"/>
      <point x="1743" y="146"/>
      <point x="1743" y="441" type="curve" smooth="yes"/>
      <point x="1743" y="536"/>
      <point x="1720" y="614"/>
      <point x="1677" y="679" type="curve"/>
      <point x="1344" y="644" type="line" smooth="yes"/>
      <point x="1282" y="637"/>
      <point x="1227" y="634"/>
      <point x="1186" y="634" type="curve" smooth="yes"/>
      <point x="1002" y="634"/>
      <point x="969" y="662"/>
      <point x="969" y="753" type="curve" smooth="yes"/>
      <point x="969" y="823" type="line"/>
      <point x="944" y="837" type="line"/>
      <point x="944" y="855" type="line" smooth="yes"/>
      <point x="944" y="950"/>
      <point x="991" y="1016"/>
      <point x="1118" y="1016" type="curve" smooth="yes"/>
      <point x="1188" y="1016"/>
      <point x="1214" y="994"/>
      <point x="1214" y="963" type="curve" smooth="yes"/>
      <point x="1214" y="959" type="line" smooth="yes"/>
      <point x="1214" y="901"/>
      <point x="1139" y="882"/>
      <point x="935" y="882" type="curve" smooth="yes"/>
      <point x="888" y="882"/>
      <point x="831" y="892"/>
      <point x="773" y="912" type="curve"/>
      <point x="773" y="702" type="line"/>
      <point x="837" y="693"/>
      <point x="904" y="688"/>
      <point x="968" y="688" type="curve" smooth="yes"/>
      <point x="1402" y="688"/>
      <point x="1576" y="763"/>
      <point x="1576" y="972" type="curve" smooth="yes"/>
      <point x="1576" y="976" type="line" smooth="yes"/>
      <point x="1576" y="1170"/>
      <point x="1422" y="1280"/>
      <point x="1111" y="1280" type="curve" smooth="yes"/>
      <point x="826" y="1280"/>
      <point x="597" y="1132"/>
      <point x="597" y="844" type="curve" smooth="yes"/>
      <point x="597" y="812" type="line" smooth="yes"/>
      <point x="597" y="605"/>
      <point x="639" y="388"/>
      <point x="1075" y="388" type="curve" smooth="yes"/>
      <point x="1209" y="388"/>
      <point x="1359" y="417"/>
      <point x="1435" y="440" type="curve" smooth="yes"/>
      <point x="1531" y="469" type="line"/>
      <point x="1361" y="493" type="line"/>
      <point x="1361" y="477"/>
      <point x="1361" y="462"/>
      <point x="1361" y="448" type="curve" smooth="yes"/>
      <point x="1361" y="340"/>
      <point x="1220" y="280"/>
      <point x="994" y="280" type="curve" smooth="yes"/>
      <point x="582" y="280"/>
      <point x="476" y="430"/>
      <point x="448" y="599" type="curve" smooth="yes"/>
      <point x="441" y="641" type="line"/>
      <point x="75" y="641" type="line"/>
      <point x="80" y="579" type="line" smooth="yes"/>
      <point x="110" y="206"/>
      <point x="409" y="-10"/>
    </contour>
    <contour>
      <point x="134" y="1186" type="line"/>
      <point x="134" y="1172" type="line" smooth="yes"/>
      <point x="134" y="894"/>
      <point x="366" y="696"/>
      <point x="775" y="696" type="curve" smooth="yes"/>
      <point x="781" y="696" type="line"/>
      <point x="781" y="899" type="line"/>
      <point x="763" y="899" type="line" smooth="yes"/>
      <point x="571" y="899"/>
      <point x="501" y="1013"/>
      <point x="490" y="1172" type="curve" smooth="yes"/>
      <point x="489" y="1186" type="line"/>
    </contour>
  </outline>
</glyph>
<glyph name="Cha.bn" format="2">
	<advance width="1640"/>
	<unicode hex="099B"/>
	<anchor x="1219" y="-29" name="bottom1"/>
	<anchor x="68" y="1407" name="top"/>
	<anchor x="343" y="1802" name="top2"/>
	<outline>
		<contour>
			<point x="380" y="265" type="curve" smooth="yes"/>
			<point x="235" y="286" type="line"/>
			<point x="219" y="-19" type="line"/>
			<point x="1663" y="-348" type="line"/>
			<point x="1688" y="-50" type="line"/>
			<point x="1336" y="13" type="line"/>
			<point x="1089" y="54" type="line"/>
			<point x="1098" y="150" type="line"/>
			<point x="554" y="97" type="line"/>
			<point x="701" y="76"/>
			<point x="856" y="65"/>
			<point x="1025" y="65" type="curve" smooth="yes"/>
			<point x="1382" y="65"/>
			<point x="1557" y="195"/>
			<point x="1557" y="442" type="curve" smooth="yes"/>
			<point x="1557" y="447" type="line" smooth="yes"/>
			<point x="1557" y="717"/>
			<point x="1345" y="851"/>
			<point x="907" y="877" type="curve" smooth="yes"/>
			<point x="359" y="910" type="line"/>
			<point x="359" y="693" type="line"/>
			<point x="941" y="654" type="line" smooth="yes"/>
			<point x="1107" y="643"/>
			<point x="1181" y="587"/>
			<point x="1181" y="469" type="curve" smooth="yes"/>
			<point x="1181" y="464" type="line" smooth="yes"/>
			<point x="1181" y="320"/>
			<point x="1017" y="240"/>
			<point x="712" y="240" type="curve" smooth="yes"/>
			<point x="605" y="240"/>
			<point x="496" y="248"/>
		</contour>
		<contour>
			<point x="626" y="336" type="curve" smooth="yes"/>
			<point x="891" y="336"/>
			<point x="1047" y="440"/>
			<point x="1103" y="654" type="curve" smooth="yes"/>
			<point x="1116" y="704" type="line"/>
			<point x="793" y="757" type="line"/>
			<point x="778" y="695" type="line" smooth="yes"/>
			<point x="756" y="604"/>
			<point x="702" y="559"/>
			<point x="613" y="559" type="curve" smooth="yes"/>
			<point x="522" y="559"/>
			<point x="477" y="597"/>
			<point x="477" y="675" type="curve" smooth="yes"/>
			<point x="477" y="1074" type="line"/>
			<point x="124" y="1074" type="line"/>
			<point x="124" y="715" type="line" smooth="yes"/>
			<point x="124" y="461"/>
			<point x="289" y="336"/>
		</contour>
		<contour>
			<point x="-71" y="986" type="line"/>
			<point x="1715" y="986" type="line"/>
			<point x="1695" y="1250" type="line"/>
			<point x="-91" y="1250" type="line"/>
		</contour>
	</outline>
</glyph>
<glyph name="Jha.bn" format="2">
  <advance width="2198"/>
  <unicode hex="099D"/>
  <anchor x="1428" y="-4" name="bottom1"/>
  <anchor x="992" y="1398" name="top"/>
  <anchor x="710" y="1791" name="top2"/>
  <outline>
    <contour>
      <point x="1108" y="-4" type="line"/>
      <point x="1427" y="-4" type="line"/>
      <point x="1427" y="1016" type="line"/>
      <point x="1057" y="1016" type="line"/>
      <point x="1057" y="844" type="line"/>
      <point x="1057" y="767" type="line"/>
      <point x="1057" y="438" type="line"/>
      <point x="1076" y="201" type="line"/>
      <point x="1096" y="284" type="line"/>
      <point x="315" y="489" type="line"/>
      <point x="484" y="337" type="line"/>
      <point x="484" y="614" type="line"/>
      <point x="315" y="488" type="line"/>
      <point x="627" y="577"/>
      <point x="1012" y="634"/>
      <point x="1333" y="666" type="curve"/>
      <point x="1324" y="965" type="line"/>
      <point x="920" y="918"/>
      <point x="517" y="848"/>
      <point x="113" y="738" type="curve"/>
      <point x="113" y="257" type="line"/>
    </contour>
    <contour>
      <point x="-17" y="984" type="line"/>
      <point x="1427" y="984" type="line"/>
      <point x="1427" y="1248" type="line"/>
      <point x="-36" y="1248" type="line"/>
    </contour>
    <contour>
      <point x="1732" y="117" type="line"/>
      <point x="2050" y="117" type="line"/>
      <point x="2050" y="1248" type="line"/>
      <point x="1682" y="1248" type="line"/>
      <point x="1682" y="557" type="line"/>
      <point x="1699" y="320" type="line"/>
      <point x="1723" y="405" type="line"/>
      <point x="1199" y="544" type="line"/>
      <point x="1199" y="251" type="line"/>
    </contour>
    <contour>
      <point x="1923" y="1121" type="line"/>
      <point x="1923" y="712" type="line"/>
      <point x="2050" y="712" type="line"/>
      <point x="2050" y="1121" type="line"/>
    </contour>
    <contour>
      <point x="1923" y="984" type="line"/>
      <point x="2235" y="984" type="line"/>
      <point x="2215" y="1248" type="line"/>
      <point x="1923" y="1248" type="line"/>
    </contour>
  </outline>
</glyph>
<glyph name="Tta.bn" format="2">
  <advance width="1560"/>
  <unicode hex="099F"/>
  <anchor x="1081" y="178" name="bottom1"/>
  <anchor x="883" y="1500" name="top"/>
  <anchor x="1237" y="1530.5" name="top2"/>
  <outline>
    <contour>
      <point x="791" y="-10" type="curve" smooth="yes"/>
      <point x="1023" y="-10"/>
      <point x="1238" y="39"/>
      <point x="1368" y="153" type="curve" smooth="yes"/>
      <point x="1447" y="222"/>
      <point x="1493" y="316"/>
      <point x="1493" y="438" type="curve" smooth="yes"/>
      <point x="1493" y="689"/>
      <point x="1282" y="809"/>
      <point x="918" y="809" type="curve" smooth="yes"/>
      <point x="846" y="809"/>
      <point x="767" y="802"/>
      <point x="693" y="793" type="curve"/>
      <point x="668" y="519" type="line"/>
      <point x="753" y="529"/>
      <point x="837" y="533"/>
      <point x="923" y="533" type="curve" smooth="yes"/>
      <point x="1060" y="533"/>
      <point x="1114" y="504"/>
      <point x="1114" y="443" type="curve" smooth="yes"/>
      <point x="1114" y="387"/>
      <point x="1076" y="347"/>
      <point x="1017" y="324" type="curve" smooth="yes"/>
      <point x="954" y="299"/>
      <point x="869" y="286"/>
      <point x="784" y="286" type="curve" smooth="yes"/>
      <point x="570" y="286"/>
      <point x="492" y="363"/>
      <point x="492" y="503" type="curve" smooth="yes"/>
      <point x="492" y="1066" type="line"/>
      <point x="122" y="1066" type="line"/>
      <point x="122" y="506" type="line" smooth="yes"/>
      <point x="122" y="142"/>
      <point x="373" y="-10"/>
    </contour>
    <contour>
      <point x="-72" y="984" type="line"/>
      <point x="1586" y="984" type="line"/>
      <point x="1566" y="1248" type="line"/>
      <point x="-92" y="1248" type="line"/>
    </contour>
    <contour>
      <point x="1484" y="1331" type="line"/>
      <point x="1484" y="1334"/>
      <point x="1484" y="1336"/>
      <point x="1484" y="1339" type="curve" smooth="yes"/>
      <point x="1484" y="1544"/>
      <point x="1336" y="1667"/>
      <point x="1077" y="1667" type="curve" smooth="yes"/>
      <point x="557" y="1667" type="line" smooth="yes"/>
      <point x="447" y="1667"/>
      <point x="411" y="1689"/>
      <point x="402" y="1767" type="curve" smooth="yes"/>
      <point x="399" y="1793" type="line"/>
      <point x="72" y="1793" type="line"/>
      <point x="72" y="1766" type="line" smooth="yes"/>
      <point x="72" y="1509"/>
      <point x="223" y="1398"/>
      <point x="575" y="1398" type="curve" smooth="yes"/>
      <point x="1019" y="1398" type="line" smooth="yes"/>
      <point x="1098" y="1398"/>
      <point x="1130" y="1374"/>
      <point x="1130" y="1317" type="curve" smooth="yes"/>
      <point x="1130" y="1278"/>
      <point x="1115" y="1250"/>
      <point x="1083" y="1232" type="curve"/>
      <point x="1165" y="1223" type="line"/>
    </contour>
  </outline>
</glyph>
<glyph name="Ttha.bn" format="2">
	<advance width="1585"/>
	<unicode hex="09A0"/>
	<anchor x="1163" y="178" name="bottom1"/>
	<anchor x="842" y="1398" name="top"/>
	<anchor x="1262" y="1335" name="top2"/>
	<outline>
		<contour>
			<point x="821" y="-20" type="curve" smooth="yes"/>
			<point x="1265" y="-20"/>
			<point x="1526" y="160"/>
			<point x="1526" y="469" type="curve" smooth="yes"/>
			<point x="1526" y="474" type="line" smooth="yes"/>
			<point x="1526" y="758"/>
			<point x="1298" y="903"/>
			<point x="969" y="1082" type="curve" smooth="yes"/>
			<point x="880" y="1130" type="line"/>
			<point x="637" y="929" type="line"/>
			<point x="829" y="836" type="line" smooth="yes"/>
			<point x="999" y="753"/>
			<point x="1146" y="641"/>
			<point x="1146" y="516" type="curve" smooth="yes"/>
			<point x="1146" y="510" type="line" smooth="yes"/>
			<point x="1146" y="355"/>
			<point x="1035" y="279"/>
			<point x="809" y="279" type="curve" smooth="yes"/>
			<point x="579" y="279"/>
			<point x="458" y="364"/>
			<point x="458" y="526" type="curve" smooth="yes"/>
			<point x="458" y="535"/>
			<point x="458" y="544"/>
			<point x="458" y="553" type="curve"/>
			<point x="295" y="387" type="line"/>
			<point x="695" y="421"/>
			<point x="851" y="537"/>
			<point x="851" y="959" type="curve" smooth="yes"/>
			<point x="851" y="1054" type="line"/>
			<point x="537" y="1114" type="line"/>
			<point x="537" y="1045" type="line" smooth="yes"/>
			<point x="537" y="709"/>
			<point x="447" y="630"/>
			<point x="97" y="551" type="curve"/>
			<point x="97" y="540"/>
			<point x="97" y="528"/>
			<point x="97" y="519" type="curve" smooth="yes"/>
			<point x="97" y="182"/>
			<point x="372" y="-20"/>
		</contour>
		<contour>
			<point x="-35" y="985" type="line"/>
			<point x="1618" y="985" type="line"/>
			<point x="1598" y="1248" type="line"/>
			<point x="-55" y="1248" type="line"/>
		</contour>
		<contour>
			<point x="524" y="1230" type="curve" smooth="yes"/>
			<point x="570" y="1196" type="line"/>
			<point x="896" y="1210" type="line"/>
			<point x="860" y="1244" type="line" smooth="yes"/>
			<point x="682" y="1414"/>
			<point x="618" y="1528"/>
			<point x="618" y="1680" type="curve" smooth="yes"/>
			<point x="618" y="1727"/>
			<point x="628" y="1777"/>
			<point x="648" y="1833" type="curve"/>
			<point x="292" y="1833" type="line"/>
			<point x="266" y="1786"/>
			<point x="253" y="1733"/>
			<point x="253" y="1671" type="curve" smooth="yes"/>
			<point x="253" y="1531"/>
			<point x="315" y="1384"/>
		</contour>
	</outline>
</glyph>
<glyph name="Nna.bn" format="2">
	<advance width="1682"/>
	<unicode hex="09A3"/>
	<anchor x="1534" y="200" name="bottom1"/>
	<anchor x="1119" y="1398" name="top"/>
	<anchor x="858" y="1791" name="top2"/>
	<outline>
		<contour>
			<point x="651" y="407" type="curve" smooth="yes"/>
			<point x="736" y="407"/>
			<point x="806" y="415"/>
			<point x="865" y="430" type="curve"/>
			<point x="885" y="719" type="line"/>
			<point x="832" y="707"/>
			<point x="777" y="701"/>
			<point x="719" y="701" type="curve" smooth="yes"/>
			<point x="556" y="701"/>
			<point x="476" y="745"/>
			<point x="476" y="835" type="curve" smooth="yes"/>
			<point x="476" y="840" type="line" smooth="yes"/>
			<point x="476" y="930"/>
			<point x="559" y="974"/>
			<point x="726" y="974" type="curve" smooth="yes"/>
			<point x="950" y="974"/>
			<point x="1115" y="854"/>
			<point x="1164" y="637" type="curve"/>
			<point x="1301" y="984" type="line"/>
			<point x="1171" y="984" type="line"/>
			<point x="1115" y="1188"/>
			<point x="944" y="1288"/>
			<point x="651" y="1288" type="curve" smooth="yes"/>
			<point x="264" y="1288"/>
			<point x="75" y="1143"/>
			<point x="75" y="847" type="curve" smooth="yes"/>
			<point x="75" y="842" type="line" smooth="yes"/>
			<point x="75" y="551"/>
			<point x="265" y="407"/>
		</contour>
		<contour>
			<point x="1164" y="0" type="line"/>
			<point x="1534" y="0" type="line"/>
			<point x="1534" y="1248" type="line"/>
			<point x="1183" y="1248" type="line"/>
			<point x="1183" y="885" type="line"/>
			<point x="1164" y="885" type="line"/>
		</contour>
		<contour>
			<point x="1407" y="1121" type="line"/>
			<point x="1407" y="712" type="line"/>
			<point x="1534" y="712" type="line"/>
			<point x="1534" y="1121" type="line"/>
		</contour>
		<contour>
			<point x="1407" y="984" type="line"/>
			<point x="1719" y="984" type="line"/>
			<point x="1699" y="1248" type="line"/>
			<point x="1407" y="1248" type="line"/>
		</contour>
	</outline>
</glyph>
<glyph name="Ta.bn" format="2">
  <advance width="1816"/>
  <unicode hex="09A4"/>
  <anchor x="1238" y="178" name="bottom1"/>
  <anchor x="841" y="1405" name="top"/>
  <anchor x="639" y="1791" name="top2"/>
  <outline>
    <contour>
      <point x="973" y="0" type="curve" smooth="yes"/>
      <point x="1474" y="0"/>
      <point x="1743" y="195"/>
      <point x="1743" y="538" type="curve" smooth="yes"/>
      <point x="1743" y="543" type="line" smooth="yes"/>
      <point x="1743" y="838"/>
      <point x="1545" y="999"/>
      <point x="1180" y="999" type="curve" smooth="yes"/>
      <point x="840" y="999"/>
      <point x="657" y="863"/>
      <point x="657" y="602" type="curve" smooth="yes"/>
      <point x="657" y="579"/>
      <point x="659" y="552"/>
      <point x="664" y="530" type="curve"/>
      <point x="1036" y="530" type="line"/>
      <point x="1032" y="554"/>
      <point x="1031" y="571"/>
      <point x="1031" y="586" type="curve" smooth="yes"/>
      <point x="1031" y="681"/>
      <point x="1091" y="731"/>
      <point x="1196" y="731" type="curve" smooth="yes"/>
      <point x="1305" y="731"/>
      <point x="1367" y="670"/>
      <point x="1367" y="559" type="curve" smooth="yes"/>
      <point x="1367" y="554" type="line" smooth="yes"/>
      <point x="1367" y="389"/>
      <point x="1225" y="298"/>
      <point x="968" y="298" type="curve" smooth="yes"/>
      <point x="616" y="298"/>
      <point x="475" y="431"/>
      <point x="446" y="754" type="curve" smooth="yes"/>
      <point x="440" y="821" type="line"/>
      <point x="71" y="821" type="line"/>
      <point x="76" y="740" type="line" smooth="yes"/>
      <point x="107" y="236"/>
      <point x="390" y="0"/>
    </contour>
    <contour>
      <point x="-57" y="984" type="line"/>
      <point x="1892" y="984" type="line"/>
      <point x="1872" y="1248" type="line"/>
      <point x="-77" y="1248" type="line"/>
    </contour>
  </outline>
</glyph>
<glyph name="Tha.bn" format="2">
	<advance width="1742"/>
	<unicode hex="09A5"/>
	<anchor x="1594" y="-4" name="bottom1"/>
	<anchor x="1179" y="1398" name="top"/>
	<anchor x="918" y="1791" name="top2"/>
	<outline>
		<contour>
			<point x="1277" y="-4" type="line"/>
			<point x="1594" y="-4" type="line"/>
			<point x="1594" y="1248" type="line"/>
			<point x="1224" y="1248" type="line"/>
			<point x="1224" y="438" type="line"/>
			<point x="1243" y="201" type="line"/>
			<point x="1281" y="283" type="line"/>
			<point x="364" y="445" type="line"/>
			<point x="521" y="318" type="line"/>
			<point x="521" y="606" type="line"/>
			<point x="375" y="462" type="line"/>
			<point x="534" y="469" type="line" smooth="yes"/>
			<point x="894" y="485"/>
			<point x="1105" y="633"/>
			<point x="1105" y="866" type="curve" smooth="yes"/>
			<point x="1105" y="871" type="line" smooth="yes"/>
			<point x="1105" y="1139"/>
			<point x="918" y="1282"/>
			<point x="571" y="1282" type="curve" smooth="yes"/>
			<point x="238" y="1282"/>
			<point x="58" y="1146"/>
			<point x="58" y="890" type="curve" smooth="yes"/>
			<point x="58" y="874"/>
			<point x="60" y="853"/>
			<point x="64" y="833" type="curve"/>
			<point x="439" y="833" type="line"/>
			<point x="436" y="846"/>
			<point x="434" y="863"/>
			<point x="434" y="878" type="curve" smooth="yes"/>
			<point x="434" y="948"/>
			<point x="489" y="990"/>
			<point x="582" y="990" type="curve" smooth="yes"/>
			<point x="680" y="990"/>
			<point x="731" y="950"/>
			<point x="731" y="880" type="curve" smooth="yes"/>
			<point x="731" y="875" type="line" smooth="yes"/>
			<point x="731" y="809"/>
			<point x="692" y="743"/>
			<point x="462" y="730" type="curve" smooth="yes"/>
			<point x="152" y="712" type="line"/>
			<point x="152" y="193" type="line"/>
		</contour>
		<contour>
			<point x="1467" y="1121" type="line"/>
			<point x="1467" y="712" type="line"/>
			<point x="1594" y="712" type="line"/>
			<point x="1594" y="1121" type="line"/>
		</contour>
		<contour>
			<point x="1467" y="984" type="line"/>
			<point x="1779" y="984" type="line"/>
			<point x="1759" y="1248" type="line"/>
			<point x="1467" y="1248" type="line"/>
		</contour>
	</outline>
</glyph>
<glyph name="Dha.bn" format="2">
	<advance width="1632"/>
	<unicode hex="09A7"/>
	<anchor x="1484" y="-4" name="bottom1"/>
	<anchor x="1069" y="1398" name="top"/>
	<anchor x="808" y="1791" name="top2"/>
	<outline>
		<contour>
			<point x="1164" y="-4" type="line"/>
			<point x="1484" y="-4" type="line"/>
			<point x="1484" y="1248" type="line"/>
			<point x="1114" y="1248" type="line"/>
			<point x="1114" y="438" type="line"/>
			<point x="1130" y="201" type="line"/>
			<point x="1143" y="284" type="line"/>
			<point x="436" y="428" type="line"/>
			<point x="507" y="344" type="line"/>
			<point x="507" y="509" type="line"/>
			<point x="443" y="453" type="line"/>
			<point x="729" y="520"/>
			<point x="1019" y="578"/>
			<point x="1286" y="620" type="curve"/>
			<point x="1277" y="909" type="line"/>
			<point x="875" y="849"/>
			<point x="489" y="773"/>
			<point x="139" y="690" type="curve"/>
			<point x="139" y="206" type="line"/>
		</contour>
		<contour>
			<point x="388" y="758" type="curve"/>
			<point x="388" y="739" type="line"/>
			<point x="772" y="798" type="line"/>
			<point x="733" y="795"/>
			<point x="696" y="793"/>
			<point x="665" y="793" type="curve" smooth="yes"/>
			<point x="578" y="793"/>
			<point x="518" y="825"/>
			<point x="518" y="893" type="curve" smooth="yes"/>
			<point x="518" y="894" type="line" smooth="yes"/>
			<point x="518" y="961"/>
			<point x="569" y="993"/>
			<point x="663" y="993" type="curve" smooth="yes"/>
			<point x="725" y="993"/>
			<point x="798" y="982"/>
			<point x="851" y="965" type="curve"/>
			<point x="851" y="1229" type="line"/>
			<point x="795" y="1254"/>
			<point x="674" y="1282"/>
			<point x="541" y="1282" type="curve" smooth="yes"/>
			<point x="252" y="1282"/>
			<point x="94" y="1180"/>
			<point x="94" y="994" type="curve" smooth="yes"/>
			<point x="94" y="993" type="line" smooth="yes"/>
			<point x="94" y="836"/>
			<point x="212" y="758"/>
		</contour>
		<contour>
			<point x="1357" y="1121" type="line"/>
			<point x="1357" y="712" type="line"/>
			<point x="1484" y="712" type="line"/>
			<point x="1484" y="1121" type="line"/>
		</contour>
		<contour>
			<point x="1357" y="984" type="line"/>
			<point x="1669" y="984" type="line"/>
			<point x="1649" y="1248" type="line"/>
			<point x="1357" y="1248" type="line"/>
		</contour>
	</outline>
</glyph>
<glyph name="Pha.bn" format="2">
  <advance width="2329"/>
  <unicode hex="09AB"/>
  <anchor x="1540" y="-4" name="bottom1"/>
  <anchor x="1105" y="1398" name="top"/>
  <anchor x="823" y="1791" name="top2"/>
  <outline>
    <contour>
      <point x="-57" y="984" type="line"/>
      <point x="2383" y="984" type="line"/>
      <point x="2363" y="1248" type="line"/>
      <point x="-77" y="1248" type="line"/>
    </contour>
    <contour>
      <point x="1226" y="-4" type="line"/>
      <point x="1540" y="-4" type="line"/>
      <point x="1540" y="853" type="line"/>
      <point x="1176" y="853" type="line"/>
      <point x="1176" y="438" type="line"/>
      <point x="1192" y="201" type="line"/>
      <point x="1207" y="271" type="line"/>
      <point x="464" y="383" type="line"/>
      <point x="526" y="311" type="line"/>
      <point x="526" y="486" type="line"/>
      <point x="464" y="395" type="line"/>
      <point x="952" y="494" type="line"/>
      <point x="952" y="794" type="line"/>
      <point x="719" y="902"/>
      <point x="464" y="1002"/>
      <point x="212" y="1088" type="curve"/>
      <point x="94" y="1070" type="line"/>
      <point x="94" y="784" type="line"/>
      <point x="632" y="683" type="line"/>
      <point x="632" y="659" type="line"/>
      <point x="167" y="579" type="line"/>
      <point x="167" y="156" type="line"/>
    </contour>
    <contour>
      <point x="1644" y="466" type="curve"/>
      <point x="1671" y="190" type="line"/>
      <point x="1712" y="188"/>
      <point x="1751" y="186"/>
      <point x="1790" y="186" type="curve" smooth="yes"/>
      <point x="2124" y="186"/>
      <point x="2268" y="289"/>
      <point x="2268" y="521" type="curve" smooth="yes"/>
      <point x="2268" y="522" type="line" smooth="yes"/>
      <point x="2268" y="736"/>
      <point x="2091" y="853"/>
      <point x="1755" y="853" type="curve" smooth="yes"/>
      <point x="1351" y="853" type="line"/>
      <point x="1351" y="585" type="line"/>
      <point x="1763" y="585" type="line" smooth="yes"/>
      <point x="1860" y="585"/>
      <point x="1903" y="565"/>
      <point x="1903" y="521" type="curve" smooth="yes"/>
      <point x="1903" y="520" type="line" smooth="yes"/>
      <point x="1903" y="474"/>
      <point x="1866" y="458"/>
      <point x="1779" y="458" type="curve" smooth="yes"/>
      <point x="1735" y="458"/>
      <point x="1689" y="461"/>
    </contour>
  </outline>
</glyph>
<glyph name="Ma.bn" format="2">
  <advance width="1645"/>
  <unicode hex="09AE"/>
  <anchor x="1497" y="200" name="bottom1"/>
  <anchor x="1082" y="1398" name="top"/>
  <anchor x="821" y="1791" name="top2"/>
  <outline>
    <contour>
      <point x="643" y="34" type="curve" smooth="yes"/>
      <point x="704" y="34"/>
      <point x="771" y="39"/>
      <point x="835" y="53" type="curve"/>
      <point x="857" y="328" type="line"/>
      <point x="784" y="315"/>
      <point x="727" y="310"/>
      <point x="661" y="310" type="curve" smooth="yes"/>
      <point x="545" y="310"/>
      <point x="488" y="336"/>
      <point x="488" y="390" type="curve" smooth="yes"/>
      <point x="488" y="392" type="line" smooth="yes"/>
      <point x="488" y="451"/>
      <point x="547" y="480"/>
      <point x="724" y="480" type="curve" smooth="yes"/>
      <point x="908" y="480"/>
      <point x="1073" y="417"/>
      <point x="1127" y="290" type="curve"/>
      <point x="1172" y="547" type="line"/>
      <point x="1122" y="547" type="line"/>
      <point x="1076" y="681"/>
      <point x="908" y="760"/>
      <point x="694" y="760" type="curve" smooth="yes"/>
      <point x="309" y="760"/>
      <point x="114" y="634"/>
      <point x="114" y="399" type="curve" smooth="yes"/>
      <point x="114" y="394" type="line" smooth="yes"/>
      <point x="114" y="150"/>
      <point x="285" y="34"/>
    </contour>
    <contour>
      <point x="337" y="637" type="line"/>
      <point x="671" y="733" type="line"/>
      <point x="590" y="770"/>
      <point x="554" y="824"/>
      <point x="554" y="907" type="curve" smooth="yes"/>
      <point x="554" y="1048" type="line"/>
      <point x="118" y="1048" type="line"/>
      <point x="118" y="946" type="line" smooth="yes"/>
      <point x="118" y="842"/>
      <point x="187" y="726"/>
      <point x="337" y="717" type="curve"/>
    </contour>
    <contour>
      <point x="1127" y="0" type="line"/>
      <point x="1497" y="0" type="line"/>
      <point x="1497" y="1007" type="line"/>
      <point x="1127" y="1007" type="line"/>
      <point x="1127" y="780" type="line"/>
      <point x="1136" y="527" type="line"/>
      <point x="1127" y="452" type="line"/>
    </contour>
    <contour>
      <point x="-113" y="984" type="line"/>
      <point x="1497" y="984" type="line"/>
      <point x="1497" y="1248" type="line"/>
      <point x="-132" y="1248" type="line"/>
    </contour>
    <contour>
      <point x="1370" y="1121" type="line"/>
      <point x="1370" y="712" type="line"/>
      <point x="1497" y="712" type="line"/>
      <point x="1497" y="1121" type="line"/>
    </contour>
    <contour>
      <point x="1370" y="984" type="line"/>
      <point x="1682" y="984" type="line"/>
      <point x="1662" y="1248" type="line"/>
      <point x="1370" y="1248" type="line"/>
    </contour>
  </outline>
</glyph>
<glyph name="Ya.bn" format="2">
	<advance width="1693"/>
	<unicode hex="09AF"/>
	<anchor x="1545" y="-4" name="bottom1"/>
	<anchor x="1130" y="1398" name="top"/>
	<anchor x="869" y="1791" name="top2"/>
	<note>
		Ya.bn
	</note>
	<outline>
		<contour>
			<point x="1226" y="-4" type="line"/>
			<point x="1545" y="-4" type="line"/>
			<point x="1545" y="1153" type="line"/>
			<point x="1176" y="1153" type="line"/>
			<point x="1176" y="438" type="line"/>
			<point x="1192" y="201" type="line"/>
			<point x="1207" y="271" type="line"/>
			<point x="464" y="383" type="line"/>
			<point x="526" y="311" type="line"/>
			<point x="526" y="486" type="line"/>
			<point x="464" y="395" type="line"/>
			<point x="952" y="494" type="line"/>
			<point x="952" y="794" type="line"/>
			<point x="719" y="902"/>
			<point x="464" y="1002"/>
			<point x="212" y="1088" type="curve"/>
			<point x="94" y="1070" type="line"/>
			<point x="94" y="784" type="line"/>
			<point x="632" y="683" type="line"/>
			<point x="632" y="659" type="line"/>
			<point x="167" y="579" type="line"/>
			<point x="167" y="156" type="line"/>
		</contour>
		<contour>
			<point x="-57" y="984" type="line"/>
			<point x="1427" y="984" type="line"/>
			<point x="1427" y="1248" type="line"/>
			<point x="-77" y="1248" type="line"/>
		</contour>
		<contour>
			<point x="1418" y="1121" type="line"/>
			<point x="1418" y="712" type="line"/>
			<point x="1545" y="712" type="line"/>
			<point x="1545" y="1121" type="line"/>
		</contour>
		<contour>
			<point x="1418" y="984" type="line"/>
			<point x="1730" y="984" type="line"/>
			<point x="1710" y="1248" type="line"/>
			<point x="1418" y="1248" type="line"/>
		</contour>
	</outline>
</glyph>
<glyph name="Ra.bn" format="2">
  <advance width="1575"/>
  <unicode hex="09B0"/>
  <anchor x="1427" y="-4" name="bottom1"/>
  <anchor x="1012" y="1398" name="top"/>
  <anchor x="751" y="1791" name="top2"/>
  <outline>
    <contour>
      <point x="-17" y="984" type="line"/>
      <point x="1427" y="984" type="line"/>
      <point x="1427" y="1248" type="line"/>
      <point x="-36" y="1248" type="line"/>
    </contour>
    <contour>
      <point x="1108" y="-4" type="line"/>
      <point x="1427" y="-4" type="line"/>
      <point x="1427" y="1016" type="line"/>
      <point x="1057" y="1016" type="line"/>
      <point x="1057" y="844" type="line"/>
      <point x="1057" y="767" type="line"/>
      <point x="1057" y="438" type="line"/>
      <point x="1076" y="201" type="line"/>
      <point x="1096" y="284" type="line"/>
      <point x="315" y="489" type="line"/>
      <point x="484" y="337" type="line"/>
      <point x="484" y="614" type="line"/>
      <point x="315" y="488" type="line"/>
      <point x="627" y="577"/>
      <point x="1012" y="634"/>
      <point x="1333" y="666" type="curve"/>
      <point x="1324" y="965" type="line"/>
      <point x="920" y="918"/>
      <point x="517" y="848"/>
      <point x="113" y="738" type="curve"/>
      <point x="113" y="257" type="line"/>
    </contour>
    <contour>
      <point x="1300" y="1121" type="line"/>
      <point x="1300" y="712" type="line"/>
      <point x="1427" y="712" type="line"/>
      <point x="1427" y="1121" type="line"/>
    </contour>
    <contour>
      <point x="1300" y="984" type="line"/>
      <point x="1612" y="984" type="line"/>
      <point x="1592" y="1248" type="line"/>
      <point x="1300" y="1248" type="line"/>
    </contour>
    <contour>
      <point x="574" y="-321" type="curve" smooth="yes"/>
      <point x="702" y="-321"/>
      <point x="773" y="-253"/>
      <point x="773" y="-146" type="curve" smooth="yes"/>
      <point x="773" y="-139" type="line" smooth="yes"/>
      <point x="773" y="-34"/>
      <point x="703" y="36"/>
      <point x="574" y="36" type="curve" smooth="yes"/>
      <point x="444" y="36"/>
      <point x="372" y="-32"/>
      <point x="372" y="-139" type="curve" smooth="yes"/>
      <point x="372" y="-146" type="line" smooth="yes"/>
      <point x="372" y="-253"/>
      <point x="444" y="-321"/>
    </contour>
  </outline>
</glyph>
<glyph name="Sha.bn" format="2">
	<advance width="2036"/>
	<unicode hex="09B6"/>
	<anchor x="1888" y="200" name="bottom1"/>
	<anchor x="1473" y="1398" name="top"/>
	<anchor x="1212" y="1791" name="top2"/>
	<outline>
		<contour>
			<point x="1518" y="0" type="line"/>
			<point x="1888" y="0" type="line"/>
			<point x="1888" y="1248" type="line"/>
			<point x="1537" y="1248" type="line"/>
			<point x="1537" y="885" type="line"/>
			<point x="1518" y="885" type="line"/>
		</contour>
		<contour>
			<point x="712" y="622" type="curve"/>
			<point x="720" y="622" type="line"/>
			<point x="798" y="473"/>
			<point x="935" y="407"/>
			<point x="1162" y="407" type="curve" smooth="yes"/>
			<point x="1228" y="407"/>
			<point x="1281" y="411"/>
			<point x="1323" y="419" type="curve"/>
			<point x="1346" y="724" type="line"/>
			<point x="1293" y="715"/>
			<point x="1240" y="710"/>
			<point x="1185" y="710" type="curve" smooth="yes"/>
			<point x="1047" y="710"/>
			<point x="979" y="756"/>
			<point x="979" y="849" type="curve" smooth="yes"/>
			<point x="979" y="854" type="line" smooth="yes"/>
			<point x="979" y="943"/>
			<point x="1046" y="986"/>
			<point x="1184" y="986" type="curve" smooth="yes"/>
			<point x="1374" y="986"/>
			<point x="1491" y="888"/>
			<point x="1540" y="687" type="curve"/>
			<point x="1673" y="1044" type="line"/>
			<point x="1525" y="1044" type="line"/>
			<point x="1464" y="1206"/>
			<point x="1335" y="1285"/>
			<point x="1132" y="1285" type="curve" smooth="yes"/>
			<point x="907" y="1285"/>
			<point x="770" y="1204"/>
			<point x="718" y="1041" type="curve"/>
			<point x="710" y="1041" type="line"/>
			<point x="653" y="1188"/>
			<point x="501" y="1248"/>
			<point x="283" y="1248" type="curve" smooth="yes"/>
			<point x="-108" y="1248" type="line"/>
			<point x="-88" y="984" type="line"/>
			<point x="285" y="984" type="line" smooth="yes"/>
			<point x="408" y="984"/>
			<point x="468" y="941"/>
			<point x="468" y="854" type="curve" smooth="yes"/>
			<point x="468" y="849" type="line" smooth="yes"/>
			<point x="468" y="756"/>
			<point x="401" y="710"/>
			<point x="265" y="710" type="curve" smooth="yes"/>
			<point x="201" y="710"/>
			<point x="142" y="715"/>
			<point x="85" y="724" type="curve"/>
			<point x="107" y="419" type="line"/>
			<point x="153" y="411"/>
			<point x="211" y="407"/>
			<point x="286" y="407" type="curve" smooth="yes"/>
			<point x="518" y="407"/>
			<point x="659" y="473"/>
		</contour>
		<contour>
			<point x="1761" y="1121" type="line"/>
			<point x="1761" y="712" type="line"/>
			<point x="1888" y="712" type="line"/>
			<point x="1888" y="1121" type="line"/>
		</contour>
		<contour>
			<point x="1761" y="984" type="line"/>
			<point x="2073" y="984" type="line"/>
			<point x="2053" y="1248" type="line"/>
			<point x="1761" y="1248" type="line"/>
		</contour>
	</outline>
</glyph>
<glyph name="Ssa.bn" format="2">
  <advance width="1693"/>
  <unicode hex="09B7"/>
  <anchor x="1545" y="-4" name="bottom1"/>
  <anchor x="1130" y="1398" name="top"/>
  <anchor x="869" y="1791" name="top2"/>
  <outline>
    <contour>
      <point x="1418" y="1121" type="line"/>
      <point x="1418" y="712" type="line"/>
      <point x="1545" y="712" type="line"/>
      <point x="1545" y="1121" type="line"/>
    </contour>
    <contour>
      <point x="1418" y="984" type="line"/>
      <point x="1730" y="984" type="line"/>
      <point x="1710" y="1248" type="line"/>
      <point x="1418" y="1248" type="line"/>
    </contour>
    <contour>
      <point x="1226" y="-4" type="line"/>
      <point x="1545" y="-4" type="line"/>
      <point x="1545" y="1153" type="line"/>
      <point x="1176" y="1153" type="line"/>
      <point x="1176" y="438" type="line"/>
      <point x="1192" y="201" type="line"/>
      <point x="1207" y="271" type="line"/>
      <point x="464" y="383" type="line"/>
      <point x="526" y="311" type="line"/>
      <point x="526" y="486" type="line"/>
      <point x="466" y="399" type="line"/>
      <point x="1007" y="541" type="line"/>
      <point x="952" y="606" type="line"/>
      <point x="820" y="571" type="line"/>
      <point x="1297" y="433" type="line"/>
      <point x="1317" y="690" type="line"/>
      <point x="921" y="825" type="line"/>
      <point x="664" y="926"/>
      <point x="370" y="1039"/>
      <point x="213" y="1088" type="curve"/>
      <point x="94" y="1070" type="line"/>
      <point x="94" y="785" type="line"/>
      <point x="607" y="692" type="line"/>
      <point x="607" y="673" type="line"/>
      <point x="167" y="579" type="line"/>
      <point x="167" y="156" type="line"/>
    </contour>
    <contour>
      <point x="-57" y="984" type="line"/>
      <point x="1545" y="984" type="line"/>
      <point x="1545" y="1248" type="line"/>
      <point x="-77" y="1248" type="line"/>
    </contour>
  </outline>
</glyph>
<glyph name="Ha.bn" format="2">
	<advance width="1469"/>
	<unicode hex="09B9"/>
	<anchor x="1106" y="96" name="bottom1"/>
	<anchor x="428" y="1405" name="top"/>
	<anchor x="261" y="1800" name="top2"/>
	<note>
		Ha.bn
	</note>
	<outline>
		<contour>
			<point x="1433" y="-213" type="line"/>
			<point x="1458" y="102" type="line"/>
			<point x="1167" y="158" type="line"/>
			<point x="957" y="198" type="line"/>
			<point x="965" y="285" type="line"/>
			<point x="745" y="248" type="line"/>
			<point x="796" y="221"/>
			<point x="864" y="209"/>
			<point x="924" y="209" type="curve" smooth="yes"/>
			<point x="1218" y="209"/>
			<point x="1368" y="328"/>
			<point x="1368" y="562" type="curve" smooth="yes"/>
			<point x="1368" y="567" type="line" smooth="yes"/>
			<point x="1368" y="851"/>
			<point x="1137" y="998"/>
			<point x="755" y="998" type="curve" smooth="yes"/>
			<point x="348" y="998"/>
			<point x="134" y="861"/>
			<point x="134" y="599" type="curve" smooth="yes"/>
			<point x="134" y="585"/>
			<point x="136" y="569"/>
			<point x="139" y="555" type="curve"/>
			<point x="518" y="555" type="line"/>
			<point x="515" y="568"/>
			<point x="513" y="581"/>
			<point x="513" y="591" type="curve" smooth="yes"/>
			<point x="513" y="687"/>
			<point x="599" y="731"/>
			<point x="752" y="731" type="curve" smooth="yes"/>
			<point x="910" y="731"/>
			<point x="990" y="676"/>
			<point x="990" y="570" type="curve" smooth="yes"/>
			<point x="990" y="565" type="line" smooth="yes"/>
			<point x="990" y="431"/>
			<point x="874" y="379"/>
			<point x="608" y="379" type="curve" smooth="yes"/>
			<point x="464" y="379"/>
			<point x="317" y="391"/>
			<point x="162" y="417" type="curve" smooth="yes"/>
			<point x="120" y="424" type="line"/>
			<point x="105" y="121" type="line"/>
		</contour>
		<contour>
			<point x="-27" y="984" type="line"/>
			<point x="1511" y="984" type="line"/>
			<point x="1491" y="1248" type="line"/>
			<point x="-47" y="1248" type="line"/>
		</contour>
	</outline>
</glyph>
<glyph name="Nukta.bn" format="2">
	<advance width="0"/>
	<unicode hex="09BC"/>
	<outline>
		<contour>
			<point x="-369" y="-431" type="curve" smooth="yes"/>
			<point x="-235" y="-431"/>
			<point x="-161" y="-360"/>
			<point x="-161" y="-249" type="curve" smooth="yes"/>
			<point x="-161" y="-242" type="line" smooth="yes"/>
			<point x="-161" y="-132"/>
			<point x="-234" y="-59"/>
			<point x="-369" y="-59" type="curve" smooth="yes"/>
			<point x="-504" y="-59"/>
			<point x="-579" y="-130"/>
			<point x="-579" y="-242" type="curve" smooth="yes"/>
			<point x="-579" y="-249" type="line" smooth="yes"/>
			<point x="-579" y="-360"/>
			<point x="-504" y="-431"/>
		</contour>
	</outline>
</glyph>
<glyph name="Avagraha.bn" format="2">
	<advance width="1482"/>
	<unicode hex="09BD"/>
	<outline>
		<contour>
			<point x="303" y="866" type="curve" smooth="yes"/>
			<point x="303" y="831" type="line"/>
			<point x="630" y="831" type="line"/>
			<point x="630" y="876" type="line" smooth="yes"/>
			<point x="630" y="1126"/>
			<point x="475" y="1248"/>
			<point x="157" y="1248" type="curve" smooth="yes"/>
			<point x="-47" y="1248" type="line"/>
			<point x="-27" y="984" type="line"/>
			<point x="159" y="984" type="line" smooth="yes"/>
			<point x="256" y="984"/>
			<point x="303" y="945"/>
		</contour>
		<contour>
			<point x="1436" y="-213" type="line"/>
			<point x="1461" y="102" type="line"/>
			<point x="1170" y="158" type="line"/>
			<point x="960" y="198" type="line"/>
			<point x="968" y="285" type="line"/>
			<point x="748" y="248" type="line"/>
			<point x="799" y="221"/>
			<point x="867" y="209"/>
			<point x="927" y="209" type="curve" smooth="yes"/>
			<point x="1221" y="209"/>
			<point x="1371" y="331"/>
			<point x="1371" y="572" type="curve" smooth="yes"/>
			<point x="1371" y="577" type="line" smooth="yes"/>
			<point x="1371" y="880"/>
			<point x="1140" y="1037"/>
			<point x="758" y="1037" type="curve" smooth="yes"/>
			<point x="351" y="1037"/>
			<point x="137" y="887"/>
			<point x="137" y="599" type="curve" smooth="yes"/>
			<point x="137" y="585"/>
			<point x="139" y="569"/>
			<point x="142" y="555" type="curve"/>
			<point x="521" y="555" type="line"/>
			<point x="518" y="568"/>
			<point x="516" y="581"/>
			<point x="516" y="591" type="curve" smooth="yes"/>
			<point x="516" y="687"/>
			<point x="602" y="731"/>
			<point x="755" y="731" type="curve" smooth="yes"/>
			<point x="913" y="731"/>
			<point x="993" y="676"/>
			<point x="993" y="570" type="curve" smooth="yes"/>
			<point x="993" y="565" type="line" smooth="yes"/>
			<point x="993" y="431"/>
			<point x="877" y="379"/>
			<point x="611" y="379" type="curve" smooth="yes"/>
			<point x="467" y="379"/>
			<point x="320" y="391"/>
			<point x="165" y="417" type="curve" smooth="yes"/>
			<point x="123" y="424" type="line"/>
			<point x="108" y="121" type="line"/>
		</contour>
	</outline>
</glyph>
<glyph name="SignAa.bn" format="2">
  <advance width="675"/>
  <unicode hex="09BE"/>
  <anchor x="112" y="1398" name="top"/>
  <anchor x="-149" y="1791" name="top2"/>
  <outline>
    <contour>
      <point x="157" y="0" type="line"/>
      <point x="527" y="0" type="line"/>
      <point x="527" y="1015" type="line"/>
      <point x="157" y="1015" type="line"/>
    </contour>
    <contour>
      <point x="-8" y="984" type="line"/>
      <point x="500" y="984" type="line"/>
      <point x="500" y="1248" type="line"/>
      <point x="-28" y="1248" type="line"/>
    </contour>
    <contour>
      <point x="400" y="1121" type="line"/>
      <point x="400" y="712" type="line"/>
      <point x="527" y="712" type="line"/>
      <point x="527" y="1121" type="line"/>
    </contour>
    <contour>
      <point x="400" y="984" type="line"/>
      <point x="712" y="984" type="line"/>
      <point x="692" y="1248" type="line"/>
      <point x="400" y="1248" type="line"/>
    </contour>
  </outline>
</glyph>
<glyph name="SignIi.bn" format="2">
	<advance width="675"/>
	<unicode hex="09C0"/>
	<anchor x="112" y="1398" name="top"/>
	<anchor x="577" y="1500" name="top2"/>
	<outline>
		<contour>
			<point x="-702" y="1309" type="curve" smooth="yes"/>
			<point x="-159" y="1309" type="line"/>
			<point x="-179" y="1541" type="line"/>
			<point x="-702" y="1541" type="line" smooth="yes"/>
			<point x="-776" y="1541"/>
			<point x="-806" y="1560"/>
			<point x="-806" y="1599" type="curve" smooth="yes"/>
			<point x="-806" y="1645"/>
			<point x="-742" y="1680"/>
			<point x="-564" y="1680" type="curve" smooth="yes"/>
			<point x="-33" y="1680"/>
			<point x="162" y="1476"/>
			<point x="162" y="1141" type="curve" smooth="yes"/>
			<point x="162" y="867" type="line"/>
			<point x="521" y="867" type="line"/>
			<point x="521" y="1141" type="line" smooth="yes"/>
			<point x="521" y="1618"/>
			<point x="130" y="1957"/>
			<point x="-581" y="1957" type="curve" smooth="yes"/>
			<point x="-948" y="1957"/>
			<point x="-1155" y="1818"/>
			<point x="-1155" y="1602" type="curve" smooth="yes"/>
			<point x="-1155" y="1386"/>
			<point x="-987" y="1309"/>
		</contour>
		<contour>
			<point x="157" y="0" type="line"/>
			<point x="527" y="0" type="line"/>
			<point x="527" y="1015" type="line"/>
			<point x="157" y="1015" type="line"/>
		</contour>
		<contour>
			<point x="-8" y="984" type="line"/>
			<point x="500" y="984" type="line"/>
			<point x="500" y="1248" type="line"/>
			<point x="-28" y="1248" type="line"/>
		</contour>
		<contour>
			<point x="400" y="1121" type="line"/>
			<point x="400" y="712" type="line"/>
			<point x="527" y="712" type="line"/>
			<point x="527" y="1121" type="line"/>
		</contour>
		<contour>
			<point x="400" y="984" type="line"/>
			<point x="712" y="984" type="line"/>
			<point x="692" y="1248" type="line"/>
			<point x="400" y="1248" type="line"/>
		</contour>
	</outline>
</glyph>
<glyph name="SignUu.bn" format="2">
	<advance width="0"/>
	<unicode hex="09C2"/>
	<anchor x="532" y="0" name="_bottom1"/>
	<outline>
		<contour>
			<point x="532" y="-344" type="line"/>
			<point x="532" y="21" type="line"/>
			<point x="186" y="21" type="line"/>
			<point x="186" y="-240" type="line"/>
		</contour>
		<contour>
			<point x="969" y="-852" type="line"/>
			<point x="989" y="-571" type="line"/>
			<point x="515" y="-402" type="line"/>
			<point x="405" y="-451"/>
			<point x="289" y="-475"/>
			<point x="161" y="-475" type="curve" smooth="yes"/>
			<point x="25" y="-475"/>
			<point x="-32" y="-459"/>
			<point x="-32" y="-415" type="curve" smooth="yes"/>
			<point x="-32" y="-367"/>
			<point x="7" y="-344"/>
			<point x="129" y="-344" type="curve" smooth="yes"/>
			<point x="199" y="-344"/>
			<point x="482" y="-344"/>
			<point x="532" y="-344" type="curve"/>
			<point x="373" y="-132" type="line"/>
			<point x="313" y="-102"/>
			<point x="159" y="-90"/>
			<point x="89" y="-90" type="curve" smooth="yes"/>
			<point x="-227" y="-90"/>
			<point x="-404" y="-191"/>
			<point x="-404" y="-400" type="curve" smooth="yes"/>
			<point x="-404" y="-622"/>
			<point x="-200" y="-734"/>
			<point x="165" y="-734" type="curve" smooth="yes"/>
			<point x="331" y="-734"/>
			<point x="475" y="-692"/>
			<point x="612" y="-607" type="curve"/>
			<point x="371" y="-594" type="line"/>
		</contour>
	</outline>
</glyph>
<glyph name="SignRu.bn" format="2">
	<advance width="0"/>
	<unicode hex="09C3"/>
	<anchor x="-145" y="0" name="_bottom1"/>
	<outline>
		<contour>
			<point x="-144" y="-290" type="line"/>
			<point x="-145" y="21" type="line"/>
			<point x="-491" y="21" type="line"/>
			<point x="-491" y="-150" type="line"/>
		</contour>
		<contour>
			<point x="-20" y="-810" type="line"/>
			<point x="0" y="-527" type="line"/>
			<point x="-582" y="-395" type="line"/>
			<point x="-582" y="-387" type="line"/>
			<point x="-458" y="-357"/>
			<point x="-274" y="-317"/>
			<point x="-144" y="-290" type="curve"/>
			<point x="-350" y="-41" type="line"/>
			<point x="-601" y="-96"/>
			<point x="-887" y="-178"/>
			<point x="-1051" y="-233" type="curve"/>
			<point x="-1051" y="-527" type="line"/>
		</contour>
	</outline>
</glyph>
<glyph name="SignRuu.bn" format="2">
	<advance width="0"/>
	<unicode hex="09C4"/>
	<anchor x="-145" y="178" name="_bottom1"/>
	<outline>
		<contour>
			<point x="-196" y="-713" type="curve"/>
			<point x="-572" y="-525" type="line"/>
			<point x="-756" y="-569"/>
			<point x="-934" y="-619"/>
			<point x="-1051" y="-655" type="curve"/>
			<point x="-1051" y="-949" type="line"/>
			<point x="-20" y="-1232" type="line"/>
			<point x="0" y="-949" type="line"/>
			<point x="-582" y="-817" type="line"/>
			<point x="-582" y="-809" type="line"/>
			<point x="-474" y="-780"/>
			<point x="-320" y="-742"/>
		</contour>
		<contour>
			<point x="-144" y="-290" type="line"/>
			<point x="-145" y="21" type="line"/>
			<point x="-491" y="21" type="line"/>
			<point x="-491" y="-150" type="line"/>
		</contour>
		<contour>
			<point x="-20" y="-810" type="line"/>
			<point x="0" y="-527" type="line"/>
			<point x="-582" y="-395" type="line"/>
			<point x="-582" y="-387" type="line"/>
			<point x="-458" y="-357"/>
			<point x="-274" y="-317"/>
			<point x="-144" y="-290" type="curve"/>
			<point x="-350" y="-41" type="line"/>
			<point x="-601" y="-96"/>
			<point x="-887" y="-178"/>
			<point x="-1051" y="-233" type="curve"/>
			<point x="-1051" y="-527" type="line"/>
		</contour>
	</outline>
</glyph>
<glyph name="SignE.bn" format="2">
	<advance width="829"/>
	<unicode hex="09C7"/>
	<outline>
		<contour>
			<point x="854" y="988" type="curve"/>
			<point x="666" y="1164" type="line"/>
			<point x="285" y="1065"/>
			<point x="98" y="860"/>
			<point x="98" y="542" type="curve" smooth="yes"/>
			<point x="98" y="537" type="line" smooth="yes"/>
			<point x="98" y="192"/>
			<point x="346" y="-42"/>
			<point x="728" y="-57" type="curve" smooth="yes"/>
			<point x="774" y="-59" type="line"/>
			<point x="825" y="236" type="line"/>
			<point x="783" y="239" type="line" smooth="yes"/>
			<point x="573" y="254"/>
			<point x="470" y="361"/>
			<point x="470" y="565" type="curve" smooth="yes"/>
			<point x="470" y="571" type="line" smooth="yes"/>
			<point x="470" y="770"/>
			<point x="596" y="938"/>
		</contour>
		<contour>
			<point x="-90" y="984" type="line"/>
			<point x="958" y="984" type="line"/>
			<point x="940" y="1248" type="line"/>
			<point x="-110" y="1248" type="line"/>
		</contour>
	</outline>
</glyph>
<glyph name="SignAi.bn" format="2">
	<advance width="859"/>
	<unicode hex="09C8"/>
	<guideline x="-3884" y="1496" angle="90"/>
	<guideline x="-4413" y="1541" angle="90"/>
	<guideline x="-3336" y="1496" angle="90"/>
	<guideline x="3909" y="1298" angle="90"/>
	<anchor x="345" y="1500" name="top"/>
	<anchor x="699" y="1528" name="top2"/>
	<outline>
		<contour>
			<point x="884" y="988" type="curve"/>
			<point x="696" y="1164" type="line"/>
			<point x="315" y="1065"/>
			<point x="128" y="860"/>
			<point x="128" y="542" type="curve" smooth="yes"/>
			<point x="128" y="537" type="line" smooth="yes"/>
			<point x="128" y="192"/>
			<point x="376" y="-42"/>
			<point x="758" y="-57" type="curve" smooth="yes"/>
			<point x="804" y="-59" type="line"/>
			<point x="855" y="236" type="line"/>
			<point x="813" y="239" type="line" smooth="yes"/>
			<point x="603" y="254"/>
			<point x="500" y="361"/>
			<point x="500" y="565" type="curve" smooth="yes"/>
			<point x="500" y="571" type="line" smooth="yes"/>
			<point x="500" y="770"/>
			<point x="626" y="938"/>
		</contour>
		<contour>
			<point x="-60" y="984" type="line"/>
			<point x="988" y="984" type="line"/>
			<point x="970" y="1248" type="line"/>
			<point x="-80" y="1248" type="line"/>
		</contour>
		<contour>
			<point x="946" y="1331" type="line"/>
			<point x="946" y="1334"/>
			<point x="946" y="1336"/>
			<point x="946" y="1339" type="curve" smooth="yes"/>
			<point x="946" y="1544"/>
			<point x="798" y="1667"/>
			<point x="539" y="1667" type="curve" smooth="yes"/>
			<point x="312" y="1667" type="line" smooth="yes"/>
			<point x="202" y="1667"/>
			<point x="166" y="1689"/>
			<point x="157" y="1767" type="curve" smooth="yes"/>
			<point x="154" y="1793" type="line"/>
			<point x="-173" y="1793" type="line"/>
			<point x="-173" y="1766" type="line" smooth="yes"/>
			<point x="-173" y="1509"/>
			<point x="-22" y="1398"/>
			<point x="330" y="1398" type="curve" smooth="yes"/>
			<point x="481" y="1398" type="line" smooth="yes"/>
			<point x="560" y="1398"/>
			<point x="592" y="1374"/>
			<point x="592" y="1317" type="curve" smooth="yes"/>
			<point x="592" y="1278"/>
			<point x="577" y="1250"/>
			<point x="545" y="1232" type="curve"/>
			<point x="627" y="1223" type="line"/>
		</contour>
	</outline>
</glyph>
<glyph name="SignO.bn" format="2">
  <advance width="1908"/>
  <unicode hex="09CB"/>
  <anchor x="1345" y="1398" name="top"/>
  <anchor x="1084" y="1791" name="top2"/>
  <outline>
    <contour>
      <point x="881" y="1248" type="line"/>
      <point x="881" y="985" type="line"/>
      <point x="1250" y="985" type="line"/>
      <point x="1250" y="1248" type="line"/>
    </contour>
    <contour>
      <point x="854" y="988" type="curve"/>
      <point x="666" y="1164" type="line"/>
      <point x="285" y="1065"/>
      <point x="98" y="860"/>
      <point x="98" y="542" type="curve" smooth="yes"/>
      <point x="98" y="537" type="line" smooth="yes"/>
      <point x="98" y="192"/>
      <point x="346" y="-42"/>
      <point x="728" y="-57" type="curve" smooth="yes"/>
      <point x="774" y="-59" type="line"/>
      <point x="825" y="236" type="line"/>
      <point x="783" y="239" type="line" smooth="yes"/>
      <point x="573" y="254"/>
      <point x="470" y="361"/>
      <point x="470" y="565" type="curve" smooth="yes"/>
      <point x="470" y="571" type="line" smooth="yes"/>
      <point x="470" y="770"/>
      <point x="596" y="938"/>
    </contour>
    <contour>
      <point x="-90" y="984" type="line"/>
      <point x="958" y="984" type="line"/>
      <point x="940" y="1248" type="line"/>
      <point x="-110" y="1248" type="line"/>
    </contour>
    <contour>
      <point x="1390" y="0" type="line"/>
      <point x="1760" y="0" type="line"/>
      <point x="1760" y="1015" type="line"/>
      <point x="1390" y="1015" type="line"/>
    </contour>
    <contour>
      <point x="1225" y="984" type="line"/>
      <point x="1733" y="984" type="line"/>
      <point x="1733" y="1248" type="line"/>
      <point x="1205" y="1248" type="line"/>
    </contour>
    <contour>
      <point x="1633" y="1121" type="line"/>
      <point x="1633" y="712" type="line"/>
      <point x="1760" y="712" type="line"/>
      <point x="1760" y="1121" type="line"/>
    </contour>
    <contour>
      <point x="1633" y="984" type="line"/>
      <point x="1945" y="984" type="line"/>
      <point x="1925" y="1248" type="line"/>
      <point x="1633" y="1248" type="line"/>
    </contour>
  </outline>
</glyph>
<glyph name="Hasant.bn" format="2">
  <unicode hex="09CD"/>
  <anchor x="-67" y="21" name="_bottom1"/>
  <outline>
    <contour>
      <point x="822" y="-422" type="line"/>
      <point x="15" y="-75" type="line"/>
      <point x="0" y="-365" type="line"/>
      <point x="807" y="-684" type="line"/>
    </contour>
  </outline>
</glyph>
<glyph name="KhandaTa.bn" format="2">
	<advance width="1472"/>
	<unicode hex="09CE"/>
	<anchor x="54" y="-10" name="mark0"/>
	<outline>
		<contour>
			<point x="1042" y="-10" type="curve"/>
			<point x="1412" y="-10" type="line"/>
			<point x="1419" y="28"/>
			<point x="1422" y="70"/>
			<point x="1422" y="117" type="curve" smooth="yes"/>
			<point x="1422" y="323"/>
			<point x="1232" y="460"/>
			<point x="845" y="548" type="curve" smooth="yes"/>
			<point x="681" y="585" type="line" smooth="yes"/>
			<point x="531" y="619"/>
			<point x="458" y="690"/>
			<point x="458" y="792" type="curve" smooth="yes"/>
			<point x="458" y="800" type="line" smooth="yes"/>
			<point x="458" y="928"/>
			<point x="546" y="991"/>
			<point x="706" y="991" type="curve" smooth="yes"/>
			<point x="850" y="991"/>
			<point x="920" y="955"/>
			<point x="920" y="894" type="curve" smooth="yes"/>
			<point x="920" y="892" type="line" smooth="yes"/>
			<point x="920" y="836"/>
			<point x="880" y="813"/>
			<point x="798" y="808" type="curve" smooth="yes"/>
			<point x="738" y="804" type="line"/>
			<point x="763" y="542" type="line"/>
			<point x="830" y="542" type="line" smooth="yes"/>
			<point x="1144" y="542"/>
			<point x="1298" y="661"/>
			<point x="1298" y="872" type="curve" smooth="yes"/>
			<point x="1298" y="874" type="line" smooth="yes"/>
			<point x="1298" y="1135"/>
			<point x="1096" y="1284"/>
			<point x="682" y="1284" type="curve" smooth="yes"/>
			<point x="288" y="1284"/>
			<point x="80" y="1127"/>
			<point x="80" y="813" type="curve" smooth="yes"/>
			<point x="80" y="802" type="line" smooth="yes"/>
			<point x="80" y="571"/>
			<point x="239" y="406"/>
			<point x="563" y="333" type="curve" smooth="yes"/>
			<point x="727" y="296" type="line" smooth="yes"/>
			<point x="943" y="247"/>
			<point x="1052" y="174"/>
			<point x="1052" y="79" type="curve" smooth="yes"/>
			<point x="1052" y="57"/>
			<point x="1049" y="28"/>
		</contour>
	</outline>
</glyph>
<glyph name="Rra.bn" format="2">
	<advance width="1821"/>
	<unicode hex="09DC"/>
	<anchor x="1232" y="178" name="bottom1"/>
	<anchor x="585" y="1398" name="top"/>
	<anchor x="383" y="1791" name="top2"/>
	<outline>
		<contour>
			<point x="446" y="757" type="curve" smooth="yes"/>
			<point x="440" y="821" type="line"/>
			<point x="71" y="821" type="line"/>
			<point x="76" y="740" type="line" smooth="yes"/>
			<point x="107" y="230"/>
			<point x="398" y="-10"/>
			<point x="954" y="-10" type="curve" smooth="yes"/>
			<point x="1467" y="-10"/>
			<point x="1744" y="173"/>
			<point x="1744" y="537" type="curve" smooth="yes"/>
			<point x="1744" y="632"/>
			<point x="1726" y="708"/>
			<point x="1701" y="796" type="curve"/>
			<point x="1377" y="849" type="line"/>
			<point x="1288" y="800" type="line" smooth="yes"/>
			<point x="1233" y="770"/>
			<point x="1174" y="745"/>
			<point x="1114" y="745" type="curve" smooth="yes"/>
			<point x="1040" y="745"/>
			<point x="1010" y="784"/>
			<point x="1010" y="864" type="curve" smooth="yes"/>
			<point x="1010" y="1157" type="line"/>
			<point x="638" y="1159" type="line"/>
			<point x="638" y="875" type="line" smooth="yes"/>
			<point x="638" y="595"/>
			<point x="759" y="458"/>
			<point x="1037" y="458" type="curve" smooth="yes"/>
			<point x="1139" y="458"/>
			<point x="1274" y="471"/>
			<point x="1382" y="534" type="curve" smooth="yes"/>
			<point x="1575" y="646" type="line"/>
			<point x="1366" y="653" type="line"/>
			<point x="1368" y="609"/>
			<point x="1370" y="573"/>
			<point x="1370" y="539" type="curve" smooth="yes"/>
			<point x="1370" y="361"/>
			<point x="1193" y="288"/>
			<point x="952" y="288" type="curve" smooth="yes"/>
			<point x="627" y="288"/>
			<point x="477" y="426"/>
		</contour>
		<contour>
			<point x="-57" y="984" type="line"/>
			<point x="1892" y="984" type="line"/>
			<point x="1872" y="1248" type="line"/>
			<point x="-77" y="1248" type="line"/>
		</contour>
		<contour>
			<point x="932" y="-491" type="curve" smooth="yes"/>
			<point x="1066" y="-491"/>
			<point x="1140" y="-420"/>
			<point x="1140" y="-309" type="curve" smooth="yes"/>
			<point x="1140" y="-302" type="line" smooth="yes"/>
			<point x="1140" y="-192"/>
			<point x="1067" y="-119"/>
			<point x="932" y="-119" type="curve" smooth="yes"/>
			<point x="797" y="-119"/>
			<point x="722" y="-190"/>
			<point x="722" y="-302" type="curve" smooth="yes"/>
			<point x="722" y="-309" type="line" smooth="yes"/>
			<point x="722" y="-420"/>
			<point x="797" y="-491"/>
		</contour>
	</outline>
</glyph>
<glyph name="VowelRuu.bn" format="2">
  <advance width="2231"/>
  <unicode hex="09E0"/>
  <anchor x="755" y="1791" name="top2"/>
  <outline>
    <contour>
      <point x="1254" y="-506" type="line"/>
      <point x="1274" y="-223" type="line"/>
      <point x="692" y="-91" type="line"/>
      <point x="692" y="-83" type="line"/>
      <point x="816" y="-53"/>
      <point x="1000" y="-13"/>
      <point x="1130" y="14" type="curve"/>
      <point x="924" y="263" type="line"/>
      <point x="673" y="208"/>
      <point x="387" y="126"/>
      <point x="223" y="71" type="curve"/>
      <point x="223" y="-223" type="line"/>
    </contour>
    <contour>
      <point x="1140" y="-4" type="line"/>
      <point x="1458" y="-4" type="line"/>
      <point x="1458" y="1248" type="line"/>
      <point x="1100" y="1248" type="line"/>
      <point x="1100" y="1070" type="line"/>
      <point x="1114" y="817" type="line"/>
      <point x="1088" y="726" type="line"/>
      <point x="1088" y="438" type="line"/>
      <point x="1108" y="201" type="line"/>
      <point x="1129" y="280" type="line"/>
      <point x="450" y="422" type="line"/>
      <point x="521" y="344" type="line"/>
      <point x="521" y="518" type="line"/>
      <point x="457" y="465" type="line"/>
      <point x="763" y="531"/>
      <point x="1074" y="587"/>
      <point x="1360" y="630" type="curve"/>
      <point x="1351" y="920" type="line"/>
      <point x="1212" y="899"/>
      <point x="1075" y="875"/>
      <point x="940" y="850" type="curve"/>
      <point x="902" y="852" type="line"/>
      <point x="641" y="803"/>
      <point x="389" y="749"/>
      <point x="153" y="692" type="curve"/>
      <point x="153" y="200" type="line"/>
    </contour>
    <contour>
      <point x="784" y="773" type="curve"/>
      <point x="1086" y="842" type="line"/>
      <point x="1018" y="980"/>
      <point x="939" y="1116"/>
      <point x="853" y="1242" type="curve"/>
      <point x="590" y="1267" type="line"/>
      <point x="526" y="1199" type="line" smooth="yes"/>
      <point x="472" y="1143"/>
      <point x="424" y="1121"/>
      <point x="360" y="1121" type="curve" smooth="yes"/>
      <point x="297" y="1121"/>
      <point x="262" y="1155"/>
      <point x="253" y="1225" type="curve" smooth="yes"/>
      <point x="250" y="1248" type="line"/>
      <point x="-102" y="1248" type="line"/>
      <point x="-102" y="1235" type="line" smooth="yes"/>
      <point x="-102" y="990"/>
      <point x="55" y="840"/>
      <point x="339" y="840" type="curve" smooth="yes"/>
      <point x="481" y="840"/>
      <point x="598" y="881"/>
      <point x="694" y="966" type="curve" smooth="yes"/>
      <point x="779" y="1036" type="line"/>
      <point x="596" y="1082" type="line"/>
      <point x="669" y="983"/>
      <point x="729" y="885"/>
    </contour>
    <contour>
      <point x="1765" y="117" type="line"/>
      <point x="2071" y="117" type="line"/>
      <point x="2071" y="1248" type="line"/>
      <point x="1713" y="1248" type="line"/>
      <point x="1713" y="557" type="line"/>
      <point x="1730" y="320" type="line"/>
      <point x="1754" y="405" type="line"/>
      <point x="1230" y="544" type="line"/>
      <point x="1230" y="251" type="line"/>
    </contour>
  </outline>
</glyph>
<glyph name="VowelLruu.bn" format="2">
  <advance width="1847"/>
  <unicode hex="09E1"/>
  <anchor x="743" y="1629" name="top2"/>
  <outline>
    <contour>
      <point x="1189" y="278" type="curve"/>
      <point x="1103" y="19" type="line"/>
      <point x="1351" y="-2"/>
      <point x="1414" y="-89"/>
      <point x="1414" y="-192" type="curve" smooth="yes"/>
      <point x="1414" y="-204" type="line" smooth="yes"/>
      <point x="1414" y="-295"/>
      <point x="1334" y="-359"/>
      <point x="1212" y="-359" type="curve" smooth="yes"/>
      <point x="1019" y="-359" type="line"/>
      <point x="1250" y="-553" type="line"/>
      <point x="1250" y="-473" type="line" smooth="yes"/>
      <point x="1250" y="-206"/>
      <point x="1098" y="-64"/>
      <point x="824" y="-65" type="curve" smooth="yes"/>
      <point x="509" y="-66"/>
      <point x="381" y="-228"/>
      <point x="381" y="-495" type="curve" smooth="yes"/>
      <point x="381" y="-537" type="line" smooth="yes"/>
      <point x="381" y="-568"/>
      <point x="381" y="-600"/>
      <point x="381" y="-629" type="curve"/>
      <point x="709" y="-629" type="line"/>
      <point x="709" y="-587"/>
      <point x="709" y="-545"/>
      <point x="709" y="-501" type="curve" smooth="yes"/>
      <point x="709" y="-487" type="line" smooth="yes"/>
      <point x="709" y="-395"/>
      <point x="765" y="-352"/>
      <point x="843" y="-352" type="curve" smooth="yes"/>
      <point x="934" y="-352"/>
      <point x="977" y="-402"/>
      <point x="977" y="-487" type="curve" smooth="yes"/>
      <point x="977" y="-629" type="line"/>
      <point x="1202" y="-629" type="line" smooth="yes"/>
      <point x="1546" y="-629"/>
      <point x="1776" y="-470"/>
      <point x="1776" y="-213" type="curve" smooth="yes"/>
      <point x="1776" y="-199" type="line" smooth="yes"/>
      <point x="1776" y="82"/>
      <point x="1567" y="201"/>
    </contour>
    <contour>
      <point x="106" y="0" type="curve"/>
      <point x="472" y="0" type="line"/>
      <point x="472" y="59"/>
      <point x="472" y="116"/>
      <point x="472" y="174" type="curve" smooth="yes"/>
      <point x="472" y="198" type="line" smooth="yes"/>
      <point x="472" y="322"/>
      <point x="542" y="395"/>
      <point x="653" y="395" type="curve" smooth="yes"/>
      <point x="769" y="395"/>
      <point x="835" y="322"/>
      <point x="835" y="198" type="curve" smooth="yes"/>
      <point x="835" y="0" type="line"/>
      <point x="1109" y="0" type="line" smooth="yes"/>
      <point x="1486" y="0"/>
      <point x="1735" y="180"/>
      <point x="1735" y="488" type="curve" smooth="yes"/>
      <point x="1735" y="493" type="line" smooth="yes"/>
      <point x="1735" y="843"/>
      <point x="1478" y="1047"/>
      <point x="981" y="1099" type="curve" smooth="yes"/>
      <point x="743" y="1124" type="line" smooth="yes"/>
      <point x="547" y="1145"/>
      <point x="504" y="1178"/>
      <point x="494" y="1261" type="curve" smooth="yes"/>
      <point x="491" y="1285" type="line"/>
      <point x="126" y="1285" type="line"/>
      <point x="126" y="1252" type="line" smooth="yes"/>
      <point x="126" y="1005"/>
      <point x="318" y="883"/>
      <point x="675" y="841" type="curve" smooth="yes"/>
      <point x="911" y="813" type="line" smooth="yes"/>
      <point x="1204" y="778"/>
      <point x="1354" y="679"/>
      <point x="1354" y="502" type="curve" smooth="yes"/>
      <point x="1354" y="497" type="line" smooth="yes"/>
      <point x="1354" y="361"/>
      <point x="1263" y="285"/>
      <point x="1118" y="285" type="curve" smooth="yes"/>
      <point x="896" y="285" type="line"/>
      <point x="1143" y="75" type="line"/>
      <point x="1143" y="236" type="line" smooth="yes"/>
      <point x="1143" y="541"/>
      <point x="959" y="705"/>
      <point x="634" y="704" type="curve" smooth="yes"/>
      <point x="246" y="702"/>
      <point x="106" y="505"/>
      <point x="106" y="213" type="curve" smooth="yes"/>
      <point x="106" y="171" type="line" smooth="yes"/>
      <point x="106" y="114"/>
      <point x="106" y="57"/>
    </contour>
  </outline>
</glyph>
<glyph name="SignLru.bn" format="2">
	<advance width="1578"/>
	<unicode hex="09E2"/>
	<outline>
		<contour>
			<point x="572" y="-764" type="curve"/>
			<point x="833" y="-764" type="line"/>
			<point x="833" y="-728"/>
			<point x="833" y="-691"/>
			<point x="833" y="-655" type="curve" smooth="yes"/>
			<point x="833" y="-616" type="line" smooth="yes"/>
			<point x="833" y="-557"/>
			<point x="865" y="-521"/>
			<point x="910" y="-521" type="curve" smooth="yes"/>
			<point x="964" y="-521"/>
			<point x="989" y="-559"/>
			<point x="989" y="-615" type="curve" smooth="yes"/>
			<point x="989" y="-764" type="line"/>
			<point x="1168" y="-764" type="line" smooth="yes"/>
			<point x="1398" y="-764"/>
			<point x="1552" y="-652"/>
			<point x="1552" y="-467" type="curve" smooth="yes"/>
			<point x="1552" y="-457" type="line" smooth="yes"/>
			<point x="1552" y="-244"/>
			<point x="1397" y="-121"/>
			<point x="1096" y="-83" type="curve" smooth="yes"/>
			<point x="977" y="-68" type="line" smooth="yes"/>
			<point x="857" y="-53"/>
			<point x="844" y="-36"/>
			<point x="837" y="5" type="curve" smooth="yes"/>
			<point x="835" y="19" type="line"/>
			<point x="576" y="19" type="line"/>
			<point x="576" y="-2" type="line" smooth="yes"/>
			<point x="576" y="-159"/>
			<point x="696" y="-236"/>
			<point x="924" y="-269" type="curve" smooth="yes"/>
			<point x="1041" y="-286" type="line" smooth="yes"/>
			<point x="1200" y="-309"/>
			<point x="1280" y="-360"/>
			<point x="1280" y="-452" type="curve" smooth="yes"/>
			<point x="1280" y="-460" type="line" smooth="yes"/>
			<point x="1280" y="-524"/>
			<point x="1239" y="-561"/>
			<point x="1175" y="-561" type="curve" smooth="yes"/>
			<point x="1036" y="-561" type="line"/>
			<point x="1209" y="-708" type="line"/>
			<point x="1209" y="-608" type="line" smooth="yes"/>
			<point x="1209" y="-419"/>
			<point x="1096" y="-319"/>
			<point x="896" y="-320" type="curve" smooth="yes"/>
			<point x="655" y="-321"/>
			<point x="572" y="-445"/>
			<point x="572" y="-625" type="curve" smooth="yes"/>
			<point x="572" y="-657" type="line" smooth="yes"/>
			<point x="572" y="-693"/>
			<point x="572" y="-729"/>
		</contour>
	</outline>
</glyph>
<glyph name="SignLruu.bn" format="2">
  <advance width="1578"/>
  <unicode hex="09E3"/>
  <outline>
    <contour>
      <point x="1220" y="-567" type="curve"/>
      <point x="1160" y="-751" type="line"/>
      <point x="1293" y="-763"/>
      <point x="1323" y="-812"/>
      <point x="1323" y="-864" type="curve" smooth="yes"/>
      <point x="1323" y="-872" type="line" smooth="yes"/>
      <point x="1323" y="-914"/>
      <point x="1285" y="-946"/>
      <point x="1230" y="-946" type="curve" smooth="yes"/>
      <point x="1109" y="-946" type="line"/>
      <point x="1270" y="-1083" type="line"/>
      <point x="1270" y="-1038" type="line" smooth="yes"/>
      <point x="1270" y="-873"/>
      <point x="1179" y="-786"/>
      <point x="1012" y="-786" type="curve" smooth="yes"/>
      <point x="818" y="-786"/>
      <point x="742" y="-888"/>
      <point x="742" y="-1054" type="curve" smooth="yes"/>
      <point x="742" y="-1083" type="line" smooth="yes"/>
      <point x="742" y="-1102"/>
      <point x="742" y="-1122"/>
      <point x="742" y="-1138" type="curve"/>
      <point x="975" y="-1138" type="line"/>
      <point x="975" y="-1113"/>
      <point x="975" y="-1085"/>
      <point x="975" y="-1057" type="curve" smooth="yes"/>
      <point x="975" y="-1048" type="line" smooth="yes"/>
      <point x="975" y="-1008"/>
      <point x="999" y="-991"/>
      <point x="1025" y="-991" type="curve" smooth="yes"/>
      <point x="1064" y="-991"/>
      <point x="1075" y="-1014"/>
      <point x="1075" y="-1047" type="curve" smooth="yes"/>
      <point x="1075" y="-1138" type="line"/>
      <point x="1222" y="-1138" type="line" smooth="yes"/>
      <point x="1437" y="-1138"/>
      <point x="1581" y="-1037"/>
      <point x="1581" y="-879" type="curve" smooth="yes"/>
      <point x="1581" y="-867" type="line" smooth="yes"/>
      <point x="1581" y="-688"/>
      <point x="1446" y="-619"/>
    </contour>
    <contour>
      <point x="572" y="-764" type="curve"/>
      <point x="833" y="-764" type="line"/>
      <point x="833" y="-728"/>
      <point x="833" y="-691"/>
      <point x="833" y="-655" type="curve" smooth="yes"/>
      <point x="833" y="-616" type="line" smooth="yes"/>
      <point x="833" y="-557"/>
      <point x="865" y="-521"/>
      <point x="910" y="-521" type="curve" smooth="yes"/>
      <point x="964" y="-521"/>
      <point x="989" y="-559"/>
      <point x="989" y="-615" type="curve" smooth="yes"/>
      <point x="989" y="-764" type="line"/>
      <point x="1168" y="-764" type="line" smooth="yes"/>
      <point x="1398" y="-764"/>
      <point x="1552" y="-652"/>
      <point x="1552" y="-467" type="curve" smooth="yes"/>
      <point x="1552" y="-457" type="line" smooth="yes"/>
      <point x="1552" y="-244"/>
      <point x="1397" y="-121"/>
      <point x="1096" y="-83" type="curve" smooth="yes"/>
      <point x="977" y="-68" type="line" smooth="yes"/>
      <point x="857" y="-53"/>
      <point x="844" y="-36"/>
      <point x="837" y="5" type="curve" smooth="yes"/>
      <point x="835" y="19" type="line"/>
      <point x="576" y="19" type="line"/>
      <point x="576" y="-2" type="line" smooth="yes"/>
      <point x="576" y="-159"/>
      <point x="696" y="-236"/>
      <point x="924" y="-269" type="curve" smooth="yes"/>
      <point x="1041" y="-286" type="line" smooth="yes"/>
      <point x="1200" y="-309"/>
      <point x="1280" y="-360"/>
      <point x="1280" y="-452" type="curve" smooth="yes"/>
      <point x="1280" y="-460" type="line" smooth="yes"/>
      <point x="1280" y="-524"/>
      <point x="1239" y="-561"/>
      <point x="1175" y="-561" type="curve" smooth="yes"/>
      <point x="1036" y="-561" type="line"/>
      <point x="1209" y="-708" type="line"/>
      <point x="1209" y="-608" type="line" smooth="yes"/>
      <point x="1209" y="-419"/>
      <point x="1096" y="-319"/>
      <point x="896" y="-320" type="curve" smooth="yes"/>
      <point x="655" y="-321"/>
      <point x="572" y="-445"/>
      <point x="572" y="-625" type="curve" smooth="yes"/>
      <point x="572" y="-657" type="line" smooth="yes"/>
      <point x="572" y="-693"/>
      <point x="572" y="-729"/>
    </contour>
  </outline>
</glyph>
<glyph name="Zero.bn" format="2">
  <advance width="1630"/>
  <unicode hex="09E6"/>
  <outline>
    <contour>
      <point x="817" y="0" type="curve" smooth="yes"/>
      <point x="1276" y="0"/>
      <point x="1535" y="238"/>
      <point x="1535" y="637" type="curve" smooth="yes"/>
      <point x="1535" y="647" type="line" smooth="yes"/>
      <point x="1535" y="1050"/>
      <point x="1276" y="1285"/>
      <point x="813" y="1285" type="curve" smooth="yes"/>
      <point x="350" y="1285"/>
      <point x="95" y="1053"/>
      <point x="95" y="647" type="curve" smooth="yes"/>
      <point x="95" y="637" type="line" smooth="yes"/>
      <point x="95" y="238"/>
      <point x="357" y="0"/>
    </contour>
    <contour>
      <point x="815" y="299" type="curve" smooth="yes"/>
      <point x="587" y="299"/>
      <point x="469" y="420"/>
      <point x="469" y="640" type="curve" smooth="yes"/>
      <point x="469" y="645" type="line" smooth="yes"/>
      <point x="469" y="870"/>
      <point x="587" y="986"/>
      <point x="815" y="986" type="curve" smooth="yes"/>
      <point x="1047" y="986"/>
      <point x="1163" y="870"/>
      <point x="1163" y="645" type="curve" smooth="yes"/>
      <point x="1163" y="640" type="line" smooth="yes"/>
      <point x="1163" y="420"/>
      <point x="1047" y="299"/>
    </contour>
  </outline>
</glyph>
<glyph name="One.bn" format="2">
	<advance width="1538"/>
	<unicode hex="09E7"/>
	<outline>
		<contour>
			<point x="1450" y="480" type="curve" smooth="yes"/>
			<point x="1450" y="487" type="line"/>
			<point x="1450" y="777"/>
			<point x="1252" y="904"/>
			<point x="906" y="1030" type="curve" smooth="yes"/>
			<point x="625" y="1132" type="line" smooth="yes"/>
			<point x="529" y="1167"/>
			<point x="508" y="1199"/>
			<point x="500" y="1261" type="curve" smooth="yes"/>
			<point x="497" y="1285" type="line"/>
			<point x="131" y="1285" type="line"/>
			<point x="131" y="1253" type="line" smooth="yes"/>
			<point x="131" y="1084"/>
			<point x="196" y="967"/>
			<point x="510" y="850" type="curve" smooth="yes"/>
			<point x="805" y="740" type="line" smooth="yes"/>
			<point x="967" y="680"/>
			<point x="1075" y="634"/>
			<point x="1075" y="511" type="curve" smooth="yes"/>
			<point x="1075" y="502" type="line" smooth="yes"/>
			<point x="1075" y="375"/>
			<point x="966" y="306"/>
			<point x="766" y="306" type="curve" smooth="yes"/>
			<point x="556" y="306"/>
			<point x="448" y="367"/>
			<point x="448" y="477" type="curve" smooth="yes"/>
			<point x="448" y="505"/>
			<point x="453" y="547"/>
			<point x="464" y="586" type="curve"/>
			<point x="90" y="586" type="line"/>
			<point x="75" y="545"/>
			<point x="68" y="499"/>
			<point x="68" y="446" type="curve" smooth="yes"/>
			<point x="68" y="157"/>
			<point x="313" y="2"/>
			<point x="783" y="2" type="curve" smooth="yes"/>
			<point x="1225" y="2"/>
			<point x="1450" y="161"/>
		</contour>
	</outline>
</glyph>
<glyph name="Two.bn" format="2">
  <advance width="1489"/>
  <unicode hex="09E8"/>
  <outline>
    <contour>
      <point x="1481" y="-132" type="line"/>
      <point x="1501" y="170" type="line"/>
      <point x="1200" y="243" type="line"/>
      <point x="854" y="301" type="line"/>
      <point x="997" y="154" type="line"/>
      <point x="997" y="357" type="line"/>
      <point x="689" y="326" type="line"/>
      <point x="760" y="301"/>
      <point x="850" y="287"/>
      <point x="941" y="287" type="curve" smooth="yes"/>
      <point x="1215" y="287"/>
      <point x="1350" y="406"/>
      <point x="1350" y="638" type="curve" smooth="yes"/>
      <point x="1350" y="642" type="line" smooth="yes"/>
      <point x="1350" y="924"/>
      <point x="1082" y="1036"/>
      <point x="803" y="1085" type="curve" smooth="yes"/>
      <point x="542" y="1131" type="line" smooth="yes"/>
      <point x="423" y="1152"/>
      <point x="409" y="1198"/>
      <point x="401" y="1262" type="curve" smooth="yes"/>
      <point x="398" y="1286" type="line"/>
      <point x="33" y="1286" type="line"/>
      <point x="33" y="1252" type="line" smooth="yes"/>
      <point x="33" y="997"/>
      <point x="209" y="893"/>
      <point x="424" y="854" type="curve" smooth="yes"/>
      <point x="718" y="800" type="line" smooth="yes"/>
      <point x="902" y="767"/>
      <point x="967" y="723"/>
      <point x="967" y="644" type="curve" smooth="yes"/>
      <point x="967" y="639" type="line" smooth="yes"/>
      <point x="967" y="535"/>
      <point x="905" y="498"/>
      <point x="731" y="498" type="curve" smooth="yes"/>
      <point x="558" y="498"/>
      <point x="409" y="528"/>
      <point x="296" y="554" type="curve" smooth="yes"/>
      <point x="107" y="597" type="line"/>
      <point x="92" y="233" type="line"/>
    </contour>
  </outline>
</glyph>
<glyph name="Three.bn" format="2">
  <advance width="1965"/>
  <unicode hex="09E9"/>
  <outline>
    <contour>
      <point x="1065" y="0" type="curve" smooth="yes"/>
      <point x="1582" y="0"/>
      <point x="1862" y="244"/>
      <point x="1862" y="682" type="curve" smooth="yes"/>
      <point x="1862" y="698" type="line" smooth="yes"/>
      <point x="1862" y="1061"/>
      <point x="1659" y="1253"/>
      <point x="1273" y="1253" type="curve" smooth="yes"/>
      <point x="922" y="1253"/>
      <point x="736" y="1085"/>
      <point x="736" y="780" type="curve" smooth="yes"/>
      <point x="736" y="742"/>
      <point x="742" y="702"/>
      <point x="754" y="662" type="curve"/>
      <point x="1144" y="662" type="line"/>
      <point x="1132" y="698"/>
      <point x="1126" y="731"/>
      <point x="1126" y="762" type="curve" smooth="yes"/>
      <point x="1126" y="874"/>
      <point x="1180" y="929"/>
      <point x="1289" y="929" type="curve" smooth="yes"/>
      <point x="1419" y="929"/>
      <point x="1482" y="855"/>
      <point x="1482" y="705" type="curve" smooth="yes"/>
      <point x="1482" y="689" type="line" smooth="yes"/>
      <point x="1482" y="455"/>
      <point x="1333" y="326"/>
      <point x="1054" y="326" type="curve" smooth="yes"/>
      <point x="676" y="326"/>
      <point x="477" y="511"/>
      <point x="461" y="865" type="curve" smooth="yes"/>
      <point x="455" y="1004" type="line"/>
      <point x="84" y="1004" type="line"/>
      <point x="92" y="847" type="line" smooth="yes"/>
      <point x="122" y="287"/>
      <point x="446" y="0"/>
    </contour>
  </outline>
</glyph>
<glyph name="Four.bn" format="2">
	<advance width="1597"/>
	<unicode hex="09EA"/>
	<outline>
		<contour>
			<point x="799" y="786" type="curve" smooth="yes"/>
			<point x="999" y="786"/>
			<point x="1104" y="821"/>
			<point x="1104" y="892" type="curve" smooth="yes"/>
			<point x="1104" y="897" type="line" smooth="yes"/>
			<point x="1104" y="973"/>
			<point x="996" y="1011"/>
			<point x="799" y="1011" type="curve" smooth="yes"/>
			<point x="589" y="1011"/>
			<point x="495" y="973"/>
			<point x="495" y="897" type="curve" smooth="yes"/>
			<point x="495" y="892" type="line" smooth="yes"/>
			<point x="495" y="821"/>
			<point x="590" y="786"/>
		</contour>
		<contour>
			<point x="595" y="672" type="curve"/>
			<point x="680" y="580" type="line"/>
			<point x="381" y="580" type="line"/>
			<point x="381" y="720" type="line"/>
			<point x="680" y="720" type="line"/>
			<point x="595" y="640" type="line"/>
			<point x="269" y="640"/>
			<point x="99" y="741"/>
			<point x="99" y="931" type="curve" smooth="yes"/>
			<point x="99" y="938" type="line" smooth="yes"/>
			<point x="99" y="1173"/>
			<point x="333" y="1291"/>
			<point x="782" y="1291" type="curve" smooth="yes"/>
			<point x="1259" y="1291"/>
			<point x="1500" y="1171"/>
			<point x="1500" y="936" type="curve" smooth="yes"/>
			<point x="1500" y="931" type="line" smooth="yes"/>
			<point x="1500" y="741"/>
			<point x="1330" y="640"/>
			<point x="994" y="640" type="curve"/>
			<point x="917" y="720" type="line"/>
			<point x="1218" y="720" type="line"/>
			<point x="1218" y="580" type="line"/>
			<point x="917" y="580" type="line"/>
			<point x="994" y="672" type="line"/>
			<point x="1344" y="672"/>
			<point x="1525" y="570"/>
			<point x="1525" y="370" type="curve" smooth="yes"/>
			<point x="1525" y="364" type="line" smooth="yes"/>
			<point x="1525" y="117"/>
			<point x="1272" y="-7"/>
			<point x="794" y="-7" type="curve" smooth="yes"/>
			<point x="323" y="-7"/>
			<point x="72" y="113"/>
			<point x="72" y="354" type="curve" smooth="yes"/>
			<point x="72" y="359" type="line" smooth="yes"/>
			<point x="72" y="565"/>
			<point x="254" y="672"/>
		</contour>
		<contour>
			<point x="799" y="274" type="curve" smooth="yes"/>
			<point x="1016" y="274"/>
			<point x="1129" y="320"/>
			<point x="1129" y="403" type="curve" smooth="yes"/>
			<point x="1129" y="409" type="line" smooth="yes"/>
			<point x="1129" y="486"/>
			<point x="1016" y="528"/>
			<point x="799" y="528" type="curve" smooth="yes"/>
			<point x="569" y="528"/>
			<point x="468" y="486"/>
			<point x="468" y="409" type="curve" smooth="yes"/>
			<point x="468" y="403" type="line" smooth="yes"/>
			<point x="468" y="320"/>
			<point x="573" y="274"/>
		</contour>
	</outline>
</glyph>
<glyph name="Five.bn" format="2">
  <advance width="1650"/>
  <unicode hex="09EB"/>
  <outline>
    <contour>
      <point x="955" y="-27" type="curve" smooth="yes"/>
      <point x="1257" y="-27"/>
      <point x="1467" y="45"/>
      <point x="1599" y="153" type="curve"/>
      <point x="1484" y="294"/>
      <point x="1438" y="426"/>
      <point x="1438" y="559" type="curve"/>
      <point x="1438" y="563" type="line" smooth="yes"/>
      <point x="1438" y="696"/>
      <point x="1501" y="815"/>
      <point x="1583" y="911" type="curve"/>
      <point x="1376" y="1124" type="line"/>
      <point x="1278" y="1096"/>
      <point x="1175" y="1081"/>
      <point x="1052" y="1081" type="curve" smooth="yes"/>
      <point x="852" y="1081"/>
      <point x="729" y="1126"/>
      <point x="677" y="1255" type="curve" smooth="yes"/>
      <point x="675" y="1260" type="line"/>
      <point x="404" y="1260" type="line"/>
      <point x="227" y="1144"/>
      <point x="93" y="925"/>
      <point x="93" y="678" type="curve" smooth="yes"/>
      <point x="93" y="675" type="line" smooth="yes"/>
      <point x="93" y="225"/>
      <point x="420" y="-27"/>
    </contour>
    <contour>
      <point x="985" y="787" type="curve" smooth="yes"/>
      <point x="1181" y="787"/>
      <point x="1284" y="862"/>
      <point x="1355" y="908" type="curve"/>
      <point x="1311" y="967" type="line"/>
      <point x="1207" y="896"/>
      <point x="1064" y="765"/>
      <point x="1064" y="556" type="curve" smooth="yes"/>
      <point x="1064" y="552" type="line" smooth="yes"/>
      <point x="1064" y="459"/>
      <point x="1107" y="310"/>
      <point x="1207" y="215" type="curve"/>
      <point x="1244" y="329" type="line"/>
      <point x="1179" y="293"/>
      <point x="1105" y="264"/>
      <point x="955" y="264" type="curve" smooth="yes"/>
      <point x="663" y="264"/>
      <point x="485" y="400"/>
      <point x="485" y="685" type="curve" smooth="yes"/>
      <point x="485" y="688" type="line" smooth="yes"/>
      <point x="485" y="804"/>
      <point x="532" y="932"/>
      <point x="630" y="1010" type="curve"/>
      <point x="549" y="981" type="line"/>
      <point x="647" y="848"/>
      <point x="756" y="787"/>
    </contour>
  </outline>
</glyph>
<glyph name="Six.bn" format="2">
	<advance width="1933"/>
	<unicode hex="09EC"/>
	<outline>
		<contour>
			<point x="1011" y="0" type="curve" smooth="yes"/>
			<point x="1561" y="0"/>
			<point x="1842" y="186"/>
			<point x="1842" y="559" type="curve" smooth="yes"/>
			<point x="1842" y="653"/>
			<point x="1824" y="728"/>
			<point x="1799" y="815" type="curve"/>
			<point x="1475" y="878" type="line"/>
			<point x="1359" y="825" type="line" smooth="yes"/>
			<point x="1286" y="792"/>
			<point x="1219" y="766"/>
			<point x="1148" y="766" type="curve" smooth="yes"/>
			<point x="1086" y="766"/>
			<point x="1053" y="797"/>
			<point x="1053" y="852" type="curve" smooth="yes"/>
			<point x="1053" y="877" type="line"/>
			<point x="683" y="879" type="line"/>
			<point x="683" y="858" type="line" smooth="yes"/>
			<point x="683" y="660"/>
			<point x="735" y="469"/>
			<point x="1082" y="469" type="curve" smooth="yes"/>
			<point x="1200" y="469"/>
			<point x="1357" y="482"/>
			<point x="1480" y="553" type="curve" smooth="yes"/>
			<point x="1673" y="665" type="line"/>
			<point x="1464" y="675" type="line"/>
			<point x="1466" y="631"/>
			<point x="1468" y="595"/>
			<point x="1468" y="561" type="curve" smooth="yes"/>
			<point x="1468" y="375"/>
			<point x="1283" y="298"/>
			<point x="1006" y="298" type="curve" smooth="yes"/>
			<point x="549" y="298"/>
			<point x="465" y="528"/>
			<point x="446" y="757" type="curve" smooth="yes"/>
			<point x="441" y="821" type="line"/>
			<point x="72" y="821" type="line"/>
			<point x="76" y="740" type="line" smooth="yes"/>
			<point x="101" y="245"/>
			<point x="410" y="0"/>
		</contour>
		<contour>
			<point x="683" y="906" type="curve" smooth="yes"/>
			<point x="683" y="861" type="line"/>
			<point x="1053" y="861" type="line"/>
			<point x="1053" y="906" type="line" smooth="yes"/>
			<point x="1053" y="1160"/>
			<point x="875" y="1248"/>
			<point x="589" y="1248" type="curve" smooth="yes"/>
			<point x="473" y="1248" type="line"/>
			<point x="493" y="986" type="line"/>
			<point x="591" y="986" type="line" smooth="yes"/>
			<point x="664" y="986"/>
			<point x="683" y="951"/>
		</contour>
	</outline>
</glyph>
<glyph name="Seven.bn" format="2">
  <advance width="1601"/>
  <unicode hex="09ED"/>
  <outline>
    <contour>
      <point x="791" y="1285" type="curve" smooth="yes"/>
      <point x="535" y="1285"/>
      <point x="298" y="1214"/>
      <point x="170" y="1066" type="curve" smooth="yes"/>
      <point x="109" y="995"/>
      <point x="73" y="906"/>
      <point x="73" y="798" type="curve" smooth="yes"/>
      <point x="73" y="524"/>
      <point x="274" y="381"/>
      <point x="639" y="384" type="curve" smooth="yes"/>
      <point x="1135" y="388" type="line"/>
      <point x="1135" y="670" type="line"/>
      <point x="631" y="667" type="line" smooth="yes"/>
      <point x="500" y="666"/>
      <point x="453" y="707"/>
      <point x="453" y="789" type="curve" smooth="yes"/>
      <point x="453" y="847"/>
      <point x="480" y="891"/>
      <point x="523" y="923" type="curve" smooth="yes"/>
      <point x="588" y="972"/>
      <point x="692" y="991"/>
      <point x="795" y="991" type="curve" smooth="yes"/>
      <point x="1009" y="991"/>
      <point x="1053" y="902"/>
      <point x="1053" y="776" type="curve" smooth="yes"/>
      <point x="1053" y="346" type="line"/>
      <point x="1423" y="356" type="line"/>
      <point x="1423" y="783" type="line" smooth="yes"/>
      <point x="1423" y="1118"/>
      <point x="1204" y="1285"/>
    </contour>
    <contour>
      <point x="1423" y="366" type="line"/>
      <point x="1053" y="366" type="line"/>
      <point x="1053" y="321" type="line" smooth="yes"/>
      <point x="1053" y="67"/>
      <point x="1231" y="-21"/>
      <point x="1517" y="-21" type="curve" smooth="yes"/>
      <point x="1633" y="-21" type="line"/>
      <point x="1613" y="241" type="line"/>
      <point x="1515" y="241" type="line" smooth="yes"/>
      <point x="1442" y="241"/>
      <point x="1423" y="276"/>
      <point x="1423" y="321" type="curve" smooth="yes"/>
    </contour>
  </outline>
</glyph>
<glyph name="Eight.bn" format="2">
  <advance width="1853"/>
  <unicode hex="09EE"/>
  <outline>
    <contour>
      <point x="857" y="0" type="curve" smooth="yes"/>
      <point x="1076" y="0"/>
      <point x="1275" y="52"/>
      <point x="1400" y="162" type="curve" smooth="yes"/>
      <point x="1484" y="235"/>
      <point x="1534" y="334"/>
      <point x="1534" y="459" type="curve" smooth="yes"/>
      <point x="1534" y="555"/>
      <point x="1477" y="660"/>
      <point x="1348" y="697" type="curve"/>
      <point x="1326" y="728" type="line"/>
      <point x="1246" y="863"/>
      <point x="1115" y="863"/>
      <point x="948" y="863" type="curve" smooth="yes"/>
      <point x="496" y="863" type="line"/>
      <point x="494" y="580" type="line"/>
      <point x="953" y="580" type="line" smooth="yes"/>
      <point x="1097" y="582"/>
      <point x="1151" y="555"/>
      <point x="1151" y="495" type="curve" smooth="yes"/>
      <point x="1151" y="425"/>
      <point x="1113" y="375"/>
      <point x="1055" y="343" type="curve" smooth="yes"/>
      <point x="995" y="310"/>
      <point x="914" y="295"/>
      <point x="828" y="295" type="curve" smooth="yes"/>
      <point x="598" y="295"/>
      <point x="548" y="381"/>
      <point x="548" y="487" type="curve" smooth="yes"/>
      <point x="548" y="898" type="line"/>
      <point x="178" y="903" type="line"/>
      <point x="178" y="486" type="line" smooth="yes"/>
      <point x="178" y="141"/>
      <point x="442" y="0"/>
    </contour>
    <contour>
      <point x="1318" y="617" type="line"/>
      <point x="1792" y="599" type="line"/>
      <point x="1792" y="863" type="line"/>
      <point x="948" y="863" type="line"/>
    </contour>
    <contour>
      <point x="178" y="861" type="line"/>
      <point x="548" y="861" type="line"/>
      <point x="548" y="906" type="line" smooth="yes"/>
      <point x="548" y="1160"/>
      <point x="370" y="1248"/>
      <point x="84" y="1248" type="curve" smooth="yes"/>
      <point x="-32" y="1248" type="line"/>
      <point x="-12" y="986" type="line"/>
      <point x="86" y="986" type="line" smooth="yes"/>
      <point x="159" y="986"/>
      <point x="178" y="951"/>
      <point x="178" y="906" type="curve" smooth="yes"/>
    </contour>
  </outline>
</glyph>
<glyph name="Nine.bn" format="2">
  <advance width="1754"/>
  <unicode hex="09EF"/>
  <outline>
    <contour>
      <point x="32" y="0" type="curve"/>
      <point x="398" y="0" type="line"/>
      <point x="398" y="59"/>
      <point x="398" y="116"/>
      <point x="398" y="174" type="curve" smooth="yes"/>
      <point x="398" y="198" type="line" smooth="yes"/>
      <point x="398" y="322"/>
      <point x="468" y="395"/>
      <point x="579" y="395" type="curve" smooth="yes"/>
      <point x="695" y="395"/>
      <point x="761" y="322"/>
      <point x="761" y="198" type="curve" smooth="yes"/>
      <point x="761" y="0" type="line"/>
      <point x="1035" y="0" type="line" smooth="yes"/>
      <point x="1412" y="0"/>
      <point x="1661" y="180"/>
      <point x="1661" y="488" type="curve" smooth="yes"/>
      <point x="1661" y="493" type="line" smooth="yes"/>
      <point x="1661" y="843"/>
      <point x="1404" y="1047"/>
      <point x="907" y="1099" type="curve" smooth="yes"/>
      <point x="669" y="1124" type="line" smooth="yes"/>
      <point x="473" y="1145"/>
      <point x="430" y="1178"/>
      <point x="420" y="1261" type="curve" smooth="yes"/>
      <point x="417" y="1285" type="line"/>
      <point x="52" y="1285" type="line"/>
      <point x="52" y="1252" type="line" smooth="yes"/>
      <point x="52" y="1005"/>
      <point x="244" y="883"/>
      <point x="601" y="841" type="curve" smooth="yes"/>
      <point x="837" y="813" type="line" smooth="yes"/>
      <point x="1130" y="778"/>
      <point x="1280" y="679"/>
      <point x="1280" y="502" type="curve" smooth="yes"/>
      <point x="1280" y="497" type="line" smooth="yes"/>
      <point x="1280" y="361"/>
      <point x="1189" y="285"/>
      <point x="1044" y="285" type="curve" smooth="yes"/>
      <point x="822" y="285" type="line"/>
      <point x="1069" y="75" type="line"/>
      <point x="1069" y="236" type="line" smooth="yes"/>
      <point x="1069" y="541"/>
      <point x="885" y="705"/>
      <point x="560" y="704" type="curve" smooth="yes"/>
      <point x="172" y="702"/>
      <point x="32" y="505"/>
      <point x="32" y="213" type="curve" smooth="yes"/>
      <point x="32" y="171" type="line" smooth="yes"/>
      <point x="32" y="114"/>
      <point x="32" y="57"/>
    </contour>
  </outline>
</glyph>
<glyph name="RupeeMark.bn" format="2">
	<advance width="1247"/>
	<unicode hex="09F2"/>
	<outline>
		<contour>
			<point x="849" y="0" type="curve"/>
			<point x="1162" y="0" type="line"/>
			<point x="1089" y="682"/>
			<point x="557" y="933"/>
			<point x="115" y="993" type="curve"/>
			<point x="85" y="660" type="line"/>
			<point x="506" y="604"/>
			<point x="782" y="421"/>
		</contour>
	</outline>
</glyph>
<glyph name="RupeeSign.bn" format="2">
	<advance width="1410"/>
	<unicode hex="09F3"/>
	<outline>
		<contour>
			<point x="727" y="-7" type="curve" smooth="yes"/>
			<point x="943" y="-7"/>
			<point x="1150" y="47"/>
			<point x="1259" y="168" type="curve" smooth="yes"/>
			<point x="1310" y="223"/>
			<point x="1340" y="293"/>
			<point x="1340" y="378" type="curve" smooth="yes"/>
			<point x="1340" y="592"/>
			<point x="1150" y="693"/>
			<point x="832" y="693" type="curve" smooth="yes"/>
			<point x="767" y="693"/>
			<point x="702" y="688"/>
			<point x="643" y="683" type="curve"/>
			<point x="620" y="416" type="line"/>
			<point x="692" y="421"/>
			<point x="768" y="428"/>
			<point x="834" y="428" type="curve" smooth="yes"/>
			<point x="936" y="428"/>
			<point x="977" y="410"/>
			<point x="977" y="368" type="curve" smooth="yes"/>
			<point x="977" y="337"/>
			<point x="948" y="316"/>
			<point x="905" y="302" type="curve" smooth="yes"/>
			<point x="853" y="284"/>
			<point x="782" y="277"/>
			<point x="720" y="277" type="curve" smooth="yes"/>
			<point x="556" y="277"/>
			<point x="489" y="316"/>
			<point x="489" y="432" type="curve" smooth="yes"/>
			<point x="489" y="991" type="line"/>
			<point x="119" y="991" type="line"/>
			<point x="119" y="426" type="line" smooth="yes"/>
			<point x="119" y="118"/>
			<point x="349" y="-7"/>
		</contour>
		<contour>
			<point x="-45" y="788" type="line"/>
			<point x="1436" y="788" type="line"/>
			<point x="1416" y="1052" type="line"/>
			<point x="-65" y="1052" type="line"/>
		</contour>
		<contour>
			<point x="119" y="1078" type="curve" smooth="yes"/>
			<point x="119" y="1033" type="line"/>
			<point x="489" y="1033" type="line"/>
			<point x="489" y="1078" type="line" smooth="yes"/>
			<point x="489" y="1332"/>
			<point x="311" y="1420"/>
			<point x="25" y="1420" type="curve" smooth="yes"/>
			<point x="-91" y="1420" type="line"/>
			<point x="-71" y="1158" type="line"/>
			<point x="27" y="1158" type="line" smooth="yes"/>
			<point x="100" y="1158"/>
			<point x="119" y="1123"/>
		</contour>
	</outline>
</glyph>
<glyph name="uni09F7.bn" format="2">
	<advance width="736"/>
	<unicode hex="09F7"/>
	<outline>
		<contour>
			<point x="183" y="370" type="line"/>
			<point x="553" y="370" type="line"/>
			<point x="553" y="867" type="line"/>
			<point x="183" y="867" type="line"/>
		</contour>
		<contour>
			<point x="183" y="906" type="curve" smooth="yes"/>
			<point x="183" y="861" type="line"/>
			<point x="553" y="861" type="line"/>
			<point x="553" y="906" type="line" smooth="yes"/>
			<point x="553" y="1160"/>
			<point x="375" y="1248"/>
			<point x="89" y="1248" type="curve" smooth="yes"/>
			<point x="-27" y="1248" type="line"/>
			<point x="-7" y="986" type="line"/>
			<point x="91" y="986" type="line" smooth="yes"/>
			<point x="164" y="986"/>
			<point x="183" y="951"/>
		</contour>
		<contour>
			<point x="553" y="334" type="curve" smooth="yes"/>
			<point x="553" y="379" type="line"/>
			<point x="183" y="379" type="line"/>
			<point x="183" y="334" type="line" smooth="yes"/>
			<point x="183" y="80"/>
			<point x="361" y="-8"/>
			<point x="647" y="-8" type="curve" smooth="yes"/>
			<point x="763" y="-8" type="line"/>
			<point x="743" y="254" type="line"/>
			<point x="645" y="254" type="line" smooth="yes"/>
			<point x="572" y="254"/>
			<point x="553" y="289"/>
		</contour>
	</outline>
</glyph>
<glyph name="uni09F8.bn" format="2">
  <advance width="1685"/>
  <unicode hex="09F8"/>
  <outline>
    <contour>
      <point x="1132" y="365" type="line"/>
      <point x="1502" y="365" type="line"/>
      <point x="1502" y="935" type="line"/>
      <point x="1114" y="935" type="line"/>
      <point x="873" y="826"/>
      <point x="612" y="675"/>
      <point x="415" y="537" type="curve"/>
      <point x="526" y="389" type="line"/>
      <point x="553" y="812" type="line"/>
      <point x="553" y="877" type="line"/>
      <point x="183" y="877" type="line"/>
      <point x="183" y="241" type="line"/>
      <point x="536" y="241" type="line"/>
      <point x="804" y="423"/>
      <point x="1165" y="621"/>
      <point x="1363" y="725" type="curve"/>
      <point x="1148" y="851" type="line"/>
      <point x="1132" y="531" type="line"/>
    </contour>
    <contour>
      <point x="183" y="866" type="line"/>
      <point x="553" y="866" type="line"/>
      <point x="553" y="911" type="line" smooth="yes"/>
      <point x="553" y="1165"/>
      <point x="375" y="1253"/>
      <point x="89" y="1253" type="curve" smooth="yes"/>
      <point x="-27" y="1253" type="line"/>
      <point x="-7" y="991" type="line"/>
      <point x="91" y="991" type="line" smooth="yes"/>
      <point x="164" y="991"/>
      <point x="183" y="956"/>
      <point x="183" y="911" type="curve" smooth="yes"/>
    </contour>
    <contour>
      <point x="1502" y="379" type="line"/>
      <point x="1132" y="379" type="line"/>
      <point x="1132" y="334" type="line" smooth="yes"/>
      <point x="1132" y="80"/>
      <point x="1310" y="-8"/>
      <point x="1596" y="-8" type="curve" smooth="yes"/>
      <point x="1712" y="-8" type="line"/>
      <point x="1692" y="254" type="line"/>
      <point x="1594" y="254" type="line" smooth="yes"/>
      <point x="1521" y="254"/>
      <point x="1502" y="289"/>
      <point x="1502" y="334" type="curve" smooth="yes"/>
    </contour>
  </outline>
</glyph>
<glyph name="uni09F9.bn" format="2">
	<advance width="1216"/>
	<unicode hex="09F9"/>
	<outline>
		<contour>
			<point x="610" y="350" type="curve" smooth="yes"/>
			<point x="932" y="350"/>
			<point x="1098" y="458"/>
			<point x="1098" y="657" type="curve" smooth="yes"/>
			<point x="1098" y="669" type="line" smooth="yes"/>
			<point x="1098" y="868"/>
			<point x="932" y="975"/>
			<point x="606" y="975" type="curve" smooth="yes"/>
			<point x="280" y="975"/>
			<point x="118" y="868"/>
			<point x="118" y="669" type="curve" smooth="yes"/>
			<point x="118" y="657" type="line" smooth="yes"/>
			<point x="118" y="458"/>
			<point x="280" y="350"/>
		</contour>
		<contour>
			<point x="608" y="577" type="curve" smooth="yes"/>
			<point x="502" y="577"/>
			<point x="452" y="605"/>
			<point x="452" y="662" type="curve" smooth="yes"/>
			<point x="452" y="662" type="line" smooth="yes"/>
			<point x="452" y="715"/>
			<point x="502" y="747"/>
			<point x="608" y="748" type="curve" smooth="yes"/>
			<point x="714" y="749"/>
			<point x="764" y="719"/>
			<point x="764" y="662" type="curve" smooth="yes"/>
			<point x="764" y="662" type="line" smooth="yes"/>
			<point x="764" y="605"/>
			<point x="714" y="577"/>
		</contour>
	</outline>
</glyph>
